<svg width="200" height="200" viewBox="0 0 200 200" fill="none" xmlns="http://www.w3.org/2000/svg">
<path d="M161.058 117.964C159.055 99.1453 156.384 80.3266 153.313 61.6474C152.913 59.2776 150.643 58.1624 148.507 57.8836C123.805 54.3987 99.1037 55.2351 74.2686 57.326C65.3227 58.023 53.0387 57.326 45.2944 63.0413C44.2262 63.7383 43.4251 64.7141 42.624 65.5505C40.7547 66.1081 39.2859 67.6415 39.4195 70.29C39.4195 71.4052 39.4195 72.6598 39.4195 73.7749C39.4195 74.4719 39.4195 75.3083 39.4195 76.0053C40.0871 105 41.6893 133.855 44.3598 162.711C44.6268 165.22 46.3626 168.147 49.3001 167.868C67.8596 166.056 86.2856 164.244 104.845 162.432L133.419 159.644C140.762 158.947 149.708 159.504 156.652 156.716C161.191 154.904 163.194 151.001 163.461 146.122C164.129 136.922 161.992 126.885 161.058 117.964Z" fill="#F2BD1E"/>
<path d="M155.183 59.6958C155.049 58.9988 154.916 58.3018 154.649 57.6048C152.112 50.7744 144.368 51.3319 138.626 50.9137C118.865 49.5198 98.8366 49.3804 78.8084 50.3562C70.7971 50.635 62.3852 50.9137 54.3739 52.4471C49.033 53.4229 38.6183 55.9321 36.482 62.0655C35.4138 65.2717 36.6155 73.078 37.0161 76.2841C37.2831 78.5145 37.5502 80.7448 39.0189 82.557C43.6922 88.1329 55.0415 87.0177 61.1835 86.7389C81.4788 85.7631 101.774 82.9752 122.203 81.4418C133.018 80.6054 155.183 83.254 157.052 67.2233C157.453 64.2959 156.652 61.6474 155.183 59.6958Z" fill="#E86367"/>
<path d="M51.0359 50.0774V61.9262C51.0359 68.6173 60.9165 68.6173 60.9165 61.9262V50.0774C60.7829 43.3863 51.0359 43.3863 51.0359 50.0774Z" fill="#55B8CA"/>
<path d="M102.976 55.5139C102.175 52.8653 101.641 50.0774 101.507 47.2894C101.374 44.5015 99.3707 42.1317 96.5667 42.1317C94.0298 42.1317 91.4929 44.5015 91.6264 47.2894C91.8935 51.0532 92.4276 54.6775 93.4957 58.3018C94.2969 60.9504 96.9673 62.6231 99.5042 61.9262C102.041 61.0898 103.643 58.1624 102.976 55.5139Z" fill="#55B8CA"/>
<path d="M142.231 46.453C142.365 43.8045 139.828 41.1559 137.291 41.2953C134.487 41.4347 132.484 43.5257 132.351 46.453C132.217 49.1016 132.217 51.7502 132.484 54.3987C132.751 57.0473 134.62 59.6958 137.424 59.5564C139.961 59.417 142.632 57.3261 142.365 54.3987C142.098 51.7502 142.098 49.1016 142.231 46.453Z" fill="#55B8CA"/>
<path d="M56.6438 100.4H56.2432C53.7063 100.4 51.1694 102.77 51.3029 105.558C51.4364 108.346 53.4393 110.715 56.2432 110.715H56.6438C59.1807 110.715 61.7176 108.346 61.5841 105.558C61.4506 102.77 59.4477 100.4 56.6438 100.4Z" fill="#55B8CA"/>
<path d="M76.0044 99.5635C69.5954 99.5635 69.5954 109.879 76.0044 109.879C82.4135 109.879 82.4135 99.5635 76.0044 99.5635Z" fill="#55B8CA"/>
<path d="M96.1662 98.0301C89.7571 98.0301 89.7571 108.346 96.1662 108.346C102.575 108.346 102.575 98.0301 96.1662 98.0301Z" fill="#55B8CA"/>
<path d="M114.859 95.6604C108.45 95.6604 108.45 105.976 114.859 105.976C121.135 105.976 121.135 95.6604 114.859 95.6604Z" fill="#55B8CA"/>
<path d="M135.689 93.2906C129.28 93.2906 129.28 103.606 135.689 103.606C142.098 103.606 142.098 93.2906 135.689 93.2906Z" fill="#55B8CA"/>
<path d="M58.246 124.237H57.8455C55.3086 124.237 52.7716 126.607 52.9052 129.395C53.0387 132.183 55.0415 134.552 57.8455 134.552H58.246C60.7829 134.552 63.3199 132.183 63.1863 129.395C63.0528 126.607 60.9165 124.237 58.246 124.237Z" fill="#55B8CA"/>
<path d="M78.6749 121.867C72.2658 121.867 72.2658 132.183 78.6749 132.183C85.0839 132.183 85.0839 121.867 78.6749 121.867Z" fill="#55B8CA"/>
<path d="M98.0355 119.497C91.6264 119.497 91.6264 129.813 98.0355 129.813C104.445 129.673 104.445 119.497 98.0355 119.497Z" fill="#55B8CA"/>
<path d="M118.197 117.128C111.788 117.128 111.788 127.443 118.197 127.443C124.606 127.304 124.606 117.128 118.197 117.128Z" fill="#55B8CA"/>
<path d="M141.43 115.455C139.427 113.503 136.356 113.364 134.487 115.455L134.086 115.873C132.217 117.825 132.084 121.309 134.086 123.122C136.089 125.073 139.16 125.213 141.029 123.122L141.43 122.703C143.299 120.752 143.433 117.267 141.43 115.455Z" fill="#55B8CA"/>
<path d="M60.1153 145.983H59.3142C56.7773 145.983 54.2404 148.353 54.3739 151.14C54.5074 153.928 56.5102 156.298 59.3142 156.298H60.1153C62.6522 156.298 65.1892 153.928 65.0556 151.14C64.9221 148.353 62.9193 145.983 60.1153 145.983Z" fill="#55B8CA"/>
<path d="M80.2771 141.661H79.8765C77.3396 141.661 74.8027 144.031 74.9362 146.819C75.0698 149.607 77.0726 151.977 79.8765 151.977H80.2771C82.814 151.977 85.3509 149.607 85.2174 146.819C85.0839 144.031 82.9475 141.661 80.2771 141.661Z" fill="#E86367"/>
<path d="M101.507 137.758C95.098 137.758 95.098 148.074 101.507 148.074C107.916 147.934 107.916 137.758 101.507 137.758Z" fill="#55B8CA"/>
<path d="M123.138 134.134C116.729 134.134 116.729 144.449 123.138 144.449C129.547 144.449 129.547 134.134 123.138 134.134Z" fill="#55B8CA"/>
<path d="M142.365 136.504C135.956 136.504 135.956 146.819 142.365 146.819C148.64 146.819 148.64 136.504 142.365 136.504Z" fill="#55B8CA"/>
</svg>
