<svg width="52" height="52" viewBox="0 0 52 52" fill="none" xmlns="http://www.w3.org/2000/svg">
<path d="M42.2934 5.39499C37.2234 0.32499 27.95 1.34332 21.6017 7.69166C18.135 11.1583 16.1417 16.0767 16.0984 19.5217C16.055 22.945 16.6617 27.95 13.1734 31.4383L3.98669 40.625L7.06336 43.7017L16.25 34.515C19.7384 31.0267 24.7434 31.6333 28.1667 31.59C31.59 31.5467 36.53 29.5533 39.9967 26.0867C46.3234 19.7383 47.3634 10.465 42.2934 5.39499ZM22.36 25.3067C19.045 21.9917 20.085 15.3183 24.6567 10.7467C29.2284 6.17499 35.88 5.13499 39.2167 8.44999C42.5317 11.765 41.4917 18.4383 36.92 23.01C32.3484 27.5817 25.6967 28.6217 22.36 25.3067Z" fill="#FF5A5F"/>
<path d="M39 36.8333C40.1484 36.8333 41.2534 37.2883 42.055 38.1117C43.745 39.8017 43.745 42.5533 42.055 44.2433C41.2534 45.045 40.1484 45.5 39 45.5C37.8517 45.5 36.7467 45.045 35.945 44.2217C34.255 42.5317 34.255 39.78 35.945 38.09C36.7467 37.2883 37.8517 36.8333 39 36.8333ZM39 32.5C36.79 32.5 34.5584 33.345 32.8684 35.035C29.4884 38.415 29.4884 43.8967 32.8684 47.2983C34.5584 48.9883 36.79 49.8333 39 49.8333C41.21 49.8333 43.4417 48.9883 45.1317 47.2983C48.5117 43.9183 48.5117 38.4367 45.1317 35.035C43.4417 33.345 41.21 32.5 39 32.5Z" fill="#FF5A5F"/>
</svg>
