<svg width="52" height="52" viewBox="0 0 52 52" fill="none" xmlns="http://www.w3.org/2000/svg">
<path d="M4.33334 47.6666L34.6667 36.8333L15.1667 17.3333L4.33334 47.6666Z" fill="#F2BB1C"/>
<path d="M31.4817 27.1483L43.5933 15.0366C44.655 13.975 46.3667 13.975 47.4283 15.0366L48.7067 16.315L51.0033 14.0183L49.725 12.74C47.4067 10.4216 43.615 10.4216 41.2967 12.74L29.185 24.8516L31.4817 27.1483Z" fill="#F2BB1C"/>
<path d="M21.7967 14.9066L20.5183 16.185L22.815 18.4816L24.0933 17.2033C26.4117 14.885 26.4117 11.0933 24.0933 8.77498L22.815 7.49664L20.5183 9.81498L21.7967 11.0933C22.8367 12.1333 22.8367 13.8666 21.7967 14.9066Z" fill="#F2BB1C"/>
<path d="M36.9633 25.74L33.5183 29.185L35.815 31.4817L39.26 28.0367C40.3217 26.975 42.0333 26.975 43.095 28.0367L46.5833 31.525L48.88 29.2284L45.3917 25.74C43.0517 23.4217 39.2817 23.4217 36.9633 25.74Z" fill="#F2BB1C"/>
<path d="M32.63 12.74L24.8517 20.5183L27.1484 22.815L34.9267 15.0367C37.245 12.7183 37.245 8.92666 34.9267 6.60833L31.4817 3.16333L29.185 5.46L32.63 8.905C33.67 9.96666 33.67 11.7 32.63 12.74Z" fill="#F2BB1C"/>
</svg>
