<svg width="52" height="52" viewBox="0 0 52 52" fill="none" xmlns="http://www.w3.org/2000/svg">
<path d="M26 47.6666C14.0617 47.6666 4.33334 37.9383 4.33334 26C4.33334 14.0616 14.0617 4.33331 26 4.33331C37.9383 4.33331 47.6667 13.0866 47.6667 23.8333C47.6667 31.005 41.8383 36.8333 34.6667 36.8333H30.8317C30.225 36.8333 29.7483 37.31 29.7483 37.9166C29.7483 38.1766 29.8567 38.415 30.03 38.6316C30.9183 39.65 31.4167 40.9283 31.4167 42.25C31.4167 45.24 28.99 47.6666 26 47.6666ZM26 8.66665C16.445 8.66665 8.66667 16.445 8.66667 26C8.66667 35.555 16.445 43.3333 26 43.3333C26.6067 43.3333 27.0833 42.8566 27.0833 42.25C27.0833 41.9033 26.91 41.6433 26.78 41.4916C25.8917 40.495 25.415 39.2166 25.415 37.9166C25.415 34.9266 27.8417 32.5 30.8317 32.5H34.6667C39.455 32.5 43.3333 28.6216 43.3333 23.8333C43.3333 15.47 35.555 8.66665 26 8.66665Z" fill="#54B8CB"/>
<path d="M14.0833 28.1667C15.8783 28.1667 17.3333 26.7116 17.3333 24.9167C17.3333 23.1218 15.8783 21.6667 14.0833 21.6667C12.2884 21.6667 10.8333 23.1218 10.8333 24.9167C10.8333 26.7116 12.2884 28.1667 14.0833 28.1667Z" fill="#54B8CB"/>
<path d="M20.5833 19.5C22.3783 19.5 23.8333 18.0449 23.8333 16.25C23.8333 14.4551 22.3783 13 20.5833 13C18.7884 13 17.3333 14.4551 17.3333 16.25C17.3333 18.0449 18.7884 19.5 20.5833 19.5Z" fill="#54B8CB"/>
<path d="M31.4167 19.5C33.2116 19.5 34.6667 18.0449 34.6667 16.25C34.6667 14.4551 33.2116 13 31.4167 13C29.6217 13 28.1667 14.4551 28.1667 16.25C28.1667 18.0449 29.6217 19.5 31.4167 19.5Z" fill="#54B8CB"/>
<path d="M37.9167 28.1667C39.7116 28.1667 41.1667 26.7116 41.1667 24.9167C41.1667 23.1218 39.7116 21.6667 37.9167 21.6667C36.1217 21.6667 34.6667 23.1218 34.6667 24.9167C34.6667 26.7116 36.1217 28.1667 37.9167 28.1667Z" fill="#54B8CB"/>
</svg>
