<svg width="1080" height="410" viewBox="0 0 1080 410" fill="none" xmlns="http://www.w3.org/2000/svg">
<g clip-path="url(#clip0)">
<path d="M264.481 40.8554C262.876 43.8912 260.68 47.0868 257.668 49.0853C256.309 49.9868 252.569 52.466 251.347 52.7202C247.8 53.4569 240.045 51.807 236.62 50.494C227.987 47.1836 229.725 32.3744 235.067 26.7743C239.562 22.0621 242.121 18.7443 248.216 16.0485C252.43 14.1845 255.769 12.4377 260.382 15.3322C263.059 17.0117 262.655 17.2388 264.687 20.7065C265.049 21.3235 267.067 22.8735 267.213 23.3461C267.436 24.0668 266.253 25.1632 266.4 25.8864C267.191 29.7983 267.501 32.1949 266.897 35.8137C266.867 35.9902 266.471 38.0628 266.454 38.0992C265.927 39.1857 265.106 39.6707 264.481 40.8554Z" fill="#54B8CB"/>
<path d="M7.37268 366.426C8.08401 363.142 8.94835 360.403 9.70965 357.057C10.4432 353.834 10.2754 350.32 11.6018 347.793C13.1386 344.864 15.1097 342.187 17.2098 339.552C18.2031 338.305 18.8632 337.939 19.7448 336.447C21.2773 333.855 20.6412 332.964 21.6111 330.336C22.017 329.237 25.1048 326.585 25.148 325.99C25.2387 324.742 23.4717 323.318 23.0627 322.29C21.5975 318.604 20.8818 316.85 18.8132 313.619C17.1839 311.073 16.1456 308.02 14.9648 305.316C13.4354 301.814 10.5098 298.194 13.125 294.356C16.356 289.615 25.8266 291.122 30.5283 290.918C32.5648 290.83 34.5174 290.449 36.6922 290.166C37.1351 290.109 40.516 290.195 40.7769 290.074C44.341 288.409 44.6815 282.703 43.3502 279.36C40.8127 272.988 18.1352 253.941 30.4382 247.695C34.1115 245.83 38.9403 247.275 42.6129 247.565C44.7981 247.738 47.0802 247.958 49.2309 247.823C51.7289 247.667 53.3533 246.903 55.7396 246.54C59.7318 245.932 62.6573 246.735 62.4118 240.528C62.2391 236.163 59.1963 233.989 56.8846 230.763C52.41 224.517 46.7218 219.883 48.8952 212.022C51.4543 202.765 64.3897 206.488 70.5967 204.061C72.5617 203.293 74.3848 202.959 75.8759 200.992C75.821 201.065 77.4806 196.45 77.4867 197.198C77.4756 195.879 76.3065 194.309 75.441 192.697C75.1849 192.22 75.7661 191.323 75.5131 190.813C75.0714 189.922 73.7968 189.724 73.36 188.904C72.3211 186.954 72.3106 185.92 70.6856 183.972C69.1988 182.188 67.7132 180.224 66.5934 178.654C64.4952 175.71 60.0656 170.506 63.4051 166.027C65.5354 163.17 71.6628 161.707 74.9412 161.186C77.1369 160.836 80.9916 160.596 83.0386 159.752C87.607 157.868 89.1512 156.405 89.9446 151.926C90.5542 148.485 89.9903 148.897 89.5775 146.498C89.5054 146.079 88.3122 141.524 87.9914 140.874C87.3448 139.563 84.9357 138.622 83.9584 136.63C83.0047 134.686 83.2194 132.936 82.6437 131.039C81.1094 125.985 80.4555 124.567 83.5679 120.165C83.8616 119.749 83.2878 118.549 83.6444 118.143C84.1793 117.535 85.2997 117.77 85.8333 117.245C86.1696 116.915 88.6194 115.217 89.0285 115.045C92.7449 113.482 96.0764 113.713 99.7688 111.294C101.923 109.883 105.237 108.11 106.3 105.39C106.891 103.879 106.218 101.8 106.371 100.269C106.489 99.0753 107.033 96.8423 106.888 95.7551C106.712 94.4267 105.093 93.5567 104.625 92.3825C104.099 91.0608 103.985 89.0487 103.385 87.5351C102.237 84.6345 101.172 81.5808 100.924 78.6697C100.609 74.983 101.291 73.955 104.318 71.2148C107.827 68.0396 109.615 67.7545 113.898 67.0869C122.658 65.7214 128.064 61.7941 131.414 53.3371C134.78 44.8425 130.104 37.4642 132.414 29.1892C135.062 19.7012 141.227 21.3512 148.325 23.8588C149.626 24.3184 152.3 24.664 153.451 25.7419C155.952 28.0817 155.001 26.4077 155.002 29.7452C155.003 30.4079 153.711 31.9973 153.562 32.8939C153.201 35.075 152.974 37.8813 152.69 40.0661C151.695 47.7129 150.499 54.7489 148.977 62.5518C148.271 66.1706 147.573 68.9608 146.76 72.31C146.349 74.0037 146.448 75.4883 146.22 77.3178C145.959 79.4089 144.604 80.8163 144.167 82.5557C143.423 85.5224 144.226 89.4979 142.984 92.5639C141.571 96.0544 139.985 99.7411 138.893 103.557C137.73 107.623 137.52 110.627 136.221 114.33C135.523 116.321 135.893 118.636 135.299 120.419C134.483 122.868 133.291 124.686 132.485 127.122C131.447 130.259 130.57 134.563 129.796 137.923C128.777 142.345 126.347 145.237 124.992 149.219C123.718 152.966 123.732 156.359 122.362 160.074C121.975 161.125 121.993 162.317 121.591 163.344C121.364 163.924 119.681 164.331 119.505 164.959C119.108 166.371 119.9 168.186 119.505 169.698C119.366 170.231 117.616 170.864 117.403 171.293C117.173 171.757 117.733 172.651 117.478 173.1C116.687 174.486 116.176 176.198 115.406 177.662C114.201 179.951 114.374 181.615 113.825 183.609C113.237 185.744 111.945 186.805 111.012 188.475C109.442 191.282 108.514 196.133 107.054 199.479C106.284 201.241 105.503 202.705 104.754 204.55C104.157 206.017 104.206 207.729 103.691 208.944C101.985 212.959 98.7601 216.954 97.1548 220.653C95.5742 224.296 94.7463 227.425 93.1515 231.078C91.735 234.324 89.9125 236.619 88.4344 239.95C86.9333 243.331 85.0486 246.368 83.6068 249.407C80.4974 255.964 76.1838 262.009 73.1293 268.514C65.6649 284.411 53.5926 299.155 47.1215 312.9C45.7297 315.857 42.7919 319.186 41.0206 322.271C38.617 326.459 34.8518 331.246 31.9201 335.023C31.2353 335.905 29.7392 336.796 28.9551 337.71C27.4541 339.457 26.7785 342.287 25.3583 344.069C24.5687 345.061 22.6919 347.066 21.9473 347.801C20.9966 348.74 19.4956 350.154 18.8465 351.06C18.5171 351.521 19.2389 352.751 18.9008 353.203C18.0414 354.352 16.496 355.183 15.4453 356.183C14.383 357.195 13.1127 358.966 12.2348 360.052C10.6542 362.008 8.97858 364.423 7.37268 366.426Z" fill="#163847"/>
<path d="M231.379 377.104C230.383 371.258 229.972 365.762 229.094 359.728C228.707 357.071 228.128 354.539 227.623 352.075C227.095 349.502 226.391 347.43 225.977 344.439C225.803 343.177 226.082 342.197 226.027 341.063C225.958 339.64 224.884 339.072 224.786 337.857C224.742 337.303 226.326 336.015 226.198 335.426C225.84 333.773 224.801 333.116 224.512 331.154C224.203 329.055 224.85 328.779 224.736 327.2C224.673 326.328 223.555 325.356 223.537 324.541C223.466 321.401 223.387 318.894 222.813 315.66C220.893 304.848 221.286 295.429 219.58 284.654C219.125 281.784 218.819 278.887 219.106 275.756C219.171 275.045 218.946 273.039 218.946 272.419C218.949 271.116 219.226 269.6 219.063 267.943C218.45 261.731 217.404 255.678 217.337 249.065C217.222 237.787 216.5 228.125 216.326 216.988C216.259 212.686 215.713 206.638 215.779 201.547C215.805 199.543 216.506 198.141 216.882 196.03C217.253 193.947 216.469 192.342 216.333 190.515C216.246 189.344 217.12 188.199 217.032 187.209C216.736 186.838 216.44 186.468 216.143 186.097C214.975 185.374 214.958 184.638 216.093 183.89C216.171 184.588 216.345 181.643 216.344 181.683C216.398 179.598 216.005 177.577 216.052 175.609C216.101 173.578 216.746 170.809 216.718 168.451C216.694 166.303 217.059 164.428 217.131 162.397C217.218 159.906 216.187 156.657 216.109 154.093C216.026 151.299 217.344 148.657 217.471 146.418C217.601 144.134 216.828 141.203 217.073 138.675C217.374 135.567 219.033 133.31 218.839 129.949C218.775 128.83 217.556 128.305 217.59 127.115C217.616 126.191 217.928 124.092 218.018 123.283C218.091 122.63 218.709 118.279 218.844 118.099C222.011 113.867 231.74 116.798 236.583 116.028C247.991 114.214 259.274 113.549 270.158 112.798C274.323 112.511 278.389 111.658 282.649 110.84C283.336 110.708 284.27 111.771 284.957 111.634C287.146 111.196 289.119 110.152 291.376 109.798C292.261 109.659 293.272 110.391 294.207 110.265C296.121 110.007 297.96 108.674 300.073 108.535C306.109 108.135 311.528 106.815 317.453 106.024C319.86 105.702 322.655 106.013 325.141 105.499C327.874 104.933 330.133 104.225 332.665 103.88C338.093 103.139 343.233 103.019 347.939 102.156C354.553 100.941 361.398 98.6639 368.33 97.8778C373.442 97.2978 378.275 97.6063 383.581 96.0668C385.782 95.4282 386.609 94.9099 388.927 94.7852C393.231 94.5532 393.107 94.9148 396.336 91.5841C399.49 88.3324 401.052 85.0967 403.433 81.1465C404.667 79.0998 405.775 76.5102 406.288 74.1279C406.991 70.87 408.529 69.1701 409.386 66.0004C409.675 64.9354 408.89 62.9622 409.203 61.5122C409.353 60.8143 410.726 60.3355 410.899 59.6481C411.459 57.4225 411.406 53.207 411.024 50.9296C410.308 46.653 410.166 48.8903 406.633 49.0217C404.789 49.0902 402.501 48.0882 400.633 48.2023C389.303 48.8971 378.664 47.2552 367.786 47.0386C362.228 46.9282 356.36 46.1538 350.279 45.7965C343.633 45.406 336.837 46.5937 330.268 45.9656C329.245 45.8675 327.941 45.1555 326.975 45.0407C326.493 44.9833 325.155 44.8778 324.755 44.8488C323.938 44.7902 322.114 45.3782 321.378 45.2665C320.919 45.1968 319.77 43.877 319.232 43.914C316.402 44.1084 314.073 44.6544 311.382 44.4409C308.992 44.2515 306.973 43.4969 304.758 43.3266C293.21 42.4393 280.685 41.8778 269.205 40.6444C264.811 40.1724 260.16 40.1144 255.855 39.8311C250.709 39.4924 245.658 38.7168 240.319 38.4755C239.311 38.4299 238.415 37.7518 237.594 37.7345C237.086 37.724 235.227 38.4237 234.739 38.3207C232.521 37.8511 230.171 37.7795 228.118 37.3871C225.557 36.8978 223.93 36.4313 221.531 36.1469C218.458 35.7828 215.675 36.5547 212.562 36.2123C211.742 36.1222 210.372 34.7752 209.377 34.5815C208.537 34.418 207.401 35.3614 206.511 35.1887C205.33 34.9604 203.916 34.1323 202.727 33.9528C201.729 33.8016 200.69 34.339 199.9 34.1922C194.672 33.2197 189.416 31.7438 183.957 31.6229C177.141 31.4723 172.971 30.4986 166.324 29.2387C165.688 29.1184 164.067 29.8205 163.456 29.7712C162.848 29.7218 161.473 28.9635 160.775 28.8401C160.669 28.8216 158.113 28.241 158.054 28.2477C153.803 28.7173 156.477 27.9812 154.357 30.4919C153.686 31.286 152.628 34.8845 152.27 35.6607C151.359 37.6327 150.527 40.529 149.32 42.886C146.757 47.8876 144.991 51.9359 143.48 57.3645C143.437 57.52 141.585 59.9332 141.471 60.1461C141.435 60.2127 140.913 61.8947 140.753 62.2643C139.346 65.5043 137.367 69.0362 136.163 72.4341C134.299 77.6986 132.489 83.6825 129.697 89.0778C128.538 91.3176 127.181 93.6086 125.982 95.9921C124.64 98.6632 124.708 102.24 123.7 104.711C122.738 107.072 121.603 108.492 120.624 110.68C119.89 112.32 119.437 114.224 118.707 115.922C118.307 116.988 118.055 118.09 117.952 119.23C117.168 119.712 116.384 120.194 115.6 120.677C115.15 121.838 116.271 122.904 115.643 124.312C115.143 125.43 114.151 126.058 113.606 127.096C112.052 130.061 112.397 132.83 111.271 135.787C110.354 138.197 108.415 139.308 107.184 141.357C106.166 143.053 106.064 145.881 105.377 147.851C104.156 151.355 103.015 154.905 101.83 158.459C101.208 160.322 99.7773 161.961 99.0709 163.369C98.8383 163.832 98.2652 165.514 97.9907 165.944C96.2774 168.62 95.2805 171.556 94.2064 174.66C93.4759 176.771 93.4487 178.748 92.5739 180.629C90.2172 185.7 89.0858 190.075 86.6569 195.724C86.547 195.979 85.3372 198.294 85.175 198.745C84.8282 199.712 84.7727 200.912 84.3865 202.038C82.9126 206.338 81.1741 210.335 79.1851 214.404C77.0159 218.841 75.8203 223.8 73.8911 227.931C71.6424 232.747 68.9716 238.079 67.6711 243.493C67.2257 245.348 66.4977 247.221 65.948 248.813C65.5562 249.948 64.4229 251.855 64.0509 252.87C63.8671 253.373 63.7628 255.402 63.5253 256.256C62.7171 259.158 60.4264 262.081 59.2999 264.806C58.8254 265.953 59.3412 267.509 58.8168 268.805C58.2474 270.213 56.6501 271.337 56.0332 273.128C55.774 273.88 56.143 275.127 55.8777 276.055C55.5415 277.234 54.4587 279.147 54.0491 280.14C53.0274 282.621 51.7812 284.542 50.4998 287.158C48.2554 291.74 46.8802 297.246 45.5026 301.977C44.2169 306.393 42.4568 309.322 41.2414 313.496C40.564 315.822 39.4368 318.489 38.7915 320.919C38.2684 322.889 36.0418 324.974 35.5803 326.871C35.2219 328.344 36.1257 328.851 35.4983 330.405C35.1318 331.313 33.8838 332.563 33.5272 333.248C32.231 335.743 32.0187 338.721 31.3346 340.757C31.0514 341.6 29.981 344.041 29.6201 344.877C29.7311 344.619 28.3911 347.806 28.3887 347.391C28.3918 347.889 27.1363 349.475 27.6082 350.361C28.4121 351.871 34.1601 351.195 35.5532 351.411C38.8014 351.912 41.7109 351.351 44.4254 351.748C47.6526 352.219 50.4418 354.074 54.1188 354.29C60.5973 354.671 64.9122 355.48 71.622 356.776C76.3959 357.7 80.6799 356.2 84.9245 357.329C88.1622 358.191 90.5683 358.5 93.6807 358.537C97.5792 358.584 100.156 360.228 103.409 360.816C105.657 361.223 108.745 361.431 111.091 361.727C112.567 361.914 114.438 361.226 115.591 361.418C116.325 361.539 116.907 362.631 117.643 362.75C119.425 363.037 121.749 362.868 123.173 363.071C123.837 363.166 125.219 363.735 125.865 363.779C129.028 363.998 133.168 364.787 136.303 364.916C141.302 365.122 146.458 366.276 151.663 366.762C153.894 366.97 156.678 366.608 159.454 366.847C161.72 367.042 163.852 368.465 165.882 368.797C177.585 370.708 188.498 371.788 199.872 373.031C205.396 373.635 210.96 373.73 216.273 375.427C221.286 377.025 226.328 376.431 231.379 377.104Z" fill="#54B8CB"/>
<path d="M203.573 28.4846C203.5 29.9778 202.015 32.8137 201.643 33.8886C201.215 35.122 200.753 36.5714 200.224 38.043C198.802 41.9907 197.055 44.863 194.43 47.4588C192.752 49.118 189.868 51.6323 187.369 52.8682C185.592 53.7469 184.229 53.3304 181.969 54.0708C180.486 54.5564 179.412 56.223 177.996 56.6228C178.174 56.5729 173.629 56.4001 173.463 56.3865C171.286 56.2033 169.837 55.3851 168.216 54.802C167.109 54.4034 164.312 53.2391 163.082 52.6511C163.064 52.6424 159.595 49.9818 159.55 49.9324C159.394 49.0964 159.265 48.2566 159.162 47.4125C158.458 47.0114 157.772 46.5814 157.105 46.1223C156.546 45.1659 155.238 43.0563 154.976 42.0419C154.138 38.7933 154.555 32.7125 154.947 29.5453C155.834 22.3718 160.098 14.7503 165.248 9.44881C165.401 8.61336 165.57 7.78099 165.755 6.95171C166.572 6.73205 167.395 6.53583 168.223 6.36307C169.735 4.60269 168.261 4.46016 170.957 2.76211C172.106 2.03896 175.103 0.867842 176.153 0.680883C177.561 0.430371 178.363 0.809841 179.98 0.718522C181.985 0.604989 183.573 -0.424826 185.981 0.199603C186.528 0.843778 187.045 1.51078 187.532 2.20185C188.348 2.13459 189.166 2.10621 189.986 2.11608C192.386 3.89126 196.118 7.23924 197.928 9.66415C199.816 12.194 201.239 15.7548 201.809 18.7338C202.269 21.1408 203.707 25.7741 203.573 28.4846Z" fill="#54B8CB"/>
<path d="M257.45 33.9539C257.643 43.9355 241.694 42.8471 244.045 33.3801C244.524 31.4519 248.299 28.4414 249.624 28.0348C254.204 26.6292 257.366 29.5589 257.45 33.9539Z" fill="#163847"/>
<path d="M386.285 49.2457C386.228 54.3886 386.415 55.9404 390.293 59.5068C392.119 61.1851 394.119 62.8998 397.163 63.4162C406.885 65.0662 411.743 54.4935 411.155 46.5264C410.62 39.2715 405.072 34.1131 397.165 35.3811C396.339 35.1213 395.5 34.9183 394.646 34.7709C394.153 35.4761 393.699 36.2048 393.284 36.9582C391.934 37.7641 391.419 37.2254 390.353 38.4212C388.753 40.2155 387.874 42.9884 387.126 45.2078C386.3 47.6587 386.315 46.5826 386.285 49.2457Z" fill="#54B8CB"/>
<path d="M191.838 26.8206C191.893 29.662 189.168 32.3615 187.986 34.2342C186.009 37.3631 185.519 37.5167 182.265 38.3127C176.959 39.6103 171.59 36.4301 170.212 30.9769C169.564 28.415 171.286 25.1244 172.281 22.6069C173.188 20.3091 175.098 17.7861 177.865 16.5138C184.402 13.5077 191.71 20.1987 191.838 26.8206Z" fill="#163847"/>
<path d="M196.908 159.802C199.099 159.849 200.955 159.583 202.526 159.392C203.376 159.289 205.807 159.506 207.015 159.596C211.543 159.933 215.177 159.985 219.366 160.041C225.789 160.127 233.537 160.712 240.621 161.943C247.557 163.148 253.99 163.98 261.697 165.019C262.767 165.163 263.951 164.37 265.165 164.519C267.572 164.815 270.423 165.55 272.898 165.889C276.647 166.403 276.373 166.255 277.705 169.085C278.951 171.733 278.164 170.871 278.245 173.513C278.396 178.483 282.107 192.959 273.368 191.615C269.734 191.056 265.963 189.117 262.276 188.634C261.476 188.953 260.676 189.273 259.876 189.595C259.166 189.144 258.454 188.698 257.739 188.254C255.349 188.418 253.389 189.531 250.806 189.194C250.103 188.587 249.394 187.99 248.676 187.402C247.161 187.816 245.637 187.849 244.107 187.504C243.252 187.506 241.407 187.852 240.68 187.889C236.42 188.109 231.071 188.083 226.531 187.745C217.279 187.056 206.971 185.971 198.425 185.965" fill="#54B8CB"/>
<path d="M175.503 181.419C176.633 181.858 177.183 182.74 178.38 183.173C179.436 183.555 180.864 182.929 181.949 183.172C183.473 183.513 185.649 184.673 187.021 185.381C188.057 185.915 188.675 187.615 189.548 187.95C190.32 188.246 193.389 187.996 194.233 188.216C194.187 188.204 197.041 190.027 197.066 190.039C199.242 191.07 201.561 192.55 203.932 193.671C206.551 194.91 208.972 195.606 211.118 196.583C211.729 196.86 213.001 197.888 213.487 198.044C213.997 198.207 215.763 198.064 216.384 198.374C219.94 200.145 223.805 202.279 227.27 203.852C229.675 204.944 232.947 205.961 235.38 207.459C239.882 210.232 242.63 212.362 247.083 214.602C250.126 216.132 253.13 218.204 256.012 219.541C258.991 220.923 260.751 221.467 262.956 223.609C263.56 224.196 264.759 223.529 265.341 224.555C266.575 226.733 264.754 224.682 264.778 226.748C264.805 229.121 264.633 230.611 263.127 232.513C261.641 234.389 259.402 236.706 257.944 238.826C256.389 241.087 255.307 243.705 252.962 245.792C252.336 245.042 251.708 244.293 251.078 243.545C250.229 243.626 249.38 243.707 248.53 243.788C247.593 243.29 245.739 241.86 244.86 241.34C242.995 240.237 241.341 238.639 239.201 237.96C238.104 237.611 235.589 237.49 234.797 237.082C232.176 235.733 230.413 234.227 228.094 233.255C225.394 232.123 222.13 230.023 219.128 229.045C217.557 228.533 215.777 229.136 214.529 228.685C212.608 227.991 210.96 225.994 208.803 225.263C204.908 223.943 200.579 222.847 197.345 221.39C191.055 218.557 184.53 216.056 177.874 213.894" fill="#54B8CB"/>
<path d="M15.6095 286.117C16.8446 285.088 17.422 284.444 18.5893 283.286C19.2278 282.653 20.8226 280.75 21.3421 280.392C22.3446 279.703 24.4663 278.81 25.8932 278.021C28.1149 276.793 29.7294 274.61 31.5074 273.274C33.6136 271.692 36.3769 270.281 38.9243 269.216C41.9608 267.948 45.4873 265.557 49.6072 266.503C56.802 268.154 53.1577 279.013 53.4452 284.67C53.6741 289.173 51.3821 291.674 52.6654 295.981C53.2725 298.019 51.8337 299.085 54.5409 300.263C56.219 300.993 59.7491 299.455 61.2625 298.705C67.9933 295.363 73.0547 287.23 80.5832 284.543C90.6183 280.962 92.1385 289.515 92.4877 296.212C92.669 299.684 93.2465 304.217 93.8141 308.122C94.4292 312.35 93.5396 314.6 97.7934 316.436C102.007 318.254 103.156 315.946 106.646 313.748C107.783 313.031 109.113 312.767 110.163 312.095C112.177 310.806 113.538 308.097 114.999 306.879C118.162 304.239 130.893 292.384 134.766 299.691C136.267 302.523 136.292 308.481 136.844 311.213C137.75 315.692 137.674 321.052 137.973 325.489C138.226 329.231 138.859 331.807 143.814 331.829C150.538 331.858 151.756 326.552 156.323 323.066C157.627 322.069 160.06 320.688 161.214 319.902C163.118 318.606 164.35 317.695 167.202 316.819C172.049 315.331 173.402 315.577 176.723 319.962C179.606 323.768 178.79 326.384 179.595 330.871C180.041 333.356 182.555 337.662 183.807 339.689C185.126 341.827 187.411 344.548 190.194 343.98C190.909 343.834 193.749 342.009 194.736 341.549C196.864 340.557 197.237 339.876 198.79 338.695C200.077 337.717 202.042 336.235 203.36 335.401C203.777 335.137 203.597 333.9 203.966 333.559C204.548 333.02 206.014 333.689 206.609 333.2C206.879 332.978 207.013 330.84 207.419 330.64C208.023 330.344 209.444 330.634 209.893 330.237C211.3 328.992 213.432 327.829 214.643 327.642C217.266 327.236 220.347 328.867 222.04 331.325C222.705 332.291 223.558 334.699 223.96 335.806C224.128 336.268 223.948 337.083 224.109 337.442C224.466 338.236 225.775 339.431 226.133 340.296C227.618 343.875 226.865 350.288 230.86 352.333C234.911 354.405 240.317 353.713 244.054 351.451C244.699 351.061 244.599 349.463 245.238 349.077C245.776 348.751 247.25 349.234 247.776 348.826C250.307 346.865 252.133 344.633 255.124 343.394C258.564 341.97 262.517 342.487 265.979 344.256C270.136 346.38 270.628 348.15 271.748 351.576C272.689 354.453 276.28 361.377 278.689 363.306C281.002 365.159 286.543 365.961 289.625 366.016C293.873 366.092 297.11 362.877 300.769 361.426C308.011 358.557 315.19 357.218 320.519 365.063C321.714 366.823 322.238 369.673 322.816 371.805C322.973 372.386 321.792 373.703 322.019 374.306C322.278 375 323.734 375.237 323.934 375.938C324.957 379.515 326.884 382.155 329.66 384.898C331.472 386.689 333.429 386.626 335.454 387.128C336.14 387.298 336.95 388.185 337.594 388.242C338.316 388.306 339.24 387.541 339.896 387.631C341.278 387.821 342.436 388.138 343.846 388.084C346.433 387.986 349.994 386.969 352.806 386.542C356.042 386.051 362.355 384.624 365.511 386.571C369.826 389.234 367.638 393.647 367.37 396.84C367.098 400.077 367.044 404.393 364.329 407.345C361.249 410.693 358.094 408.814 354.661 407.928C351.786 407.187 347.369 407.465 345.211 407.578C342.18 407.736 337.953 406.038 334.233 405.731C332.261 405.567 330.811 405.986 328.62 405.832C327.087 405.724 326.067 405.125 324.808 404.979C321.61 404.607 318.078 404.184 314.359 403.428C312.276 403.005 308.931 403.362 307.127 402.908C305.979 402.619 304.733 401.729 303.426 401.41C301.919 401.041 300.314 401.249 298.976 401.076C297.448 400.879 295.103 400.599 293.455 400.359C277.142 397.985 261.549 394.021 245.779 389.692C245.09 389.502 244.024 390.505 243.333 390.303C242.619 390.094 242.113 389.094 241.395 388.894C239.603 388.394 237.946 387.792 236.053 387.344C232.477 386.495 229.752 385.881 226.255 385.229C223.496 384.715 222.734 383.987 220.524 383.017C218.713 382.222 216.389 382.362 214.493 381.865C210.929 380.93 206.696 379.934 202.706 378.572C185.505 372.703 168.233 366.673 153.087 360.29C150.935 359.384 148.301 359.114 146.065 358.285C145.334 358.014 145.158 356.647 144.464 356.309C143.815 355.994 142.552 356.952 141.903 356.634C140.24 355.819 139.057 354.413 137.122 353.59C136.397 353.282 134.939 353.225 134.377 352.894C133.776 352.541 132.867 350.932 132.299 350.675C128.598 348.999 125.343 348.853 122.179 347.307C117.999 345.263 114.487 342.875 110.341 340.956C104.391 338.2 97.4226 334.78 90.7368 331.419C83.6475 327.856 76.7834 322.841 69.3758 319.284C65.9173 317.623 63.4236 317.34 60.0421 315.353C56.5854 313.321 54.6501 311.16 51.8479 309.436C44.9117 305.168 38.4801 301.946 31.1268 297.287C28.4054 295.563 25.7082 293.448 23.3527 291.835C21.9714 290.889 20.5 289.614 18.841 288.548C17.5504 287.715 16.7341 286.892 15.6095 286.117Z" fill="#163847"/>
<path d="M15.0763 286.083C1.06253 310.064 -4.01119 346.362 3.3958 375.416C5.21639 382.557 8.44854 390.326 11.3926 396.576C15.4323 405.153 24.7857 408.961 33.3736 409.763C38.1289 410.208 44.0923 409.469 48.9001 409.053C51.3117 408.845 53.901 408.98 56.1072 408.907C56.6828 408.888 57.8383 409.573 58.3257 409.614C58.9137 409.663 60.2382 408.754 61.097 408.758C65.6994 408.779 70.8484 408.795 75.5248 409.074C78.1517 409.23 80.6392 410.211 83.292 409.928C85.8912 409.651 87.035 408.553 89.9501 408.704C92.2618 408.824 94.3624 409.339 96.6062 409.312C99.0623 409.282 101.882 408.366 104.375 408.628C105.487 408.744 106.548 409.787 107.703 409.744C109.849 409.663 111.476 408.716 113.807 408.688C114.617 408.678 116.669 409.055 117.691 409.158C120.263 409.418 122.821 409.892 125.452 409.752C129.716 409.526 133.114 408.91 136.53 409.081C139.994 409.254 143.608 408.241 147.615 408.713C151.734 409.198 154.911 409.834 158.704 409.289C161.622 408.869 165.392 408.605 168.684 408.834C171.014 408.996 172.344 409.178 174.228 409.113C175.729 409.061 178.037 408.175 179.774 408.332C183.415 408.66 187.16 409.909 190.874 410.039C191.573 410.064 192.408 408.76 193.095 408.745C193.606 408.734 194.259 409.613 194.76 409.533C196.302 409.288 199.069 408.449 200.869 408.468C207.047 408.537 213.461 409.717 219.206 409.585C223.09 409.496 227.491 408.123 231.427 408.491C233.418 408.677 235.402 409.612 237.532 409.741C240.629 409.926 242.196 408.731 244.747 408.509C246.241 408.379 248.312 409.341 249.743 409.435C251.51 409.55 253.051 409.013 254.736 408.977C259.076 408.882 263.587 409.733 267.499 409.285C271.197 408.861 274.819 409.414 278.596 409.091C281.63 408.831 284.429 409.124 287.477 409.167C290.097 409.204 291.931 408.624 294.139 408.678C302.482 408.88 310.105 409.293 318.006 409.37C318.559 409.376 319.118 408.197 319.668 408.201C320.586 408.207 321.896 409.518 322.999 409.651C325.336 409.933 328.09 408.792 330.218 408.795C333.163 408.798 336.48 408.93 339.644 409.112C340.171 409.142 340.791 408.367 341.311 408.431C342.161 408.537 343.216 409.633 344.08 409.68C346.012 409.786 348.592 409.288 350.738 409.224C355.26 409.088 358.834 409.105 363.939 409.105C343.704 397.703 319.799 386.03 297.965 377.356C295.879 376.527 292.591 375.494 290.005 374.813C289.272 374.62 286.338 374.257 285.57 373.914C284.335 373.363 282.796 371.365 281.85 371.03C279.68 370.259 276.313 369.848 274.194 369.195C271.501 368.365 268.746 367.372 265.793 366.118C260.725 363.964 255.528 363.614 250.679 362.092C244.595 360.181 236.853 359.093 230.217 356.354C227.251 355.13 225.101 355.566 222.429 355.327C219.258 355.043 214.537 353.947 211.482 353.113C208.32 352.249 205.942 351.204 202.836 350.823C198.766 350.323 194.992 349.019 190.879 348.039C187.771 347.298 183.864 347.47 180.888 346.796C177.373 346.001 174.87 345.194 171.188 344.104C163.996 341.975 156.71 341.652 149.37 339.365C145.05 338.018 140.367 338.016 136.216 336.611C134.402 335.997 132.103 333.494 130.231 333.226C128.102 332.922 128.162 334.334 125.511 333.483C124.182 333.057 123.142 331.182 121.731 330.629C121.676 330.608 117.161 330.258 117.182 330.261C116.709 330.19 115.667 328.913 115.332 328.747C115.124 328.643 112.251 328.323 111.99 328.247C111.821 328.198 108.609 327.916 108.578 327.898C102.951 324.837 98.81 323.163 91.986 321.369C90.0198 320.851 87.8784 318.476 86.1041 318.048C85.6518 318.189 85.2002 318.33 84.748 318.471C83.5209 319.225 82.4265 318.963 81.4647 317.687C78.5243 317.002 77.8432 315.728 75.584 314.406C73.7461 313.331 72.1507 313.279 70.3085 312.607C69.1518 312.609 68.0203 312.427 66.9129 312.061C66.4095 311.355 65.9054 310.649 65.4014 309.944C63.4988 309.012 61.1957 308.033 59.3066 307.239C58.4405 307.363 57.5737 307.484 56.7062 307.602C56.1923 306.936 55.6778 306.27 55.1633 305.604C51.2574 304.226 48.4306 303.233 44.9986 301.054C42.471 299.449 38.1851 297.168 35.0325 296.099C28.5417 293.899 21.9096 289.793 15.0763 286.083Z" fill="#54B8CB"/>
<path d="M401.089 83.6503C401.863 81.8795 403.681 82.0695 404.011 79.6236C386.607 80.6355 369.783 80.58 353.009 82.0905C344.869 82.8235 336.321 81.6746 328.251 82.4262C325.895 82.6458 323.548 82.2275 321.095 82.0781C320.393 82.0356 319.604 83.2159 318.9 83.1703C318.156 83.1222 317.442 81.8967 316.694 81.8616C314.112 81.7412 311.299 82.196 308.993 82.2145C306.988 82.2306 304.847 81.4506 302.395 81.479C301.171 81.4932 300.551 82.6662 299.638 82.689C299.01 82.705 298.111 82.196 297.441 82.241C296.111 82.3299 293.89 82.2256 292.49 82.2139C287.622 82.1725 282.975 82.2484 278.744 81.753C277.638 81.6234 275.761 82.1991 274.336 82.0541C273.157 81.9338 271.622 81.2822 270.504 81.2168C266.358 80.9731 261.745 80.5047 257.865 80.7651C249.848 81.3038 241.285 81.3945 233.104 80.5646C228.055 80.0525 223.614 80.232 218.576 79.317C213.819 78.4531 208.454 78.6888 203.787 78.5383C201.866 78.4766 200.264 78.8838 198.627 78.8314C197.084 78.782 194.931 77.5344 193.236 77.3918C190.566 77.1666 187.664 78.1613 184.685 78.0601C179.69 77.8898 175.394 74.477 174.39 69.0176C173.854 66.1009 174.377 59.735 169.046 62.6863C166.348 64.1801 167.164 69.4692 167.675 71.3919C168.532 74.6146 170.232 77.0525 173.576 79.2793C175.1 80.2937 175.432 80.8941 177.098 81.6543C178.246 82.1787 180.718 82.4163 181.622 82.5761C183.806 82.9636 185.745 82.5909 188.364 82.7791C189.493 82.8599 190.9 83.9243 192.295 84.0927C194.053 84.305 196.918 83.9996 198.886 83.9669C204.354 83.8755 209.289 84.3383 214.859 84.9171C217.939 85.2367 220.909 84.7992 224.006 84.9757C225.449 85.0578 227.254 85.7161 228.472 85.7223C229.05 85.7254 230.115 84.4191 230.727 84.5012C231.548 84.611 233.102 85.262 234.006 85.3422C236.175 85.5353 238.437 85.7285 240.617 85.6785C242.505 85.6353 244.376 85.9926 246.125 86.0203C248.849 86.0635 251.06 85.3848 253.872 85.1892C256.166 85.0294 258.404 85.9475 260.469 86.0956C262.044 86.2085 263.299 86.0407 264.88 86.2042C270.008 86.7348 275.185 86.1678 280.32 86.4775C285.806 86.8089 290.432 86.783 295.76 86.9113C302.344 87.0699 309.034 85.6674 315.61 85.8821C316.779 85.9204 317.457 86.9687 318.376 87.0063C319.332 87.0458 320.288 85.6069 321.12 85.6742C323.781 85.8907 326.033 86.4195 328.848 86.3844C335.136 86.3066 341.231 86.6787 347.032 85.5816C350.155 84.9911 353.251 86.2838 356.507 86.2863C359.053 86.2881 361.789 85.0115 364.472 85.1232C366.311 85.1997 368.383 86.3523 370.226 86.2437C371.009 86.1974 371.659 84.5814 372.451 84.5685C374.244 84.5395 374.987 85.3009 376.486 85.4662C381.694 86.0407 387.854 84.3056 393.38 84.2205C395.16 84.1933 396.731 84.1606 398.379 84.0915C398.593 84.0822 400.628 83.7355 400.677 83.7268C402.691 83.369 400.878 84.1328 401.089 83.6503Z" fill="#163847"/>
<path d="M101.943 350.517C102.837 352.999 104.343 356.07 104.865 359.324C105.131 360.975 102.824 361.817 100.992 361.977C98.9569 362.138 96.9377 361.883 95.8796 359.921C94.4897 357.342 96.2708 351.564 98.7139 349.972C99.6288 349.371 100.481 349.149 101.943 350.517Z" fill="#F2BB1C"/>
<path d="M151.694 366.825C151.077 367.898 149.706 368.269 148.633 367.652C148.569 367.615 148.506 367.575 148.445 367.532C145.374 365.728 144.098 357.949 146.35 355.214C147.669 353.608 151.083 353.786 152.241 355.513C154.094 358.267 153.8 364.394 151.694 366.825Z" fill="#F2BB1C"/>
<path d="M267.329 393.809C267.51 394.996 267.257 396.028 265.947 396.289C263.876 396.708 254.237 391.944 253.08 390.003C251.457 387.329 251.851 386.321 254.859 385.492C261.26 383.738 266.446 387.17 267.329 393.809Z" fill="#F2BB1C"/>
<path d="M30.3604 364.336C27.0999 364.475 23.8548 363.818 20.9052 362.422C19.1987 361.573 18.6533 360.308 20.0205 358.8C23.1576 355.289 28.5466 354.986 32.057 358.123C32.405 358.434 32.727 358.774 33.0194 359.137C34.175 360.544 33.9991 361.963 33.6573 363.434C33.3156 364.906 32.0915 364.589 30.3604 364.336Z" fill="#F2BB1C"/>
<path d="M47.776 393.912C46.9956 393.868 46.2133 393.866 45.4329 393.908C42.7387 394.358 39.6663 394.561 39.3184 391.193C38.9803 388.204 42.5752 387.784 44.5562 386.452C45.8431 385.579 47.5601 386.23 48.9371 386.677C50.8212 387.29 53.9115 386.606 54.091 389.475C54.3094 392.923 50.9934 393.01 48.641 393.8C48.0487 393.993 47.3719 393.958 47.776 393.912Z" fill="#F2BB1C"/>
<path d="M185.709 379.467C183.706 378.559 180.036 380.882 179.069 377.823C178.228 375.166 181.642 373.611 183.43 371.924C185.875 369.615 192.488 371.962 193.068 375.104C193.152 375.983 192.761 376.84 192.042 377.352C190.936 378.361 188.21 379.297 185.709 379.467Z" fill="#F2BB1C"/>
<path d="M68.3134 342.452C68.4201 344.037 67.7519 345.247 65.7056 344.601C62.8226 343.747 60.005 342.685 57.2751 341.424C55.3545 340.486 55.6278 338.528 57.6033 337.559C63.0922 334.858 67.5878 336.798 68.3134 342.452Z" fill="#F2BB1C"/>
<path d="M74.1279 371.127C74.2346 372.712 73.5665 373.923 71.5201 373.277C68.6371 372.422 65.8196 371.36 63.0896 370.099C61.1691 369.161 61.4424 367.204 63.4178 366.234C68.9067 363.534 73.4024 365.474 74.1279 371.127Z" fill="#F2BB1C"/>
<path d="M34.5027 317.619C32.5156 320.993 30.7055 324.418 28.5394 327.613C27.4104 329.298 26.0679 329.101 25.3831 326.895C23.0005 319.251 25.8915 316.225 34.5027 317.619Z" fill="#F2BB1C"/>
<path d="M151.1 391.934C149.919 391.645 148.337 392.128 147.509 390.934C146.245 389.097 148.152 388.274 149.026 387.192C152.7 382.625 155.031 381.939 158.791 384.318C160.318 385.281 161.019 386.515 159.194 387.882C156.794 389.713 154.295 391.48 151.1 391.934Z" fill="#F2BB1C"/>
<path d="M225.043 394.331C221.403 394.122 218.088 392.174 214.659 393.889C213.854 394.297 212.816 393.346 212.977 392.436C213.516 389.63 215.05 387.113 217.296 385.347C218.037 384.792 219.071 384.854 219.741 385.493C221.82 388.056 225.151 389.91 225.043 394.331Z" fill="#F2BB1C"/>
<path d="M127.374 374.067C124.989 377.947 121.048 379.159 117.092 380.306C116.233 380.573 115.297 380.315 114.695 379.647C113.907 378.805 114.515 378.057 114.926 377.311C117.883 371.828 120.508 371.115 127.374 374.067Z" fill="#F2BB1C"/>
<path d="M87.6885 392.85C90.7978 384.518 92.0175 384.043 98.5941 388.566C95.6279 391.456 92.2748 392.733 87.6885 392.85Z" fill="#F2BB1C"/>
<path d="M465.065 335.453L430.889 367.062V408.653H411.32V202.917H430.889V342.385L517.432 262.808H541.686L479.673 322.421L547.474 408.653H523.496L465.065 335.453Z" fill="#163847"/>
<path d="M560.917 262.808H580.486V408.653H560.917V262.808ZM570.839 230.922C566.797 230.922 563.397 229.535 560.641 226.762C557.885 223.99 556.507 220.663 556.507 216.781C556.507 213.084 557.885 209.849 560.641 207.076C563.397 204.303 566.797 202.917 570.839 202.917C574.881 202.917 578.281 204.303 581.037 207.076C583.793 209.664 585.171 212.806 585.171 216.503C585.171 220.57 583.793 223.99 581.037 226.762C578.281 229.535 574.881 230.922 570.839 230.922Z" fill="#163847"/>
<path d="M753.449 202.917V408.653H734.708V379.817C728.828 389.614 721.019 397.1 711.28 402.276C701.726 407.452 690.885 410.04 678.758 410.04C665.161 410.04 652.85 406.897 641.825 400.612C630.8 394.328 622.164 385.547 615.917 374.271C609.67 362.996 606.546 350.149 606.546 335.731C606.546 321.312 609.67 308.465 615.917 297.19C622.164 285.914 630.8 277.226 641.825 271.126C652.85 264.841 665.161 261.699 678.758 261.699C690.517 261.699 701.082 264.194 710.453 269.185C720.008 273.991 727.817 281.108 733.881 290.535V202.917H753.449ZM680.411 392.571C690.517 392.571 699.612 390.261 707.697 385.64C715.966 380.834 722.397 374.087 726.99 365.399C731.768 356.711 734.156 346.821 734.156 335.731C734.156 324.64 731.768 314.75 726.99 306.062C722.397 297.375 715.966 290.72 707.697 286.099C699.612 281.293 690.517 278.89 680.411 278.89C670.122 278.89 660.843 281.293 652.574 286.099C644.489 290.72 638.058 297.375 633.281 306.062C628.687 314.75 626.391 324.64 626.391 335.731C626.391 346.821 628.687 356.711 633.281 365.399C638.058 374.087 644.489 380.834 652.574 385.64C660.843 390.261 670.122 392.571 680.411 392.571Z" fill="#163847"/>
<path d="M794.167 262.808H813.736V408.653H794.167V262.808ZM804.089 230.922C800.047 230.922 796.648 229.535 793.892 226.762C791.136 223.99 789.757 220.663 789.757 216.781C789.757 213.084 791.136 209.849 793.892 207.076C796.648 204.303 800.047 202.917 804.089 202.917C808.132 202.917 811.531 204.303 814.287 207.076C817.043 209.664 818.421 212.806 818.421 216.503C818.421 220.57 817.043 223.99 814.287 226.762C811.531 229.535 808.132 230.922 804.089 230.922Z" fill="#163847"/>
<path d="M980.636 341.831H859.365C860.468 356.988 866.256 369.281 876.729 378.708C887.203 387.95 900.432 392.571 916.418 392.571C925.421 392.571 933.69 391 941.223 387.858C948.757 384.531 955.28 379.724 960.792 373.44L971.817 386.194C965.386 393.958 957.301 399.873 947.562 403.94C938.008 408.006 927.443 410.04 915.867 410.04C900.983 410.04 887.754 406.897 876.178 400.612C864.786 394.143 855.874 385.27 849.443 373.994C843.012 362.718 839.797 349.964 839.797 335.731C839.797 321.497 842.829 308.743 848.892 297.467C855.139 286.191 863.592 277.411 874.249 271.126C885.09 264.841 897.217 261.699 910.63 261.699C924.043 261.699 936.078 264.841 946.736 271.126C957.393 277.411 965.753 286.191 971.817 297.467C977.88 308.558 980.912 321.312 980.912 335.731L980.636 341.831ZM910.63 278.612C896.665 278.612 884.906 283.141 875.351 292.199C865.98 301.072 860.652 312.717 859.365 327.135H962.17C960.884 312.717 955.463 301.072 945.909 292.199C936.538 283.141 924.778 278.612 910.63 278.612Z" fill="#163847"/>
<path d="M1025.7 291.367C1030.3 281.57 1037.1 274.176 1046.1 269.185C1055.29 264.194 1066.59 261.699 1080 261.699V280.831L1075.31 280.553C1060.06 280.553 1048.12 285.267 1039.48 294.694C1030.85 304.122 1026.53 317.338 1026.53 334.344V408.653H1006.96V262.808H1025.7V291.367Z" fill="#163847"/>
</g>
<defs>
<clipPath id="clip0">
<rect width="1080" height="410" fill="white"/>
</clipPath>
</defs>
</svg>
