<?xml version="1.0" encoding="iso-8859-1" ?>
              <svg
                version="1.1"
                xmlns="http://www.w3.org/2000/svg"
                xmlns:xlink="http://www.w3.org/1999/xlink"
                viewBox="0 0 1188 792"
                width="1188"
                height="792"
              >
                <g transform="translate(478.328 198) scale(2.908 2.894) rotate(0 39.77647867950482 68.41741534208708)"> <g>  <path d="M54.404,0.04c0.66,0.947,1.443,1.801,2.33,2.54c0.15,0.15,0.48,0.18,0.28,0.5   c-0.648,0.845-0.961,1.899-0.88,2.96c0.021,0.068,0.021,0.142,0,0.21c-1.4,0-0.42,1.15-0.78,1.51c-1,1.06-0.6,2.59-1.41,3.75   c-0.61,0.87-0.69,2.1-1.14,3.11c-0.3,0.68-0.81,1.25-0.53,2.07c0,0.08-0.15,0.34-0.24,0.34c-0.78,0.06-1.11,0.31-0.53,1   c-0.83,0.35-0.32,1.15-0.57,1.72c-0.431,0.726-0.745,1.516-0.93,2.34c-0.07,0.62-0.26,1.37-1.22,1.34c-0.39,0-0.41,0.53-0.8,0.71   c-0.2-0.35,0-0.92-0.84-0.94c-1.33,0-2.54-2.67-1.78-3.86c0.66-1,0.64-2.26,1.31-3.29c0.58-0.858,1.028-1.799,1.33-2.79   c0.2-0.69,0-1.45,0.52-2.1c0.729-1.035,1.18-2.24,1.31-3.5c0.143-0.794,0.488-1.537,1-2.16c0.6-0.69,0.44-1.76,1.38-2.3   c0.29-0.17,0.36-1.36,0.18-1.75c-0.51-1.14,0.36-1.12,0.9-1.43h0.23c0,0.26,0.22,0.26,0.36,0.37s0.24,0.07,0.29,0s0-0.2-0.08-0.26   V0.04h-0.09H54.404z" fill="#E86665"/>  <path d="M53.974,0.04h0.09v0.1l-0.21,0.24c-0.13-0.11-0.38-0.11-0.35-0.38L53.974,0.04z" fill="#FFFFFF"/>  <path d="M24.814,82.71c-1.299-0.604-2.459-1.469-3.41-2.54c-1-1.15-1.85-2.38-2.94-3.45   c-0.648-0.752-1.249-1.544-1.8-2.37c-0.77-1-1.46-2.05-2.32-3c-0.791-0.782-1.402-1.727-1.79-2.77c-0.27-0.8-1.09-1.23-1.56-1.94   c-1.127-1.84-2.1-3.77-2.91-5.77c-1.201-2.484-2.233-5.047-3.09-7.67c-0.34-1.645-0.511-3.32-0.51-5   c0.017-1.396,0.295-2.776,0.82-4.07c0.411-1.528,1.372-2.85,2.7-3.71c1.161-0.844,2.388-1.593,3.67-2.24   c1.81-0.76,3.72-1.34,5.67-0.22c1.27,0.73,2.82,0.91,3.92,2c1.102,0.974,2.106,2.052,3,3.22c0.65,1,1.45,1.83,2.05,2.81   s1.05,2,1.66,3c0.07-0.608,0.283-1.19,0.62-1.7c0.06-0.1,0.19-0.24,0.17-0.3c-0.58-1.08,0.53-1.53,0.8-2.28s0.86-1.57,1.21-2.39   c0.93-2.16,2.9-3.33,4.44-4.93c1.35-1.39,3.16-1.77,4.76-2.47s3.63-1.3,5.33-0.41c1.26,0.66,2.91,1.26,3.46,2.63   c0.28,0.7,0.93,0.92,1.13,1.63s0.63,1.42,0.76,2.15c0.446,1.892,0.608,3.84,0.48,5.78c-0.251,2.439-0.857,4.827-1.8,7.09   c-0.75,1.71-1.66,3.34-2.43,5c-0.48,1-0.93,2.15-1.47,3.18c-1.498,2.745-3.288,5.32-5.34,7.68c-0.94,1.12-1.74,2.35-2.77,3.4   c-1.47,1.49-2.83,3.08-4.37,4.51c-1.86,1.73-3.86,3.3-5.66,5.1c-0.239-0.474-0.656-0.834-1.16-1   C25.304,81.3,24.814,81.67,24.814,82.71z M33.614,47.56c-0.53,0-1.4,0.27-0.95,0.74c0.6,0.61,1.05,1.61,2.13,1.7   c0.406,0.322,0.679,0.78,0.77,1.29c0.77,1.34,1.19,1.39,2.28,0.25l0.29-0.08h0.1c0.005-0.067,0.005-0.133,0-0.2   c-0.11-0.24-0.1-0.56,0.11-0.63c0.87-0.27,1-1.1,1.34-1.73s0.36-1.57,1-2.11c0.86-0.89,0.75-1.8-0.25-2.14   c0.687-1.674,0.195-3.6-1.21-4.74c-0.72-0.473-1.681-0.322-2.22,0.35c-1,1.67-2.2,3.2-3.05,4.95c-0.38,0.73-0.89,1.47-0.35,2.35   L33.614,47.56z M15.094,45.46c-0.549-1.227-1.537-2.205-2.77-2.74c-0.4-0.304-0.971-0.227-1.275,0.173   c-0.08,0.105-0.136,0.227-0.165,0.357c-0.616,1.191-1.112,2.441-1.48,3.73c-0.48,2.3-1.1,4.48,0.16,6.77   c0.39,0.71,0.57,0.74,1.16,0.47c0.794-0.549,1.867-0.452,2.55,0.23c0.496,0.411,1.214,0.411,1.71,0c0.28-0.26,1-0.87,0.31-1.54   c-0.23-0.23-0.1-0.4,0.18-0.48c0.313-0.049,0.552-0.305,0.58-0.62c0.21-1.37-0.28-2.73,0-4.09c0-0.26-0.21-0.61-0.1-0.76   c0.51-0.72,0.29-1-0.5-1.1c-0.12-0.04-0.24-0.26-0.37-0.39L15.094,45.46z" fill="#E86665"/>  <path d="M23.604,129.64c-0.151,0.023-0.297,0.074-0.43,0.15c-1.001,0.895-2.175,1.576-3.45,2   c-1.27,0.41-2,1.5-3.21,2c-0.547,0.357-1.158,0.601-1.8,0.72c-0.74,0-0.61,0.77-1,1.12c-1.199,0.942-2.73,1.354-4.24,1.14   c-2.59-0.16-5.16-0.87-6.86-3c-2.003-2.215-2.925-5.201-2.52-8.16c0.163-0.848,0.266-1.707,0.31-2.57c0-0.81,0.81-1.54,1.05-2.41   c0.48-1.72,2.28-2,3.42-3c0.9-0.79,2.29-0.95,2.85-2.19c0,0,0.06-0.07,0.09-0.07c1.68,0.18,2.18-1.7,3.57-2   c0.32-0.08,0.58-0.4,1-0.22c0.2,0.09,0.46,0.08,0.45-0.16c0-1,0.86-1.08,1.38-1.35c1.551-0.765,3.016-1.693,4.37-2.77   c0.3-0.25,0.79,0.06,1.09-0.28c0.6,0.61,1.33,0.14,2,0.22c1.54,0.18,2.74,1.12,4.11,1.68c1.78,0.782,3.149,2.277,3.77,4.12   c0.92,2.33,1.31,4.8-0.3,7.13c-0.336,0.411-0.637,0.849-0.9,1.31c-0.986,1.915-2.28,3.654-3.83,5.15   C24.064,128.67,23.534,128.92,23.604,129.64z M3.904,122.11c0.12,0.14,0.77,0,0.36,0.4c-0.801,0.624-1.132,1.68-0.83,2.65   c0.061,0.702,0.593,1.272,1.29,1.38c0.66,0.07,0.44-0.74,0.57-1.15c0.48-1.54,1.11-1.87,2.64-1.28c0.46,0.18,0.9,0.42,1.36,0.61   c0.3,0.12,0.24,0.36,0.21,0.58s-0.18,0.46-0.34,0.39c-0.73-0.35-0.94,0.37-1.34,0.63c-1.159,0.825-2.232,1.767-3.2,2.81l0,0   c-0.58,0.39-0.75,0.83-0.21,1.4c0.123,0.196,0.227,0.404,0.31,0.62c0.61,0.89,0.65,2.15,1.84,2.69c0.77,0.35,1.28,1.45,2.38,0.68   c0,0,0.25,0.06,0.29,0.14c0.24,0.48,0.59,0.4,1,0.23l1.93-1c0.81-0.631,1.332-1.56,1.45-2.58c-0.024-0.556,0.017-1.113,0.12-1.66   c0.63-2.12-0.66-3.69-1.47-5.33c-0.451-0.781-1.057-1.461-1.78-2c-1.49-1.21-4.84-1.5-6.5-0.24l-0.15,0.13h0.11L3.904,122.11z" fill="#55B8CB"/>  <path d="M34.954,98.34c1.887-1.4,3.853-2.689,5.89-3.86c1.17-0.71,2.22-1.71,3.38-2.5   c2.32-1.57,4.67-3.11,6.89-4.83c1.52-1.18,3.23-1.1,4.87-0.94c1.237,0.232,2.375,0.835,3.26,1.73c0.258,0.271,0.577,0.476,0.93,0.6   c1.58,0.44,2.17,1.92,3.13,3c0.31,0.34-0.29,1.1,0.42,1.41c-0.44,0.55,0.11,0.89,0.29,1.3c0.386,1.141,0.509,2.355,0.36,3.55   c-0.06,2.95-2.38,4.09-4.34,5.47c-2.16,1.52-4.54,2.76-6.59,4.4c-2.33,1.86-4.8,3.53-7.15,5.36c0.152-1.091,0.152-2.199,0-3.29   c-0.096-1.436-0.434-2.846-1-4.17c-0.738-1.826-1.916-3.44-3.43-4.7c-0.821-0.601-1.591-1.27-2.3-2c-0.7-0.72-2-0.19-2.92-0.69   C36.034,97.83,35.564,98.78,34.954,98.34z" fill="#55B8CB"/>  <path d="M34.954,98.34c0.61,0.44,1.07-0.51,1.76-0.12c0.89,0.5,2.22,0,2.92,0.69   c0.709,0.73,1.479,1.399,2.3,2c1.514,1.26,2.692,2.874,3.43,4.7c0.566,1.324,0.904,2.734,1,4.17c0.152,1.091,0.152,2.199,0,3.29   c-0.48,0.95-1.55,1.16-2.3,1.77c-2,1.64-4.16,3.14-6.25,4.69c-0.138,0.068-0.287,0.112-0.44,0.13c-0.16,0-0.35-0.07-0.23-0.26   c1.85-2.88,1.53-5.92,0.72-9c-0.18-0.7-0.91-1.05-1.17-1.66c-0.946-1.874-2.415-3.434-4.23-4.49c-0.62-0.42-1.59-0.39-1.85-1.06   c-0.33-0.86-1-0.88-1.64-1.14c0.46-0.88,1.49-0.86,2.22-1.26c0.749-0.389,1.425-0.903,2-1.52   C33.652,98.762,34.276,98.433,34.954,98.34z" fill="#E86665"/>  <path d="M28.914,101.97c0.62,0.26,1.31,0.28,1.64,1.14c0.26,0.67,1.23,0.64,1.85,1.06   c1.815,1.056,3.284,2.616,4.23,4.49c0.27,0.61,1,1,1.17,1.66c0.81,3.09,1.13,6.13-0.72,9c-0.12,0.19,0.06,0.25,0.23,0.26   c0.44,0.77-0.53,0.77-0.74,1.25c-0.47,1.11-0.77,2.38-2.07,3.07c-0.74,0.39-1.22,1.28-1.81,1.94c-0.47-0.06-1.14-0.62-1.17,0.45   c-0.78,0.13-1.66,0.51-1.81-0.79c0.28-0.26,0.66-0.39,0.55-1c-0.075-0.634,0.318-1.229,0.93-1.41   c1.002-0.445,1.834-1.203,2.37-2.16c1.29-2.09,2.62-4.23,2-6.9c0-0.17,0.09-0.37,0.13-0.56c0.14-0.901-0.072-1.82-0.59-2.57   c-0.904-1.404-2.001-2.673-3.26-3.77c-1.191-0.908-2.517-1.624-3.93-2.12c-0.2-0.09-0.52-0.22-0.65-0.13   c-0.416,0.306-0.997,0.246-1.34-0.14c-0.43-0.36-0.78,0-1.05,0.37c0.84,0.4-0.06,0.58-0.11,0.86s-0.55,0.42-0.57,0.82   c0.005,0.309-0.241,0.564-0.55,0.57c-0.065,0.001-0.129-0.009-0.19-0.03c-0.32-0.08-1,0.07-0.73-0.7c0.07-0.2-0.15-0.28-0.27-0.19   s-0.11,0.27-0.15,0.41c-0.523-0.822-0.346-1.906,0.41-2.52c0.69-0.59,0.87-1.68,1.9-2c0.36-0.12,0.24-0.58,0.19-0.83   c-0.19-1.07,0.51-2.21-0.23-3.24c0.78-2.3-0.33-4.71,0.41-7c0.257-0.218,0.288-0.603,0.07-0.86c-0.021-0.025-0.045-0.049-0.07-0.07   c0.095-0.714,0.037-1.44-0.17-2.13c0.021-0.074,0.002-0.154-0.05-0.21c0.079-0.297,0.109-0.604,0.09-0.91   c-0.254-1.439-0.254-2.911,0-4.35c0-1,0.49-1.41,1.38-1c0.504,0.166,0.921,0.526,1.16,1c0,1.59,0.84,3.18,0,4.79   c-0.13,0.25,0.07,0.65,0.09,1c0.128,1.854,0.148,3.714,0.06,5.57c0,1.08,0.11,2.16,0,3.26c-0.1,1.49,0,3,0,4.61   C27.994,101.9,28.484,101.54,28.914,101.97z" fill="#193847"/>  <path d="M22.314,106.89c0-0.14,0.06-0.34,0.15-0.41s0.34,0,0.27,0.19c-0.26,0.77,0.41,0.62,0.73,0.7   c0.293,0.099,0.611-0.057,0.71-0.35c0.021-0.061,0.031-0.125,0.03-0.19c0-0.41,0.52-0.45,0.57-0.82s0.94-0.46,0.11-0.86   c0.27-0.37,0.63-0.73,1.05-0.37c0.343,0.386,0.924,0.446,1.34,0.14c0.13-0.09,0.45,0,0.65,0.13c1.413,0.496,2.739,1.212,3.93,2.12   c1.259,1.097,2.356,2.366,3.26,3.77c0.518,0.75,0.73,1.669,0.59,2.57c0,0.19-0.17,0.39-0.13,0.56c0.61,2.67-0.72,4.82-2,6.9   c-0.536,0.957-1.368,1.715-2.37,2.16c-0.612,0.181-1.005,0.776-0.93,1.41c0.11,0.58-0.27,0.71-0.55,1c-1.78,0.83-3.08,2.4-4.9,3.16   c-0.52,0.21-0.36,1.21-1.2,1c-0.07-0.72,0.46-1,0.88-1.41c1.55-1.496,2.844-3.235,3.83-5.15c0.263-0.461,0.564-0.899,0.9-1.31   c1.6-2.33,1.21-4.8,0.3-7.13c-0.621-1.843-1.99-3.338-3.77-4.12c-1.37-0.56-2.57-1.49-4.11-1.68c-0.66-0.08-1.39,0.4-2-0.22   C20.294,107.68,21.594,107.73,22.314,106.89z" fill="#E86665"/>  <path d="M33.554,24.8c-0.27,0.53-1.5,0.26-1.1,1.39c0.08,0.22-0.28,0-0.41,0c-0.13,0-0.68,0-0.4-0.41   c0.38-0.6,0.22-0.77-0.42-0.67s-1.18-0.61-1.8-0.75c-1.05-0.25-0.55-1.05-0.73-1.62c-0.704-2.677-1.106-5.424-1.2-8.19   c-0.295-1.616-0.373-3.264-0.23-4.9c-0.077-0.662-0.232-1.313-0.46-1.94c-0.19-1,0.34-1.36,1.15-1.42   c1.083,0.042,2.135,0.369,3.05,0.95c0.895,0.285,1.389,1.241,1.104,2.136c-0.028,0.088-0.063,0.173-0.104,0.254   c-0.22,0.67,0.28,1.39,0.44,2c0.272,0.914,0.37,1.87,0.29,2.82c-0.26,1.71,1,2.94,0.92,4.52c-0.003,1.492,0.25,2.974,0.75,4.38   c0.12,0.42,0,0.85-0.6,0.62c-0.287-0.142-0.635-0.024-0.777,0.263c-0.001,0.002-0.002,0.004-0.003,0.007   C32.884,24.57,33.544,24.45,33.554,24.8z" fill="#E86665"/>  <path d="M71.804,91.9c0.228,1.323,0.375,2.659,0.44,4c-0.091,1.085-0.282,2.16-0.57,3.21   c-0.31,1.55-0.34,3.24-1.05,4.59c-0.572,1.362-1.326,2.64-2.24,3.8c-0.556,0.446-1.368,0.356-1.813-0.2   c-0.139-0.174-0.231-0.38-0.267-0.6c-0.29-1.32-0.55-2.68,0.68-3.73c0.67-0.57,0.65-1.46,0.87-2.17   c0.625-1.966,0.859-4.034,0.69-6.09c0-0.52-0.4-1.17,0.28-1.7c0.42-0.33-0.28-0.6-0.32-1c-0.461-3.587-2.08-6.926-4.61-9.51   c-0.59-0.62-0.4-0.91,0.24-1.27c1.65-0.92,3.22-0.47,4.52,1.55c1.641,2.579,2.743,5.464,3.24,8.48   C71.916,91.477,71.885,91.697,71.804,91.9z" fill="#E86665"/>  <path d="M71.744,22.04c-0.093,1.263-0.465,2.489-1.09,3.59c-0.467,0.576-1.054,1.043-1.72,1.37   c-2.017,1.102-3.949,2.352-5.78,3.74c-0.917,0.56-1.865,1.067-2.84,1.52c-0.65,0.38-1.36,0.5-1.76-0.42   c-0.3-0.7-1.06-0.9-1.61-1.28c-0.88-0.62-0.47-1,0.15-1.1c0.772-0.048,1.359-0.712,1.311-1.484c0-0.005-0.001-0.011-0.001-0.016   c0-0.52,0.61-0.7,0.93-0.92c2.62-1.84,5.42-3.4,8-5.32c0.91-0.798,2.091-1.216,3.3-1.17c0.635-0.006,1.155,0.503,1.161,1.139   C71.796,21.808,71.779,21.926,71.744,22.04z" fill="#E86665"/>  <path d="M76.894,86.53c1.143-0.015,2.146,0.76,2.42,1.87c0.261,1.377,0.321,2.785,0.18,4.18   c-0.12,0.61,0.14,1.2,0,1.88c-0.23,1.61-0.4,3.18-1.56,4.42c-0.22,0.24,0.19,0.55-0.14,0.72c-0.376,0.262-0.801,0.445-1.25,0.54   c-0.48,0-0.37-0.61-0.47-0.93c-0.16-0.5-0.26-1-0.47-1.51c-0.237-0.563-0.204-1.204,0.09-1.74c0.451-0.881,0.622-1.879,0.49-2.86   c-0.27-1.26-0.17-2.53-0.31-3.79c-0.014-0.651,0.013-1.302,0.08-1.95c-0.051-0.417,0.245-0.796,0.661-0.847   C76.708,86.501,76.803,86.507,76.894,86.53z" fill="#E86665"/>  <path d="M54.074,0.18c0.11,0.06,0.18,0.17,0.08,0.26s-0.19,0-0.29,0L54.074,0.18z" fill="#FFFFFF"/>  <path d="M16.084,47.7c0-0.26-0.21-0.61-0.1-0.76c0.51-0.72,0.29-1-0.5-1.1c-0.15,0-0.27-0.25-0.4-0.38   c-0.549-1.227-1.537-2.205-2.77-2.74c-0.4-0.304-0.971-0.227-1.275,0.173c-0.08,0.105-0.136,0.227-0.165,0.357   c-0.613,1.191-1.105,2.441-1.47,3.73c-0.48,2.3-1.1,4.48,0.16,6.77c0.39,0.71,0.57,0.74,1.16,0.47   c0.794-0.549,1.867-0.452,2.55,0.23c0.496,0.411,1.214,0.411,1.71,0c0.28-0.26,1-0.87,0.31-1.54c-0.23-0.23-0.1-0.4,0.18-0.48   c0.313-0.049,0.552-0.305,0.58-0.62C16.274,50.42,15.784,49.04,16.084,47.7z" fill="#FFFFFF"/>  <path d="M40.404,44.63c0.687-1.674,0.195-3.6-1.21-4.74c-0.72-0.473-1.681-0.322-2.22,0.35   c-1,1.67-2.2,3.2-3.05,4.95c-0.37,0.75-0.88,1.49-0.33,2.38c-0.53,0-1.4,0.27-0.95,0.74c0.6,0.61,1.05,1.61,2.13,1.7   c0.406,0.322,0.679,0.78,0.77,1.29c0.77,1.34,1.19,1.39,2.28,0.25l0.29-0.08h0.1c0.005-0.067,0.005-0.133,0-0.2   c-0.11-0.24-0.1-0.56,0.11-0.63c0.87-0.27,1-1.1,1.34-1.73s0.36-1.57,1-2.11C41.534,45.88,41.404,44.98,40.404,44.63z" fill="#FFFFFF"/>  <path d="M4.634,129.14c0.968-1.043,2.041-1.985,3.2-2.81c0.4-0.26,0.61-1,1.34-0.63   c0.16,0.07,0.31-0.19,0.34-0.39s0.08-0.46-0.21-0.58c-0.46-0.19-0.9-0.43-1.36-0.61c-1.54-0.6-2.17-0.27-2.64,1.28   c-0.13,0.42,0.09,1.22-0.57,1.15c-0.697-0.108-1.229-0.678-1.29-1.38c-0.302-0.97,0.029-2.026,0.83-2.65   c0.42-0.35-0.23-0.26-0.36-0.4l0,0c1.66-1.26,5-1,6.5,0.24c0.723,0.539,1.329,1.219,1.78,2c0.8,1.64,2.1,3.21,1.47,5.33   c-0.103,0.547-0.144,1.104-0.12,1.66c-0.118,1.02-0.64,1.949-1.45,2.58l-1.93,1c-0.38,0.17-0.73,0.25-1-0.23   c0-0.08-0.25-0.18-0.29-0.14c-1.09,0.77-1.6-0.32-2.38-0.68c-1.19-0.54-1.23-1.8-1.84-2.69c-0.083-0.216-0.187-0.424-0.31-0.62   c-0.54-0.58-0.37-1,0.21-1.4c-0.06,0.21-0.16,0.43,0.07,0.59c0,0,0.18-0.08,0.21-0.15C4.994,129.33,4.934,129.15,4.634,129.14z    M10.754,127.48c-0.743,0.669-1.528,1.29-2.35,1.86c-1.06,0.65-1.15,1.27-0.44,2.27c0.388,0.529,1.027,0.814,1.68,0.75   c0.672-0.021,1.26-0.455,1.48-1.09c0.28-1.31,0.54-2.66-0.38-3.79H10.754z" fill="#193847"/>  <path d="M3.914,122.11v0.18h-0.11l0.15-0.13L3.914,122.11z" fill="#193847"/>  <path d="M10.744,127.48c0.92,1.12,0.68,2.47,0.36,3.78c-0.22,0.635-0.808,1.069-1.48,1.09   c-0.653,0.064-1.292-0.221-1.68-0.75c-0.71-1-0.62-1.62,0.44-2.27C9.209,128.764,9.997,128.146,10.744,127.48z" fill="#55B8CB"/>  <path d="M4.634,129.14c0.31,0,0.37,0.2,0.28,0.44c0,0.07-0.18,0.17-0.21,0.15   C4.474,129.57,4.574,129.35,4.634,129.14L4.634,129.14z" fill="#55B8CB"/> </g> </g>
              </svg>