<svg width="250" height="410" viewBox="0 0 250 410" fill="none" xmlns="http://www.w3.org/2000/svg">
<path d="M167.206 5.11671C169.125 7.89158 171.402 10.394 173.981 12.5594C174.417 12.9989 175.377 13.0868 174.796 14.0244C172.911 16.5004 172.001 19.5888 172.236 22.6978C172.298 22.897 172.298 23.1138 172.236 23.3131C168.165 23.3131 171.015 26.6828 169.968 27.7377C167.06 30.8436 168.223 35.3268 165.868 38.7258C164.094 41.2751 163.861 44.8792 162.553 47.8387C161.68 49.8312 160.197 51.5014 161.012 53.9041C161.012 54.1385 160.575 54.9004 160.314 54.9004C158.045 55.0762 157.086 55.8087 158.772 57.8306C156.359 58.8561 157.842 61.2003 157.115 62.8705C155.862 64.9978 154.948 67.3126 154.41 69.7271C154.207 71.5438 153.654 73.7414 150.863 73.6535C149.729 73.6535 149.67 75.2065 148.536 75.7339C147.955 74.7084 148.536 73.0382 146.094 72.9796C142.226 72.9796 138.707 65.156 140.917 61.6691C142.837 58.7389 142.778 55.0469 144.727 52.0288C146.413 49.5147 147.716 46.7574 148.594 43.8536C149.176 41.8318 148.594 39.6049 150.107 37.7003C152.227 34.6675 153.538 31.1367 153.916 27.4446C154.332 25.1181 155.335 22.941 156.824 21.1155C158.569 19.0936 158.104 15.9584 160.837 14.3761C161.68 13.8779 161.884 10.391 161.361 9.24826C159.877 5.90786 162.407 5.96646 163.978 5.05811H164.647C164.647 5.81995 165.286 5.81995 165.693 6.14227C166.101 6.46459 166.391 6.34738 166.537 6.14227C166.682 5.93716 166.537 5.55624 166.304 5.38042V5.11671H166.042H167.206Z" fill="#E86665"/>
<path d="M165.955 5.11721H166.217V5.41022L165.606 6.11347C165.228 5.79115 164.501 5.79115 164.588 5L165.955 5.11721Z" fill="white"/>
<path d="M81.158 247.355C77.3805 245.585 74.0072 243.051 71.2417 239.912C68.3337 236.543 65.8619 232.939 62.6922 229.803C60.8078 227.6 59.0601 225.279 57.4578 222.859C55.2186 219.929 53.2121 216.852 50.7112 214.068C48.411 211.777 46.6342 209.008 45.5059 205.952C44.7207 203.608 42.3362 202.348 40.9694 200.267C37.6921 194.876 34.8626 189.22 32.5071 183.36C29.0146 176.081 26.0135 168.571 23.5214 160.886C22.5327 156.065 22.0354 151.157 22.0383 146.235C22.0877 142.144 22.8962 138.101 24.4229 134.309C25.6181 129.832 28.4126 125.958 32.2745 123.438C35.6507 120.965 39.2188 118.77 42.9468 116.874C48.2103 114.647 53.7646 112.948 59.4352 116.23C63.1284 118.369 67.6358 118.896 70.8346 122.09C74.0392 124.944 76.9588 128.103 79.5586 131.525C81.4488 134.455 83.7752 136.887 85.52 139.759C87.2648 142.631 88.5734 145.619 90.3472 148.55C90.5508 146.768 91.1702 145.063 92.1502 143.568C92.3247 143.275 92.7027 142.865 92.6446 142.689C90.9579 139.525 94.1858 138.206 94.971 136.008C95.7561 133.811 97.4718 131.408 98.4896 129.005C101.194 122.676 106.923 119.248 111.401 114.559C115.327 110.487 120.59 109.373 125.243 107.322C129.896 105.271 135.799 103.513 140.743 106.121C144.407 108.054 149.205 109.813 150.805 113.827C151.619 115.878 153.509 116.523 154.091 118.603C154.672 120.684 155.923 122.764 156.301 124.903C157.598 130.447 158.069 136.155 157.697 141.839C156.967 148.986 155.204 155.983 152.462 162.614C150.281 167.625 147.635 172.401 145.396 177.265C144 180.195 142.691 183.565 141.121 186.583C136.765 194.627 131.559 202.172 125.592 209.087C122.859 212.369 120.532 215.973 117.537 219.05C113.262 223.415 109.307 228.074 104.829 232.265C99.4202 237.334 93.6042 241.934 88.3698 247.209C87.6748 245.82 86.4621 244.765 84.9965 244.278C82.5829 243.223 81.158 244.308 81.158 247.355ZM106.748 144.359C105.207 144.359 102.677 145.15 103.986 146.528C105.731 148.315 107.039 151.245 110.18 151.509C111.36 152.452 112.154 153.795 112.419 155.289C114.658 159.215 115.879 159.362 119.049 156.021L119.893 155.787H120.183C120.198 155.591 120.198 155.397 120.183 155.201C119.863 154.498 119.893 153.56 120.503 153.355C123.033 152.564 123.411 150.132 124.4 148.286C125.389 146.44 125.447 143.685 127.308 142.103C129.809 139.495 129.489 136.829 126.581 135.833C128.579 130.927 127.148 125.284 123.062 121.944C120.968 120.558 118.174 121 116.606 122.969C113.698 127.862 110.209 132.346 107.737 137.473C106.632 139.612 105.149 141.781 106.719 144.359H106.748ZM52.8922 138.206C51.2957 134.611 48.4226 131.745 44.837 130.177C43.6738 129.287 42.0134 129.512 41.1293 130.684C40.8967 130.992 40.7338 131.349 40.6495 131.73C38.8582 135.22 37.4158 138.883 36.3457 142.66C34.9498 149.399 33.1469 155.787 36.811 162.497C37.9451 164.578 38.4685 164.665 40.1842 163.874C42.4932 162.266 45.6135 162.55 47.5996 164.548C49.042 165.753 51.1299 165.753 52.5723 164.548C53.3866 163.786 55.4803 161.999 53.4738 160.036C52.805 159.362 53.183 158.864 53.9972 158.629C54.9074 158.486 55.6025 157.736 55.6839 156.813C56.2946 152.798 54.8696 148.813 55.6839 144.828C55.6839 144.066 55.0732 143.041 55.3931 142.601C56.8762 140.492 56.2364 139.671 53.9391 139.378C53.5901 139.261 53.2412 138.616 52.8631 138.235L52.8922 138.206Z" fill="#E86665"/>
<path d="M77.6393 384.868C77.2002 384.935 76.7756 385.085 76.3888 385.307C73.4779 387.93 70.0639 389.925 66.3562 391.168C62.6631 392.369 60.5402 395.563 57.0215 397.028C55.4309 398.074 53.6541 398.789 51.7871 399.138C49.6352 399.138 50.0133 401.394 48.8791 402.419C45.3924 405.18 40.9403 406.387 36.5492 405.76C29.0175 405.291 21.5439 403.211 16.6003 396.969C10.7756 390.479 8.09444 381.729 9.27218 373.059C9.74619 370.574 10.0457 368.057 10.1737 365.529C10.1737 363.155 12.5291 361.016 13.2271 358.467C14.6229 353.427 19.8573 352.606 23.1724 349.676C25.7896 347.361 29.8317 346.893 31.4602 343.259C31.4602 343.259 31.6347 343.054 31.7219 343.054C36.6074 343.582 38.0614 338.073 42.1035 337.194C43.0341 336.959 43.7901 336.022 45.0115 336.549C45.5931 336.813 46.3492 336.784 46.3201 336.08C46.3201 333.15 48.821 332.916 50.3331 332.125C54.8434 329.883 59.1037 327.164 63.0411 324.008C63.9135 323.275 65.3384 324.184 66.2108 323.188C67.9556 324.975 70.0785 323.598 72.0268 323.832C76.5051 324.36 79.9947 327.114 83.9787 328.755C89.1549 331.046 93.136 335.427 94.9419 340.827C97.6172 347.654 98.7513 354.892 94.0695 361.719C93.0924 362.924 92.2171 364.207 91.4523 365.558C88.585 371.169 84.822 376.265 80.3146 380.648C78.9769 382.025 77.4357 382.758 77.6393 384.868ZM20.3517 362.803C20.7006 363.214 22.5908 362.803 21.3985 363.976C19.0692 365.804 18.1067 368.898 18.9849 371.741C19.1623 373.798 20.7093 375.468 22.7362 375.784C24.6555 375.989 24.0157 373.616 24.3938 372.414C25.7896 367.902 27.6217 366.935 32.0709 368.664C33.4086 369.191 34.6881 369.895 36.0258 370.451C36.8982 370.803 36.7237 371.506 36.6365 372.151C36.5492 372.795 36.113 373.499 35.6477 373.294C33.5249 372.268 32.9142 374.378 31.751 375.14C28.3806 377.557 25.2604 380.317 22.4454 383.373C20.7588 384.516 20.2644 385.805 21.8347 387.476C22.1924 388.05 22.4949 388.659 22.7362 389.292C24.5101 391.9 24.6264 395.592 28.0869 397.174C30.3261 398.2 31.8092 401.423 35.008 399.167C35.008 399.167 35.735 399.343 35.8513 399.577C36.5492 400.984 37.567 400.749 38.7593 400.251L44.3717 397.321C46.7272 395.472 48.2452 392.75 48.5883 389.761C48.5186 388.132 48.6378 386.5 48.9373 384.897C50.7693 378.685 47.018 374.085 44.6625 369.279C43.351 366.991 41.5888 364.998 39.4863 363.419C35.1534 359.873 25.4116 359.024 20.5843 362.716L20.1481 363.097H20.468L20.3517 362.803Z" fill="#55B8CB"/>
<path d="M110.645 293.153C116.132 289.051 121.85 285.274 127.773 281.843C131.176 279.762 134.229 276.832 137.602 274.517C144.349 269.917 151.183 265.404 157.638 260.365C162.058 256.907 167.031 257.141 171.8 257.61C175.397 258.29 178.707 260.057 181.28 262.679C182.031 263.473 182.958 264.074 183.985 264.438C188.579 265.727 190.295 270.063 193.087 273.228C193.988 274.224 192.244 276.451 194.308 277.36C193.029 278.971 194.628 279.967 195.152 281.169C196.274 284.512 196.632 288.069 196.198 291.571C196.024 300.215 189.277 303.555 183.578 307.599C177.296 312.053 170.375 315.686 164.414 320.492C157.638 325.942 150.456 330.835 143.622 336.197C144.064 333.001 144.064 329.754 143.622 326.557C143.343 322.349 142.36 318.218 140.714 314.338C138.568 308.988 135.142 304.259 130.739 300.567C128.352 298.806 126.113 296.845 124.051 294.706C122.015 292.596 118.235 294.149 115.56 292.684C113.786 291.659 112.419 294.442 110.645 293.153Z" fill="#55B8CB"/>
<path d="M110.645 293.153C112.419 294.443 113.757 291.659 115.763 292.802C118.351 294.267 122.219 292.802 124.254 294.823C126.316 296.963 128.555 298.923 130.943 300.684C135.346 304.376 138.771 309.105 140.917 314.456C142.563 318.335 143.546 322.467 143.825 326.674C144.267 329.871 144.267 333.118 143.825 336.315C142.429 339.098 139.318 339.714 137.137 341.501C131.321 346.307 125.04 350.702 118.962 355.244C118.561 355.443 118.127 355.572 117.682 355.625C117.217 355.625 116.665 355.42 117.014 354.863C122.393 346.424 121.463 337.516 119.107 328.491C118.584 326.44 116.461 325.415 115.705 323.627C112.954 318.136 108.682 313.565 103.404 310.471C101.601 309.24 98.7804 309.328 98.0243 307.365C97.0647 304.845 95.1163 304.786 93.2552 304.024C94.5929 301.446 97.5881 301.504 99.711 300.332C101.889 299.192 103.855 297.686 105.527 295.878C106.859 294.39 108.673 293.426 110.645 293.153Z" fill="#E86665"/>
<path d="M93.0807 303.79C94.8837 304.552 96.8902 304.61 97.8499 307.13C98.6059 309.093 101.427 309.006 103.23 310.236C108.508 313.33 112.78 317.902 115.53 323.393C116.316 325.18 118.439 326.323 118.933 328.257C121.288 337.311 122.219 346.219 116.839 354.628C116.49 355.185 117.014 355.361 117.508 355.39C118.787 357.646 115.967 357.646 115.356 359.053C113.989 362.305 113.117 366.027 109.336 368.049C107.185 369.191 105.789 371.799 104.073 373.733C102.706 373.557 100.758 371.916 100.671 375.052C98.4024 375.433 95.8433 376.546 95.4071 372.737C96.2214 371.975 97.3264 371.594 97.0065 369.807C96.7884 367.949 97.9313 366.205 99.711 365.675C102.625 364.371 105.044 362.15 106.603 359.346C110.354 353.222 114.222 346.951 112.419 339.128C112.419 338.63 112.681 338.044 112.797 337.487C113.204 334.847 112.588 332.154 111.081 329.956C108.452 325.842 105.262 322.124 101.601 318.91C98.1378 316.249 94.2817 314.151 90.1727 312.698C89.5911 312.434 88.6606 312.053 88.2825 312.317C87.0728 313.213 85.3833 313.037 84.3858 311.906C83.1354 310.852 82.1176 311.906 81.3324 312.991C83.7751 314.163 81.1579 314.69 81.0125 315.511C80.8671 316.331 79.4131 316.741 79.355 317.913C79.3695 318.819 78.6542 319.566 77.7556 319.583C77.5666 319.586 77.3805 319.557 77.2031 319.496C76.2725 319.261 74.2951 319.701 75.0802 317.444C75.2838 316.858 74.644 316.624 74.2951 316.888C73.9461 317.151 73.9752 317.679 73.8589 318.089C72.338 315.68 72.8527 312.504 75.0511 310.705C77.0577 308.976 77.5811 305.782 80.5763 304.845C81.6232 304.493 81.2743 303.145 81.1289 302.413C80.5763 299.277 82.6119 295.937 80.46 292.919C82.7283 286.18 79.5004 279.118 81.6523 272.408C82.3997 271.769 82.4898 270.641 81.8559 269.888C81.7948 269.814 81.725 269.744 81.6523 269.683C81.9286 267.59 81.7599 265.463 81.1579 263.441C81.219 263.225 81.1638 262.99 81.0125 262.826C81.2423 261.956 81.3295 261.056 81.2743 260.16C80.5356 255.943 80.5356 251.63 81.2743 247.413C81.2743 244.483 82.6992 243.282 85.2873 244.483C86.7529 244.97 87.9656 246.024 88.6606 247.413C88.6606 252.072 91.1033 256.731 88.6606 261.449C88.2825 262.181 88.8641 263.353 88.9223 264.379C89.2945 269.812 89.3527 275.262 89.0968 280.7C89.0968 283.865 89.4167 287.029 89.0968 290.252C88.806 294.618 89.0968 299.043 89.0968 303.761C90.4054 303.585 91.8303 302.53 93.0807 303.79Z" fill="#193847"/>
<path d="M73.8879 318.206C73.8879 317.796 74.0624 317.21 74.3241 317.005C74.5859 316.8 75.3128 317.005 75.1093 317.562C74.3532 319.818 76.3016 319.378 77.2321 319.613C78.0842 319.903 79.0089 319.446 79.2968 318.587C79.3579 318.408 79.387 318.221 79.3841 318.03C79.3841 316.829 80.8962 316.712 81.0416 315.628C81.187 314.544 83.7751 314.28 81.3615 313.108C82.1467 312.024 83.1935 310.969 84.4149 312.024C85.4123 313.155 87.1019 313.33 88.3116 312.434C88.6897 312.17 89.6202 312.434 90.2018 312.815C94.3108 314.268 98.1668 316.366 101.63 319.027C105.291 322.241 108.481 325.96 111.11 330.073C112.617 332.271 113.233 334.964 112.826 337.604C112.826 338.161 112.332 338.747 112.448 339.245C114.222 347.069 110.354 353.368 106.632 359.463C105.073 362.267 102.654 364.488 99.7401 365.792C97.9604 366.323 96.8175 368.066 97.0356 369.924C97.3555 371.623 96.2505 372.004 95.4362 372.854C90.26 375.286 86.4796 379.886 81.187 382.113C79.6748 382.729 80.1401 385.659 77.6974 385.044C77.4939 382.934 79.0351 382.113 80.2564 380.912C84.7638 376.528 88.5268 371.433 91.3941 365.822C92.1589 364.471 93.0342 363.187 94.0113 361.983C98.6641 355.156 97.53 347.918 94.8837 341.091C93.0778 335.691 89.0968 331.31 83.9205 329.019C79.9366 327.378 76.447 324.653 71.9686 324.096C70.0494 323.862 67.9265 325.268 66.1526 323.451C68.0138 320.521 71.7942 320.668 73.8879 318.206Z" fill="#E86665"/>
<path d="M106.574 77.6682C105.789 79.2212 102.212 78.4301 103.375 81.7411C103.608 82.3858 102.561 81.7411 102.183 81.7411C101.805 81.7411 100.205 81.7411 101.02 80.5398C102.125 78.7817 101.659 78.2835 99.7982 78.5766C97.9371 78.8696 96.3668 76.7891 94.5638 76.3789C91.5104 75.6464 92.9644 73.3022 92.441 71.632C90.3938 63.788 89.2248 55.7388 88.9514 47.6339C88.0935 42.8987 87.8667 38.0698 88.2826 33.2761C88.0586 31.3363 87.6079 29.4287 86.9449 27.5915C86.3924 24.6613 87.9336 23.6065 90.2891 23.4307C93.4384 23.5537 96.4977 24.5119 99.1585 26.2143C101.761 27.0494 103.198 29.8507 102.369 32.4732C102.287 32.731 102.186 32.9801 102.066 33.2174C101.427 35.1807 102.881 37.2904 103.346 39.0778C104.137 41.756 104.422 44.5572 104.189 47.3409C103.433 52.3515 107.097 55.9556 106.865 60.5853C106.856 64.9571 107.592 69.2996 109.046 73.4195C109.395 74.6501 109.046 75.9101 107.301 75.2362C106.466 74.8201 105.454 75.1658 105.041 76.0068C105.038 76.0127 105.036 76.0185 105.033 76.0273C104.626 76.9943 106.545 76.6426 106.574 77.6682Z" fill="#E86665"/>
<path d="M217.805 274.283C218.468 278.16 218.895 282.074 219.084 286.004C218.82 289.183 218.264 292.333 217.427 295.409C216.525 299.951 216.438 304.903 214.373 308.859C212.71 312.85 210.517 316.595 207.86 319.994C206.243 321.301 203.881 321.037 202.587 319.408C202.183 318.898 201.916 318.294 201.811 317.65C200.968 313.782 200.211 309.797 203.788 306.72C205.737 305.05 205.679 302.442 206.318 300.361C208.136 294.601 208.816 288.541 208.325 282.517C208.325 280.993 207.162 279.088 209.139 277.535C210.36 276.568 208.325 275.777 208.208 274.605C206.868 264.095 202.16 254.311 194.803 246.739C193.087 244.923 193.639 244.073 195.501 243.018C200.299 240.322 204.864 241.641 208.645 247.56C213.417 255.117 216.621 263.57 218.067 272.408C218.131 273.043 218.04 273.688 217.805 274.283Z" fill="#E86665"/>
<path d="M217.63 69.5811C217.36 73.2819 216.278 76.8743 214.461 80.1004C213.103 81.7882 211.396 83.1566 209.459 84.1148C203.593 87.3438 197.975 91.0065 192.651 95.0736C189.984 96.7145 187.227 98.2001 184.392 99.5275C182.502 100.641 180.437 100.993 179.274 98.2968C178.401 96.2457 176.191 95.6596 174.592 94.5462C172.033 92.7295 173.225 91.616 175.028 91.323C177.273 91.1823 178.98 89.2367 178.841 86.9746C178.841 86.96 178.838 86.9424 178.838 86.9277C178.838 85.404 180.612 84.8766 181.542 84.232C189.161 78.8404 197.303 74.2694 204.806 68.6434C207.452 66.3052 210.887 65.0803 214.403 65.2151C216.249 65.1975 217.761 66.689 217.779 68.5526C217.782 68.9013 217.732 69.2471 217.63 69.5811Z" fill="#E86665"/>
<path d="M232.607 258.548C235.93 258.504 238.847 260.775 239.644 264.027C240.403 268.062 240.577 272.188 240.167 276.276C239.818 278.063 240.574 279.792 240.167 281.784C239.499 286.502 239.004 291.102 235.631 294.736C234.991 295.439 236.183 296.347 235.224 296.845C234.13 297.613 232.894 298.149 231.589 298.428C230.193 298.428 230.513 296.64 230.222 295.703C229.757 294.238 229.466 292.772 228.855 291.278C228.166 289.628 228.262 287.75 229.117 286.18C230.428 283.598 230.926 280.674 230.542 277.799C229.757 274.107 230.048 270.386 229.64 266.694C229.6 264.786 229.678 262.879 229.873 260.98C229.725 259.758 230.586 258.648 231.795 258.498C232.066 258.463 232.342 258.481 232.607 258.548Z" fill="#E86665"/>
<path d="M166.246 5.52734C166.566 5.70315 166.769 6.02547 166.479 6.28919C166.188 6.55291 165.926 6.28919 165.635 6.28919L166.246 5.52734Z" fill="white"/>
<path d="M55.7711 144.769C55.7711 144.008 55.1604 142.982 55.4803 142.543C56.9634 140.433 56.3236 139.612 54.0263 139.319C53.5901 139.319 53.2411 138.587 52.8631 138.206C51.2666 134.611 48.3935 131.745 44.8079 130.177C43.6447 129.286 41.9843 129.512 41.1002 130.684C40.8676 130.992 40.7047 131.349 40.6204 131.73C38.8378 135.22 37.4071 138.883 36.3457 142.66C34.9498 149.399 33.1469 155.787 36.8109 162.497C37.9451 164.577 38.4685 164.665 40.1842 163.874C42.4932 162.266 45.6135 162.55 47.5996 164.548C49.042 165.752 51.1299 165.752 52.5723 164.548C53.3865 163.786 55.4803 161.999 53.4738 160.036C52.8049 159.362 53.183 158.864 53.9972 158.629C54.9074 158.486 55.6024 157.735 55.6839 156.812C56.3236 152.74 54.8987 148.696 55.7711 144.769Z" fill="white"/>
<path d="M126.494 135.774C128.491 130.869 127.061 125.225 122.975 121.885C120.881 120.499 118.087 120.941 116.519 122.91C113.611 127.804 110.122 132.287 107.65 137.415C106.574 139.612 105.091 141.781 106.69 144.389C105.149 144.389 102.619 145.18 103.928 146.557C105.672 148.344 106.981 151.274 110.122 151.538C111.302 152.482 112.096 153.824 112.361 155.318C114.6 159.245 115.821 159.391 118.991 156.051L119.834 155.816H120.125C120.14 155.62 120.14 155.426 120.125 155.23C119.805 154.527 119.834 153.589 120.445 153.384C122.975 152.593 123.353 150.161 124.342 148.315C125.33 146.469 125.389 143.715 127.25 142.132C129.78 139.437 129.402 136.799 126.494 135.774Z" fill="white"/>
<path d="M22.4745 383.403C25.2895 380.347 28.4097 377.586 31.7801 375.169C32.9433 374.407 33.554 372.239 35.6768 373.323C36.1421 373.528 36.5783 372.766 36.6655 372.18C36.7528 371.594 36.8982 370.832 36.0549 370.481C34.7172 369.924 33.4377 369.221 32.1 368.693C27.6217 366.935 25.7896 367.902 24.4229 372.444C24.0448 373.674 24.6846 376.019 22.7653 375.814C20.7384 375.497 19.1914 373.827 19.014 371.77C18.1358 368.928 19.0983 365.833 21.4276 364.005C22.649 362.979 20.7588 363.243 20.3807 362.833C25.208 359.141 34.9207 359.903 39.2827 363.536C41.3852 365.115 43.1475 367.108 44.459 369.396C46.7854 374.202 50.5658 378.802 48.7337 385.014C48.4342 386.617 48.315 388.249 48.3848 389.878C48.0416 392.867 46.5237 395.589 44.1682 397.438L38.5557 400.368C37.4507 400.867 36.4329 401.101 35.6477 399.694C35.6477 399.46 34.9207 399.167 34.8044 399.284C31.6347 401.54 30.1516 398.347 27.8834 397.292C24.4229 395.709 24.3065 392.017 22.5327 389.41C22.2913 388.777 21.9889 388.167 21.6312 387.593C20.0609 385.893 20.5552 384.663 22.2419 383.491C22.0674 384.106 21.7766 384.751 22.4454 385.219C22.4454 385.219 22.9689 384.985 23.0561 384.78C23.5214 383.959 23.3469 383.432 22.4745 383.403ZM40.2715 378.539C38.1108 380.499 35.828 382.319 33.4377 383.989C30.3552 385.893 30.0935 387.71 32.1581 390.64C33.2865 392.19 35.1447 393.025 37.0436 392.838C38.9978 392.776 40.7077 391.505 41.3474 389.644C42.1617 385.805 42.9177 381.85 40.2424 378.539H40.2715Z" fill="#193847"/>
<path d="M20.3807 362.804V363.331H20.0609L20.4971 362.95L20.3807 362.804Z" fill="#193847"/>
<path d="M40.2424 378.539C42.9177 381.82 42.2198 385.776 41.2893 389.615C40.6495 391.475 38.9396 392.747 36.9854 392.809C35.0865 392.996 33.2283 392.161 32.1 390.611C30.0353 387.681 30.297 385.864 33.3795 383.959C35.7786 382.301 38.0701 380.49 40.2424 378.539Z" fill="#55B8CB"/>
<path d="M22.4745 383.403C23.376 383.403 23.5505 383.989 23.2887 384.692C23.2887 384.897 22.7653 385.19 22.6781 385.132C22.0092 384.663 22.3 384.018 22.4745 383.403Z" fill="#55B8CB"/>
</svg>
