<svg width="200" height="200" viewBox="0 0 200 200" fill="none" xmlns="http://www.w3.org/2000/svg">
<g clip-path="url(#clip0)">
<path d="M109.632 151.141C108.701 151.146 107.756 150.777 107.043 150.074C104.903 148.203 102.677 146.376 100.957 143.978C100.163 142.839 99.1658 142.271 98.0675 141.612C95.3237 139.982 92.5743 138.045 90.5336 135.479C89.3041 133.946 88.1775 132.266 86.8332 130.781C85.9745 129.855 84.7264 130.239 83.9372 129.134C82.7216 127.463 81.3438 125.948 80.7674 123.828C80.3465 122.27 79.7593 120.834 78.0733 120.551C77.3341 120.398 77.1553 119.632 77.259 118.971C77.4508 117.513 77.6606 115.951 78.5971 114.954C81.3294 112.074 83.4496 108.581 85.4513 105.103C89.8213 97.419 95.3388 90.5594 98.5574 82.0181C102.057 77.7164 103.425 71.8844 106.529 67.2867C107.221 66.2496 107.128 64.9275 107.57 63.8167C109.338 59.6132 110.907 55.2616 112.965 51.2295C114.091 49.0142 114.994 46.6881 115.703 44.2476C116.518 41.4191 117.836 39.0448 119.108 36.5391C119.648 35.4855 120.373 34.4787 120.629 33.3211C121.071 31.4243 122.102 30.7239 123.71 30.3325C124.613 30.0911 125.203 29.9886 126.141 30.5635C129.41 32.5772 132.507 34.9184 135.427 37.5535C137.505 39.3977 139.806 40.8399 141.828 42.7247C145.125 45.7604 148.286 48.9145 151.477 52.0652C151.921 52.5264 152.284 53.0653 152.831 53.3779C156.61 55.6401 158.922 59.5077 161.315 63.2976C161.685 63.9041 161.801 64.6426 162.627 65.0254C164.531 65.8984 164.971 66.8386 164.021 68.76C162.015 72.7178 160.91 77.1865 158.647 81.0031C158.187 81.7058 157.828 82.4993 157.566 83.3499C156.291 88.6926 153.766 93.3599 151.196 97.8957C148.379 102.904 145.437 107.859 142.389 112.69C139.677 117.037 136.766 121.236 134.02 125.553C132.241 128.357 129.847 130.787 127.681 133.362C125.279 136.238 123.183 139.42 120.408 141.929C117.359 144.675 114.143 147.269 111.453 150.52C111.03 151.013 110.403 151.052 109.632 151.141ZM135.313 88.9699C136.059 87.1063 134.511 85.6793 133.392 84.0658C133.074 83.6583 132.749 83.1834 132.486 82.7353C131.102 80.1273 129.115 78.546 126.516 78.1636C122.662 77.5849 119.159 78.2299 115.7 80.5446C110.9 83.7325 107.256 90.6825 108.415 97.8281C108.897 100.951 110.283 103.832 112.369 106.017C114.938 108.727 117.968 109.196 120.973 109.19C125.421 109.187 129.49 107.724 132.509 103.684C135.6 99.4971 136.007 94.6997 135.313 88.9699ZM137.943 69.9014C141.711 69.7382 143.861 66.2422 142.769 62.7801C141.401 58.4955 140.022 57.4932 136.044 57.92C135.45 57.9887 134.857 58.0574 134.272 58.1936C133.182 58.3882 132.248 59.1458 131.713 60.2332C130.406 62.7086 131.686 67.7895 133.976 69.1305C134.14 69.2483 134.33 69.3288 134.515 69.3757C135.834 69.5992 137.115 69.7581 137.943 69.9014ZM110.201 120.247C109.819 117.215 109.164 116.231 107.079 115.618C104.682 114.905 101.372 116.69 100.378 119.266C99.2193 122.237 100.712 126.815 103.113 127.562C107.015 128.818 110.773 124.931 110.201 120.247Z" fill="#B1E7F1"/>
<path d="M135.313 88.97C136.007 94.6998 135.601 99.4975 132.509 103.684C129.494 107.758 125.425 109.221 120.973 109.19C117.968 109.196 114.938 108.727 112.369 106.017C110.286 103.866 108.897 100.951 108.415 97.8282C107.256 90.6826 110.87 83.736 115.7 80.5446C119.163 78.2637 122.665 77.6186 126.516 78.1637C129.115 78.5461 131.132 80.1239 132.486 82.7353C132.752 83.2171 133.074 83.6584 133.392 84.0659C134.511 85.679 136.059 87.1063 135.313 88.97Z" fill="#1C8A9B"/>
<path d="M137.943 69.9014C137.115 69.7581 135.834 69.5989 134.575 69.3688C134.389 69.322 134.199 69.2414 134.035 69.1237C131.72 67.8198 130.436 62.7052 131.772 60.2263C132.307 59.139 133.242 58.3814 134.331 58.1868C134.92 58.0843 135.51 57.9819 136.103 57.9131C140.077 57.4527 141.456 58.455 142.828 62.7733C143.857 66.2089 141.711 69.7382 137.943 69.9014Z" fill="#1C8A9B"/>
<path d="M110.201 120.247C110.773 124.931 107.016 128.819 103.113 127.562C100.712 126.815 99.1897 122.24 100.378 119.266C101.376 116.724 104.682 114.905 107.079 115.619C109.168 116.265 109.819 117.215 110.201 120.247Z" fill="#1C8A9B"/>
<path d="M103.188 147.427C102.285 147.636 101.287 147.484 100.441 146.957C97.9525 145.608 95.3914 144.32 93.1957 142.368C92.1763 141.436 91.0832 141.102 89.8724 140.703C86.8511 139.72 83.7572 138.44 81.2139 136.394C79.6846 135.175 78.2228 133.789 76.5924 132.642C75.5559 131.93 74.4278 132.576 73.4196 131.676C71.8736 130.319 70.204 129.149 69.1804 127.216C68.4308 125.795 67.5465 124.53 65.8471 124.623C65.0956 124.636 64.7545 123.932 64.7105 123.267C64.5779 121.809 64.4398 120.246 65.1312 119.073C67.1547 115.678 68.4497 111.822 69.6326 108.006C72.1956 99.588 76.0533 91.7191 77.3104 82.7199C79.7678 77.7767 79.8207 71.8135 81.8297 66.6692C82.2743 65.5107 81.8947 64.2471 82.0814 63.0716C82.8781 58.6026 83.4507 54.033 84.567 49.667C85.1759 47.2692 85.5437 44.8127 85.6986 42.2874C85.8708 39.3622 86.6314 36.7681 87.3192 34.0562C87.6124 32.915 88.0962 31.7786 88.0922 30.5982C88.106 28.6596 88.954 27.7538 90.4299 27.0219C91.2549 26.5897 91.8048 26.3613 92.8418 26.7143C96.4572 27.9547 99.9769 29.5509 103.39 31.4711C105.81 32.8077 108.361 33.7049 110.737 35.093C114.603 37.3198 118.363 39.6914 122.151 42.0532C122.683 42.4039 123.154 42.8479 123.753 43.0317C127.918 44.402 131.009 47.6524 134.162 50.8095C134.655 51.3173 134.929 52.0092 135.815 52.2003C137.856 52.6315 138.488 53.4484 137.986 55.5222C136.904 59.8048 136.808 64.3864 135.445 68.5881C135.152 69.3711 134.977 70.2202 134.909 71.1037C134.84 76.5712 133.409 81.6563 131.905 86.6238C130.265 92.1041 128.491 97.56 126.589 102.918C124.905 107.733 122.998 112.448 121.275 117.241C120.161 120.353 118.368 123.237 116.827 126.212C115.123 129.53 113.784 133.079 111.638 136.123C109.278 139.457 106.722 142.68 104.821 146.425C104.518 146.997 103.917 147.171 103.188 147.427ZM114.527 81.4302C114.843 79.457 113.028 78.4099 111.588 77.0877C111.191 76.7615 110.771 76.3714 110.418 75.9936C108.503 73.7637 106.228 72.6627 103.62 72.8599C99.7497 73.1411 96.4896 74.5337 93.6367 77.5385C89.6718 81.6847 87.654 89.2314 90.3424 95.9175C91.4937 98.8447 93.4699 101.34 95.9744 103.005C99.0616 105.075 102.107 104.868 105.024 104.204C109.344 103.228 112.975 100.918 115.023 96.333C117.109 91.5908 116.454 86.8429 114.527 81.4302ZM112.909 62.336C116.533 61.3531 117.857 57.4875 116.038 54.3643C113.772 50.5026 112.214 49.8307 108.444 51.1156C107.883 51.3121 107.322 51.5086 106.783 51.7689C105.767 52.1963 105.026 53.1364 104.744 54.3095C104.017 56.9994 106.371 61.6537 108.888 62.4552C109.073 62.5337 109.275 62.5704 109.466 62.5753C110.795 62.5039 112.074 62.378 112.909 62.336ZM96.9814 117.299C95.9477 114.438 95.0964 113.626 92.9375 113.487C90.4534 113.319 87.6293 115.776 87.2275 118.495C86.7521 121.634 89.2029 125.753 91.6981 125.954C95.7634 126.32 98.5623 121.723 96.9814 117.299Z" fill="#B1E7F1"/>
<path d="M114.527 81.4301C116.454 86.8429 117.11 91.5911 115.023 96.333C112.986 100.95 109.355 103.26 105.024 104.204C102.107 104.868 99.0616 105.075 95.9744 103.005C93.4811 101.372 91.4937 98.8447 90.3424 95.9175C87.654 89.2314 89.6438 81.6945 93.6367 77.5384C96.5008 74.5656 99.7609 73.173 103.62 72.8599C106.228 72.6626 108.531 73.7538 110.418 75.9936C110.782 76.4033 111.191 76.7614 111.588 77.0876C113.028 78.4095 114.844 79.457 114.527 81.4301Z" fill="#1C8A9B"/>
<path d="M112.909 62.336C112.074 62.378 110.795 62.5036 109.522 62.5556C109.331 62.5508 109.129 62.514 108.944 62.4356C106.411 61.6758 104.045 56.9895 104.8 54.2899C105.082 53.1167 105.823 52.1766 106.839 51.7492C107.389 51.5208 107.939 51.2924 108.5 51.0959C112.259 49.7792 113.817 50.451 116.094 54.3446C117.845 57.456 116.533 61.353 112.909 62.336Z" fill="#1C8A9B"/>
<path d="M96.9814 117.299C98.5625 121.723 95.7635 126.32 91.6982 125.954C89.2029 125.753 86.7241 121.644 87.2275 118.495C87.6405 115.808 90.4535 113.319 92.9376 113.487C95.1077 113.658 95.9478 114.438 96.9814 117.299Z" fill="#1C8A9B"/>
<path d="M114.659 144.242C113.938 144.808 112.981 145.092 112.002 144.975C109.208 144.813 106.375 144.737 103.59 143.912C102.286 143.505 101.167 143.666 99.9157 143.817C96.7984 144.207 93.4916 144.361 90.3558 143.598C88.4748 143.15 86.5842 142.523 84.6427 142.181C83.4161 141.98 82.6777 143.032 81.3971 142.649C79.4435 142.085 77.4576 141.739 75.7292 140.438C74.4615 139.482 73.1382 138.72 71.6566 139.518C70.9892 139.845 70.3881 139.358 70.0693 138.781C69.3383 137.532 68.558 136.191 68.684 134.851C69.069 130.962 68.6084 126.967 68.0639 123.054C66.8215 114.443 66.9687 105.779 64.3133 97.1962C64.4362 91.7394 61.9784 86.3797 61.6155 80.9313C61.5268 79.7076 60.6561 78.736 60.3293 77.6055C59.1651 73.2707 57.7579 68.9401 56.9229 64.5633C56.4606 62.1614 55.7578 59.8081 54.8356 57.4828C53.7608 54.7922 53.3518 52.1508 52.8282 49.4345C52.6112 48.2899 52.5668 47.0695 52.0674 46.0147C51.2653 44.2737 51.6438 43.1066 52.6574 41.8316C53.2142 41.0982 53.6104 40.6627 54.6869 40.543C58.4441 40.1344 62.265 40.0845 66.1262 40.3696C68.8545 40.5488 71.5142 40.2805 74.2239 40.5248C78.6201 40.8936 82.9817 41.4369 87.3642 41.9596C87.9879 42.0499 88.5956 42.2496 89.2096 42.1622C93.5131 41.639 97.6454 43.2497 101.794 44.7509C102.448 44.9984 102.984 45.5027 103.857 45.3016C105.865 44.8302 106.774 45.2956 107.196 47.3627C108.026 51.6506 109.865 55.7918 110.411 60.1251C110.478 60.9488 110.678 61.7823 110.988 62.6019C113.223 67.5246 114.078 72.6775 114.818 77.7555C115.653 83.3494 116.358 88.978 116.905 94.5728C117.422 99.59 117.695 104.611 118.167 109.625C118.477 112.879 118.084 116.214 117.954 119.523C117.823 123.209 118.115 126.949 117.473 130.575C116.761 134.55 115.827 138.508 115.7 142.659C115.668 143.298 115.204 143.707 114.659 144.242ZM97.0824 80.4073C96.537 78.5081 94.472 78.3336 92.6282 77.7549C92.1351 77.6299 91.5953 77.4573 91.1208 77.2674C88.47 76.0759 85.9709 76.0463 83.7195 77.3185C80.3738 79.1959 78.0409 81.8119 76.7496 85.6998C74.9426 91.0766 76.3069 98.6791 81.522 103.534C83.7822 105.671 86.5992 107.073 89.5405 107.512C93.1734 108.068 95.8121 106.603 98.1443 104.783C101.601 102.095 103.88 98.5018 103.787 93.538C103.663 88.4167 101.082 84.4423 97.0824 80.4073ZM87.6133 63.9963C90.4441 61.594 90.0045 57.5783 87.0649 55.5467C83.4143 53.0421 81.7375 53.0954 78.9026 55.8293C78.483 56.2409 78.0633 56.6525 77.6905 57.1118C76.961 57.921 76.6922 59.074 76.9327 60.2425C77.4119 62.9555 81.4747 66.1322 84.0643 65.7923C84.2628 65.7848 84.4589 65.7329 84.6315 65.6571C85.7914 65.0348 86.883 64.3849 87.6133 63.9963ZM96.4467 119.883C94.3197 117.756 93.2166 117.387 91.2258 118.17C88.9316 119.063 87.4362 122.449 88.2189 125.051C89.1121 128.06 93.0361 130.718 95.3537 129.849C99.1464 128.469 99.7201 123.178 96.4467 119.883Z" fill="#B1E7F1"/>
<path d="M97.0825 80.4072C101.082 84.4423 103.663 88.4169 103.787 93.5379C103.904 98.5256 101.624 102.119 98.1443 104.783C95.8122 106.603 93.1734 108.068 89.5405 107.512C86.6226 107.097 83.7822 105.671 81.522 103.534C76.3069 98.6791 74.9217 91.0972 76.7496 85.6998C78.0643 81.8357 80.3973 79.2197 83.7195 77.3184C85.971 76.0462 88.4911 76.0552 91.1209 77.2673C91.6187 77.4811 92.1352 77.6299 92.6282 77.7548C94.4718 78.3333 96.537 78.5081 97.0825 80.4072Z" fill="#1C8A9B"/>
<path d="M87.6133 63.9963C86.883 64.385 85.7912 65.0346 84.6736 65.616C84.5009 65.6917 84.3048 65.7437 84.1063 65.7511C81.5192 66.1355 77.4329 62.9349 76.9747 60.2013C76.7342 59.0328 77.003 57.8798 77.7325 57.0707C78.1287 56.6352 78.525 56.1997 78.9446 55.7881C81.7561 53.0304 83.4329 52.9771 87.1069 55.5055C89.9814 57.5547 90.4442 61.594 87.6133 63.9963Z" fill="#1C8A9B"/>
<path d="M96.4468 119.883C99.7205 123.178 99.1465 128.469 95.3538 129.849C93.0362 130.718 89.0912 128.081 88.219 125.051C87.4598 122.473 88.9318 119.063 91.2259 118.17C93.2401 117.411 94.3198 117.756 96.4468 119.883Z" fill="#1C8A9B"/>
<path d="M44.2602 103.533C45.2577 104.512 46.4581 105.294 47.1689 106.552C47.258 106.714 47.3844 106.853 47.5377 106.957C48.5813 107.615 49.1566 108.68 49.8425 109.636C50.155 110.07 50.58 110.354 50.9276 110.742C52.2072 112.177 53.4408 113.651 54.8919 114.925C55.4377 115.402 55.8867 116.005 56.3808 116.549C56.65 116.846 57.1027 116.826 57.2806 117.138C57.6743 117.834 58.3086 118.352 58.6635 119.065C58.8479 119.427 59.1245 119.698 59.3541 120.01C59.7284 120.526 60.276 120.656 60.737 120.963C61.0135 120.715 60.9407 120.449 60.9379 120.225C60.9158 118.639 61.6063 117.429 62.7938 116.419C63.7572 115.601 64.7916 115.302 66.0261 115.606C67.6349 116.002 68.9643 116.839 69.629 118.351C70.0531 119.315 70.4366 120.379 70.0337 121.54C69.8235 122.144 69.5811 122.738 69.3948 123.356C69.3204 123.592 69.1853 123.803 69.003 123.97C68.5669 124.357 68.1041 124.708 67.8146 125.234C67.7058 125.431 67.3924 125.332 67.2854 125.587C67.4099 125.991 67.7234 126.123 68.1235 126.124C69.0454 126.124 69.9461 126.055 70.7971 125.645C70.9547 125.569 71.1557 125.585 71.3336 125.546C71.6683 125.473 71.9855 125.361 72.1708 125.039C73.2559 123.14 74.9366 121.73 76.2697 120.035C76.9556 119.164 77.8517 118.499 78.5302 117.652C79.2742 116.723 80.2644 116.018 80.8766 114.978C81.131 114.548 81.5588 114.282 81.9027 113.939C82.7886 113.053 83.5999 112.101 84.45 111.185C84.9875 110.605 85.5111 110.005 86.0652 109.44C87.3946 108.087 88.6226 106.637 89.9677 105.304C90.6647 104.613 91.3156 103.889 91.9683 103.163C92.1933 102.912 92.4533 102.695 92.5418 102.345C92.575 102.215 92.704 102.172 92.8396 102.203C92.95 102.222 93.0241 102.327 93.0051 102.437C93.0022 102.455 92.997 102.471 92.9898 102.487C92.669 103.261 93.0147 104.059 92.8801 104.847C92.7649 105.522 93.1825 106.138 93.2941 106.801C93.5264 108.184 94.1063 109.474 94.8125 110.7C95.2218 111.41 95.5869 112.142 95.8155 112.934C95.9631 113.445 96.3272 113.82 96.6453 114.225C96.9495 114.613 97.227 115.01 97.3423 115.506C97.44 115.928 97.6188 116.311 97.9775 116.597C98.1416 116.729 98.3398 116.882 98.3462 117.109C98.3555 117.546 98.6394 117.747 98.9501 117.965C99.1465 118.103 99.3668 118.265 99.4304 118.51C99.707 119.561 100.347 120.446 100.732 121.442C100.833 121.703 100.872 121.985 101.205 122.056C101.352 122.087 101.433 122.169 101.331 122.306C101.061 122.675 101.278 122.964 101.497 123.209C101.975 123.74 102.155 124.399 102.225 125.053C102.323 125.975 102.712 126.737 103.268 127.438C103.361 127.559 103.553 127.715 103.465 127.814C102.931 128.431 103.637 128.939 103.597 129.529C103.559 130.082 103.768 130.674 103.955 131.219C104.078 131.575 104.008 131.864 103.993 132.208C103.962 132.882 103.976 133.618 104.265 134.263C104.472 134.667 104.481 135.143 104.289 135.554C104.093 136.039 104.172 136.64 104.449 137.113C104.593 137.357 104.558 137.482 104.431 137.671C104.11 138.159 103.927 138.662 104.345 139.198C104.399 139.267 104.444 139.412 104.329 139.424C103.64 139.493 103.95 140.019 103.937 140.337C103.904 141.151 103.622 141.856 103.262 142.575C102.791 143.513 102.382 144.483 101.772 145.341C101.298 146.01 100.819 146.661 100.494 147.431C100.257 147.992 99.6213 148.253 99.2212 148.722C98.7169 149.316 98.4246 150.105 97.712 150.506C96.8066 151.012 96.4028 152.006 95.5915 152.602C94.5958 153.333 93.8629 154.324 93.0359 155.224C92.5807 155.711 92.2514 156.302 92.0771 156.946C90.7173 156.913 89.3593 156.877 88.0003 157.032C87.5965 157.078 87.1706 156.965 86.7603 156.887C86.5833 156.853 86.4091 156.742 86.2284 156.788C85.158 157.065 84.0683 156.775 82.9841 156.916C82.3037 157.008 81.5892 156.784 80.8885 156.776C80.0339 156.766 79.1618 156.376 78.32 156.882C78.0241 157.06 77.9642 156.434 77.648 156.628C77.2792 156.856 77.2137 156.594 77.0579 156.345C76.9657 156.194 76.8855 156.408 76.8348 156.507L76.7583 156.582C75.7571 156.918 74.7466 156.675 73.7427 156.614C73.1775 156.577 72.6474 156.648 72.1874 156.945C72.1261 156.881 72.0717 156.812 72.0251 156.737C71.8333 156.25 71.5982 156.11 71.3253 156.461C70.9686 156.922 70.5657 156.713 70.1775 156.81C69.7046 156.927 69.2805 156.94 68.8426 156.742C68.654 156.654 68.4421 156.628 68.2378 156.668C66.9987 156.871 65.7394 156.804 64.5049 156.683C64.1158 156.645 63.7784 156.413 63.406 156.715C63.3528 156.749 63.2867 156.754 63.2289 156.729C62.4333 156.176 61.7631 156.821 61.0412 156.957C60.9555 156.972 60.8568 157.066 60.7904 156.98C60.3295 156.355 59.6749 156.912 59.131 156.703C58.6359 156.512 58.1666 156.912 57.6669 156.923C56.2481 156.952 54.8292 156.97 53.4113 157C53.048 157.007 52.7014 157.13 52.3345 157.164C51.5425 157.237 50.7432 157.088 49.9725 157.198C49.2537 157.316 48.5161 157.195 47.8732 156.853C47.6243 156.724 47.274 156.782 46.9698 156.779C46.6932 156.779 46.4055 156.829 46.3161 156.448C46.3023 156.347 46.2093 156.276 46.1084 156.29C46.0841 156.293 46.0606 156.302 46.0395 156.314C45.491 156.553 45.0383 156.251 44.546 156.087C43.5724 155.764 42.6625 155.264 41.6502 155.049C41.5635 155.031 41.4317 154.987 41.4114 154.925C41.0712 153.911 39.7796 154.123 39.3048 153.286C39.2642 153.215 39.1453 153.11 39.1066 153.127C38.2492 153.482 38.0289 152.476 37.4047 152.33C37.2443 152.292 37.1088 152.094 37.1152 151.893C37.1226 151.659 36.952 151.584 36.8055 151.48C35.6254 150.651 35.1183 149.176 33.882 148.401C33.7898 148.34 33.6469 148.186 33.6681 148.125C33.8525 147.571 33.374 147.351 33.1491 147.005C33.0827 146.903 32.9333 146.785 32.9536 146.707C33.1223 146.032 32.5369 145.732 32.2493 145.304C31.984 144.925 31.8267 144.482 31.7938 144.02C31.7653 143.518 31.6177 143.054 31.4813 142.597C31.2766 141.913 31.1051 141.251 31.2259 140.529C31.3034 140.068 30.9595 139.679 30.9687 139.192C30.9788 138.627 30.7078 138.068 30.9798 137.485C31.072 137.282 30.8571 137.09 30.7769 136.895C30.5926 136.443 30.4893 136.008 30.9918 135.678C31.3006 135.475 31.2278 135.223 31.0886 134.956C30.7198 134.254 30.8949 133.523 31.0461 132.825C31.2591 131.84 31.6832 130.907 31.804 129.895C31.8261 129.711 31.8731 129.515 32.0529 129.428C32.2852 129.315 32.2299 129.169 32.1829 128.977C32.0957 128.647 32.13 128.296 32.2797 127.989C32.4051 127.732 32.5388 127.502 32.9038 127.595C33.2938 127.695 33.4939 127.513 33.2597 127.165C32.7868 126.463 33.185 125.861 33.4441 125.267C33.6128 124.873 33.8599 124.522 33.8295 124.069C33.816 123.977 33.8366 123.883 33.8875 123.805C34.4739 123.211 34.5329 122.275 35.2271 121.752C35.4493 121.585 35.5811 121.348 35.7028 121.09C35.9112 120.65 36.1453 120.244 36.2394 119.739C36.3104 119.356 36.8184 119.158 36.8635 118.641C36.8912 118.325 37.2443 118.034 37.4609 117.738C37.7467 117.347 38.1063 117 38.051 116.447C38.0298 116.22 38.1837 116.018 38.3359 115.886C39.0734 115.24 39.267 114.283 39.6551 113.454C39.8395 113.06 40.0341 112.673 40.3162 112.383C40.7043 111.986 40.7771 111.369 41.2796 111.068C41.3487 111.027 41.3718 110.836 41.3497 110.728C41.2224 110.103 41.6465 109.928 42.1176 109.773C41.7931 109.22 41.912 108.731 42.2891 108.261C42.5657 107.912 42.9483 107.606 42.869 107.072C42.8515 106.954 42.905 106.775 43.023 106.767C43.5024 106.734 43.5226 106.327 43.6951 106.029C43.7393 105.953 43.9145 105.954 44.0721 105.906C43.9596 105.731 43.8416 105.545 43.719 105.361C43.6342 105.233 43.5512 105.121 43.6831 104.96C44.0186 104.544 43.3521 103.72 44.2602 103.533Z" fill="#4BB7CA"/>
<path d="M114.434 93.9666C113.8 93.9666 113.165 93.974 112.531 93.9722C111.617 93.9722 111.069 93.4881 110.964 92.5764C110.92 92.1855 110.92 91.7899 110.899 91.3972L110.8 91.0754C110.979 90.2291 110.892 89.3662 110.955 88.5125C110.986 88.0801 110.978 87.6366 111.539 87.5214C111.699 87.4882 111.688 87.3674 111.678 87.2448C111.66 87.0383 111.756 86.9221 111.945 86.8207C112.644 86.4446 113.41 86.2676 114.165 86.0694C114.356 86.0187 114.62 86.0445 114.733 86.263C114.874 86.5395 114.623 86.6317 114.456 86.7497C113.915 87.1185 113.97 87.7556 113.946 88.2553C113.846 90.171 113.773 92.1052 114.434 93.9666Z" fill="#168395"/>
<path d="M123.717 85.4286C123.475 85.3991 123.214 85.4157 122.996 85.3281C122.684 85.1903 122.429 84.9481 122.276 84.6431C121.966 84.054 122.713 84.397 122.837 84.078C122.946 83.8014 123.327 83.6354 123.643 83.5101C124.652 83.109 124.968 82.6453 124.89 81.5805C124.864 81.2181 124.727 80.8641 124.706 80.5018C124.685 80.192 124.544 79.8002 124.997 79.6426C125.35 79.5199 126.104 79.7348 126.229 80.0353C126.598 80.9388 127.067 81.8709 126.945 82.8407C126.826 83.7931 126.16 84.5334 125.303 85.01C124.817 85.2774 124.297 85.4793 123.717 85.4286Z" fill="#4BB7CA"/>
<path d="M76.8357 156.504C76.8745 156.544 76.9519 156.612 76.9464 156.619C76.8616 156.737 76.809 156.659 76.762 156.58L76.8357 156.504Z" fill="#4BB7CA"/>
<path d="M93.1143 91.2635L93.1171 91.317L93.1069 91.2644L93.1143 91.2635Z" fill="#4BB7CA"/>
<path d="M43.6158 102.711C43.7138 102.7 43.8041 102.766 43.8232 102.862L43.6158 102.711Z" fill="#EEDDC5"/>
<path d="M127.465 128.181C127.441 128.252 127.434 128.341 127.404 128.35C127.314 128.37 127.224 128.32 127.192 128.234C127.149 128.151 127.149 128.039 127.26 128.037C127.328 128.033 127.398 128.131 127.465 128.181Z" fill="#4BB7CA"/>
<path d="M166.422 126.364L166.528 126.705C166.386 126.739 166.306 126.865 166.365 126.966C166.549 127.295 166.621 127.704 166.967 127.932L167.079 128.137C166.914 128.598 167.133 129.015 167.185 129.45C167.322 130.595 167.969 131.676 167.646 132.883C167.606 133.033 167.738 133.23 167.792 133.405C167.836 133.55 167.949 133.718 167.912 133.836C167.668 134.598 167.906 135.342 167.961 136.092C167.999 136.517 167.972 136.945 167.879 137.362C167.72 138.04 167.808 138.761 167.499 139.415C167.464 139.488 167.581 139.633 167.627 139.744C167.501 140.011 167.61 140.279 167.621 140.545C167.309 140.664 167.02 140.803 167.116 141.226C166.691 141.855 166.549 142.581 166.402 143.305C166.276 143.295 166.161 143.375 166.126 143.497C165.641 144.961 164.6 146.13 163.993 147.528C163.789 147.999 163.164 148.173 163.164 148.77C163.004 148.917 162.852 149.067 162.85 149.306C162.681 149.413 162.481 149.484 162.4 149.694C162.256 149.756 162.146 149.879 162.101 150.029C161.753 150.5 161.239 150.759 160.761 151.059C160.643 151.133 160.497 151.12 160.426 151.3C160.203 151.861 159.768 152.2 159.214 152.428C158.956 152.524 158.753 152.73 158.661 152.99L158.46 153.111C158.043 153.285 157.682 153.57 157.415 153.935L157.179 154.107C156.864 154.027 156.58 154.059 156.35 154.319C156.149 154.541 155.865 154.658 155.606 154.533C155.17 154.321 155.405 154.704 155.323 154.803C155.287 154.848 155.231 154.923 155.196 154.919C154.845 154.885 154.469 155.337 154.274 155.153C153.764 154.67 154.038 155.537 153.784 155.389C153.732 155.359 153.671 155.345 153.621 155.316C153.497 155.243 153.378 155.099 153.246 155.303C152.97 155.735 152.477 155.745 152.056 155.896C151.522 155.655 150.98 155.921 150.434 155.868C149.42 155.767 148.39 155.983 147.365 155.776C146.929 155.684 146.449 155.828 146.024 155.892C144.793 156.076 143.569 155.912 142.345 156.003C140.896 156.109 139.44 156.102 137.987 156.153C137.71 156.162 137.433 156.174 137.249 156.435C136.893 156.056 136.485 156.154 136.071 156.307L135.747 156.168C135.661 155.984 135.506 156.01 135.366 156.067C134.84 156.28 134.297 156.238 133.749 156.216C133.149 156.192 132.538 155.982 131.949 156.293C131.882 156.331 131.796 156.308 131.758 156.241C131.749 156.225 131.743 156.208 131.74 156.19C131.686 155.989 131.52 155.927 131.448 156.105C131.285 156.507 130.883 156.176 130.687 156.406C129.732 156.46 128.788 156.273 127.81 156.46C127.103 156.595 126.32 156.47 125.572 156.533C125.269 156.558 124.963 156.546 124.671 156.643C123.623 156.212 122.551 156.679 121.484 156.584C120.606 156.507 119.705 156.946 118.795 156.629C118.709 156.596 118.614 156.599 118.531 156.637C118.052 156.972 117.525 156.762 117.02 156.782C115.554 157.138 114.053 156.836 112.579 157.014C111.49 157.146 110.42 156.997 109.34 156.907C108.716 156.855 108.081 157.018 107.44 157.005C106.687 156.99 105.93 156.859 105.176 157.013C105.115 157.026 105.052 157.026 104.992 157.013C104.438 156.882 104.331 156.877 104.025 156.986C103.884 156.697 103.468 157.086 103.358 156.715C103.319 156.464 103.517 156.346 103.64 156.176C103.723 156.087 103.718 155.948 103.63 155.866C103.625 155.861 103.62 155.857 103.615 155.853C103.469 155.74 103.324 155.791 103.205 155.895C102.936 156.129 103.004 156.448 103.02 156.746V156.756C102.913 156.702 102.807 156.644 102.698 156.595C102.11 156.334 102.11 156.334 101.856 157.016L101.331 157.041C101.008 156.622 100.85 156.606 100.409 156.948L99.9476 156.918C99.9108 156.617 100.066 156.239 99.6241 156.098C99.5972 156.097 99.5714 156.109 99.5558 156.131C99.3834 156.515 99.7826 156.61 99.9172 156.84C99.932 156.865 99.9449 156.892 99.9587 156.918C99.906 156.927 99.8648 156.968 99.8564 157.021C99.058 156.871 98.2614 157.05 97.4594 157.043L96.9283 157.017C96.8358 156.943 96.7012 156.959 96.6278 157.051C96.6209 157.06 96.6148 157.069 96.6093 157.078C96.4019 156.975 96.3457 156.448 95.9575 156.846C95.9303 156.864 95.8969 156.87 95.8653 156.862C94.594 156.663 93.3346 157.017 92.067 156.945C92.2413 156.304 92.5695 155.715 93.023 155.229C93.8528 154.328 94.5838 153.339 95.5786 152.607C96.3908 152.011 96.7946 151.017 97.6991 150.511C98.4117 150.112 98.704 149.32 99.2083 148.727C99.6084 148.256 100.245 147.995 100.481 147.436C100.807 146.666 101.286 146.015 101.759 145.346C102.369 144.486 102.778 143.517 103.249 142.58C103.61 141.862 103.894 141.156 103.924 140.342C103.937 140.023 103.627 139.497 104.316 139.429C104.431 139.418 104.387 139.271 104.332 139.202C103.914 138.667 104.097 138.163 104.418 137.675C104.544 137.483 104.58 137.362 104.437 137.118C104.16 136.645 104.08 136.044 104.276 135.559C104.468 135.148 104.459 134.671 104.252 134.268C103.964 133.623 103.95 132.885 103.98 132.213C103.996 131.872 104.065 131.58 103.942 131.224C103.758 130.679 103.546 130.089 103.584 129.534C103.624 128.945 102.918 128.436 103.452 127.819C103.544 127.717 103.352 127.564 103.256 127.443C102.702 126.742 102.31 125.982 102.212 125.058C102.142 124.4 101.962 123.741 101.485 123.214C101.264 122.969 101.048 122.677 101.319 122.311C101.42 122.173 101.339 122.091 101.192 122.061C100.859 121.99 100.823 121.708 100.719 121.447C100.334 120.449 99.6895 119.566 99.4175 118.515C99.3539 118.27 99.1336 118.108 98.9372 117.97C98.6265 117.752 98.3416 117.551 98.3333 117.114C98.3287 116.887 98.1305 116.734 97.9646 116.602C97.6078 116.316 97.428 115.933 97.3294 115.51C97.2141 115.014 96.9375 114.618 96.6324 114.23C96.3162 113.826 95.9511 113.451 95.8026 112.939C95.574 112.146 95.2098 111.414 94.7996 110.704C94.0934 109.481 93.5135 108.19 93.2812 106.805C93.1696 106.141 92.752 105.527 92.8672 104.852C93.0018 104.065 92.6561 103.265 92.9769 102.492C93.0233 102.39 92.9783 102.27 92.8763 102.223C92.8605 102.216 92.8438 102.211 92.8266 102.208C92.692 102.176 92.5621 102.221 92.5289 102.35C92.4367 102.7 92.1804 102.917 91.9554 103.168C91.3027 103.894 90.6527 104.618 89.9548 105.308C88.6097 106.641 87.3808 108.092 86.0523 109.445C85.4991 110.01 84.9745 110.609 84.4371 111.189C83.587 112.105 82.7776 113.057 81.8898 113.944C81.5459 114.288 81.1181 114.552 80.8637 114.983C80.2515 116.019 79.2613 116.724 78.5173 117.657C77.8388 118.503 76.9427 119.168 76.2568 120.04C74.9403 121.728 73.2578 123.136 72.1745 125.035C71.9902 125.359 71.6721 125.467 71.3374 125.541C71.1595 125.58 70.9585 125.564 70.8009 125.64C69.9527 126.052 69.0492 126.121 68.1273 126.119C67.7271 126.119 67.4146 125.986 67.2892 125.582C67.3962 125.327 67.8184 125.229 67.8184 125.229C68.1079 124.705 68.5707 124.352 69.0068 123.965C69.189 123.799 69.3242 123.587 69.3986 123.351C69.583 122.736 69.8273 122.139 70.0375 121.535C70.4413 120.378 70.0569 119.31 69.6328 118.346C68.9681 116.834 67.6386 115.997 66.0299 115.602C64.7954 115.297 63.761 115.596 62.7976 116.415C61.6101 117.429 60.9196 118.635 60.9417 120.22C60.9417 120.448 61.0136 120.714 60.7407 120.958C60.2798 120.649 59.7331 120.521 59.3578 120.006C59.1301 119.692 58.848 119.422 58.6673 119.061C58.3115 118.347 57.6772 117.829 57.2844 117.133C57.1065 116.818 56.6538 116.842 56.3846 116.545C55.8914 116 55.4415 115.398 54.8957 114.92C53.4409 113.645 52.2073 112.172 50.9314 110.737C50.5884 110.353 50.1588 110.068 49.8463 109.631C49.1585 108.674 48.5832 107.609 47.5414 106.952C47.3882 106.848 47.2618 106.709 47.1727 106.547C46.4619 105.29 45.2606 104.508 44.264 103.528L43.8279 102.858C43.8088 102.761 43.7185 102.695 43.6205 102.706C42.5307 101.692 41.8504 100.332 40.7625 99.3165C40.4075 98.9855 40.3873 98.4868 40.1475 98.0968C40.2423 97.9792 40.248 97.813 40.1614 97.6893C40.1909 97.6324 40.1762 97.5626 40.1263 97.5224C40.0858 97.327 40.071 97.1223 39.9337 96.9601C39.9927 96.0593 39.693 95.1162 40.1457 94.2662C40.4223 93.749 40.5587 93.1009 41.193 92.8335C41.4263 92.8501 41.4973 92.7229 41.4788 92.5145L41.9481 92.1457C42.2486 92.2481 42.5667 92.2453 42.8138 92.0674C43.2369 91.7613 43.6592 91.8599 44.1045 91.9604C44.5111 92.0526 44.9287 92.0923 45.256 92.4094C45.3749 92.5246 45.5326 92.3956 45.669 92.3412C46.177 92.7597 46.791 92.851 47.4004 92.7763C48.2781 92.6685 49.1438 92.5532 50.0214 92.7607C50.3312 92.8344 50.5571 92.4675 50.8825 92.5551C51.1019 92.6473 51.3186 92.6722 51.5279 92.5357C51.7786 92.5883 51.9529 92.4527 52.1198 92.2969C52.3788 92.5302 52.6277 92.8058 53.015 92.5163L53.5976 92.462C54.4605 92.5495 55.3225 92.5855 56.179 92.3698L56.5542 92.3541C56.8419 92.4546 57.1286 92.497 57.4116 92.3412C57.8542 92.249 58.3778 92.6178 58.7291 92.2647C59.0453 91.9448 58.7199 91.4534 58.7752 91.0459C58.8554 90.4586 58.6747 89.84 58.9881 89.2822C59.3744 89.0868 59.2739 88.7945 59.1458 88.4958L59.3081 88.0828C59.6234 88.045 59.6353 87.8228 59.6132 87.5803C59.7534 87.4282 59.876 87.254 60.0816 87.1793L60.1166 87.2447L60.1028 87.1774L60.431 86.8483L60.419 86.8612L61.1436 86.1808C61.2358 86.1347 61.376 86.1928 61.4359 86.061L61.4949 86.0287C62.1024 85.8766 62.2269 85.9301 62.7976 85.647C63.1329 85.6667 63.1749 89.3666 63.5 89.2822C63.6927 89.3818 63.8433 92.0849 64 91.9604L64.5 93.961C64.9379 94.0597 64.0658 97.7574 64.5 97.6062L65.5 101.106C66.1832 101.465 65.3089 104.08 66.0299 104.106C65.5302 104.036 66.9453 108.192 66.5 108.106L67.2892 112.106C67.3611 111.822 67.4718 115.107 67.2892 114.92C67.2929 114.131 67.2855 116.823 67.2892 116.034C67.3368 116.01 68.2426 116.655 68.2486 116.602C68.4008 116.51 69.0344 117.468 69.0068 117.324L69.6328 118.346C70.0375 119.417 70.0141 119.472 70.0375 119.417C70.4496 119.11 70.0375 120.8 69.8478 122.061L69.3986 123.351C69.0068 123.965 67.8184 125.229 67.8184 125.229C68.8184 125.229 68.0224 127.493 69.8478 125.968C71.3478 125.029 72.0654 125.222 72.1745 125.035C73.2386 123.214 73.037 123.382 74.2616 122.311C75.5048 120.611 81.8898 113.944 83.6025 112.106C86.0523 109.445 88.3813 106.952 91.1059 104.106C91.9554 103.168 91.1059 104.106 92.5289 102.35C92.4957 102.479 92.5289 102.35 91.9554 101.106C90.5 100.606 88.6017 100.092 89 100.106C89.3983 100.12 87.0554 98.9689 87.2998 99.3165C87.2334 99.4299 85.9241 98.0433 86.0523 98.0968L84.4371 96.9601C84.449 97.1444 83.336 95.8877 83.6025 96.1062L83 94.2662C82.8341 94.2948 83.4568 92.1135 83.6025 92.2647C83.5619 92.7256 84.6399 90.7446 84.4371 91.1917C84.331 91.2544 85.3857 90.7195 85.5 90.8348C85.5 91.009 86.1712 90.9527 86.0523 91.0938L86.6387 90.8348C86.3354 91.0394 87.663 90.678 87.2998 90.8347C88.0456 91.411 88.2505 91.5004 89 91.5631C90.039 91.6553 89.3483 91.7327 90.3596 91.5631C90.8999 91.4709 91.466 91.5935 91.985 91.351L93.1245 91.2588L93.1337 91.3114V91.2579L93.5947 91.0938C93.7339 91.1528 93.9054 91.2976 94.0059 91.2579C94.8983 90.9131 95.8608 91.1371 96.7606 90.8891C97.075 91.1169 97.3968 90.9952 97.7176 90.9085C98.622 91.0579 99.5255 91.245 100.448 91.0532L100.809 90.9269C101.05 90.9744 101.297 90.9744 101.538 90.9269C102.232 90.8382 102.932 90.8073 103.632 90.8347C104.975 90.8606 106.31 90.9933 107.647 91.1113L108.028 91.091L108.094 91.139L108.175 91.1316C108.371 91.2146 108.561 91.1777 108.752 91.1132L109.495 91.1676L109.825 91.1869C109.927 91.2916 110.095 91.2937 110.199 91.1917C110.201 91.1902 110.203 91.1886 110.204 91.1869L110.596 91.1242C110.653 91.2608 110.774 91.3606 110.919 91.3916C110.939 91.7853 110.939 92.1808 110.983 92.5707C111.087 93.4816 111.636 93.9629 112.551 93.9665C113.185 93.9665 113.819 93.9665 114.453 93.961C115.099 94.2874 115.783 94.1454 116.436 94.0799C118.933 93.8421 121.438 93.8034 123.941 93.7729C127.215 93.7333 130.487 93.6227 133.756 93.513C134.754 93.4828 135.75 93.3938 136.737 93.2465C137.316 93.1543 137.739 92.8197 138.24 92.615C138.466 92.5228 138.517 92.3274 138.541 92.0941C138.707 90.537 138.711 90.536 140.185 90.158C140.276 90.1413 140.368 90.131 140.461 90.1276L140.539 90.2549L140.616 90.1332L145.4 90.0797L145.668 89.9774C146.573 90.3332 147.495 89.9626 148.411 90.0262C148.872 90.0585 149.355 90.0161 149.828 90.0659H150.03C150.042 90.1007 150.076 90.1221 150.113 90.1166L150.128 90.241V90.1147C150.825 90.0124 151.565 90.2991 152.226 89.8769L152.438 89.8833C152.738 90.1995 152.986 89.9054 153.252 89.816C153.38 90.1368 153.621 90.1912 153.925 90.1037L155.339 90.5231C155.419 90.7204 155.497 90.9177 155.769 90.7536C155.934 90.8172 156.161 90.8126 156.23 91.0016C156.414 91.5022 156.928 91.529 157.285 91.7779C157.305 92.0194 157.303 92.272 157.607 92.355C158.077 92.887 157.958 93.6236 158.253 94.2164L158.194 94.4008L158.119 94.7262C157.86 95.0314 158.097 95.3817 158.027 95.7044C157.957 96.0271 157.855 96.3258 157.955 96.6503C157.789 96.6697 157.563 96.5221 157.494 96.8153C157.484 97.3012 157.049 97.5197 156.828 97.8719C156.738 97.903 156.675 97.9851 156.669 98.0802L156.659 98.0922C156.082 98.1014 155.641 98.7154 154.958 98.4195C154.798 98.3503 154.483 98.8095 154.11 98.8343C153.708 98.8611 153.645 99.063 153.808 99.4631C154.204 100.433 154.725 101.404 154.332 102.505C154.278 102.659 154.374 102.63 154.405 102.69C154.983 103.724 155.38 104.819 155.467 106.009C155.508 106.556 155.49 107.115 155.853 107.583C155.975 107.742 155.97 107.899 155.882 108.091C155.644 108.617 155.761 108.973 156.288 109.468C156.317 109.517 156.37 109.548 156.428 109.549C156.563 109.826 156.847 109.996 156.938 110.303C157.335 111.645 158.229 112.694 159.004 113.814L159.178 114.118C159.208 114.594 159.647 114.676 159.935 114.903C159.941 115.081 159.916 115.264 160.027 115.422C160.274 116.528 160.71 117.528 161.502 118.372C161.719 118.602 162.188 118.833 161.938 119.326C161.873 119.456 161.961 119.566 162.076 119.62C162.805 119.965 163.224 120.528 163.351 121.329C163.388 121.512 163.489 121.675 163.635 121.79C164.205 122.215 164.144 123.13 164.906 123.401C164.968 123.423 165.016 123.555 165.025 123.641C165.105 124.392 165.699 124.931 165.845 125.669C165.887 125.881 165.982 126.15 166.25 126.248L166.296 126.283C166.299 126.334 166.343 126.373 166.393 126.37C166.403 126.37 166.413 126.368 166.422 126.364ZM127.465 128.181C127.4 128.132 127.328 128.035 127.259 128.037C127.149 128.037 127.149 128.151 127.191 128.234C127.223 128.32 127.313 128.37 127.403 128.35C127.434 128.339 127.441 128.251 127.465 128.181ZM104.017 156.383L104.003 156.322L103.985 156.383H104.017Z" fill="#168395"/>
<path d="M135.566 86.2648C136.454 86.357 137.426 86.5193 138.009 87.1969C138.456 87.7169 138.574 88.4351 138.675 89.1145C138.86 90.3591 138.998 91.7798 138.175 92.7313C137.366 93.6652 135.972 93.7454 134.737 93.7767C130.397 93.872 126.064 94.1277 121.738 94.5438C120.524 94.6609 119.305 94.7899 118.09 94.6987C116.875 94.6074 115.715 94.305 114.556 93.9749C114.279 93.8975 113.997 93.809 113.808 93.5979C113.599 93.3628 113.555 93.0281 113.522 92.7147C113.195 89.6621 112.457 86.499 116.282 86.0887C120.291 85.6582 124.499 85.7624 128.527 85.8407C130.878 85.8859 133.228 86.0113 135.566 86.2648Z" fill="#4BB7CA"/>
<path d="M120.291 82.5771C120.339 82.891 120.453 83.1913 120.625 83.4585C120.921 83.8881 121.409 84.1407 121.891 84.3407C124.493 85.4231 127.146 82.0949 125.026 80.0187C123.003 78.0384 119.785 79.8509 120.291 82.5771Z" fill="#EEDDC5"/>
</g>
<defs>
<clipPath id="clip0">
<rect width="200" height="200" fill="white"/>
</clipPath>
</defs>
</svg>
