<svg width="200" height="200" viewBox="0 0 200 200" fill="none" xmlns="http://www.w3.org/2000/svg">
<path d="M79.8687 156.549C78.3615 156.285 76.8405 155.644 75.4024 156.786C73.7569 154.599 71.6689 157.232 69.7054 156.229C68.295 155.567 66.6495 155.662 65.3221 156.48C63.7734 157.427 61.796 154.947 60.2612 156.939C58.7816 155.324 56.8457 156.939 55.2417 156.243C53.6156 155.496 51.8056 155.254 50.0426 155.546C49.4756 155.63 46.4336 155.922 46.4336 153.29C44.47 153.443 44.2903 151.02 42.7831 150.686C41.663 150.435 41.6354 149.683 41.4003 148.903C41.9672 147.928 40.3218 146.827 41.6492 145.811C43.4191 144.418 43.8754 142.106 44.2626 140.24C44.8572 137.454 46.5165 135.351 47.7195 133.081C49.4065 129.877 51.0658 126.604 52.7528 123.331C53.3474 122.203 54.7439 121.688 54.8407 120.434C55.1657 118.381 55.9663 116.434 57.1776 114.752C58.9337 111.868 60.1505 108.637 62.2385 105.963C62.775 105.346 63.2383 104.668 63.6213 103.943C65.2529 100.489 67.5345 97.3973 69.2906 93.985C70.6734 91.1994 71.7934 88.1213 73.909 85.6282C75.2918 83.9569 75.8449 81.7423 76.8958 79.8481C78.4445 77.0626 80.2974 74.4998 82.0397 71.8535C83.1154 70.0777 84.0405 68.2141 84.8052 66.2823C85.3444 65.0428 86.741 65.1403 86.9623 63.9703C87.2941 62.2154 87.709 60.5301 89.7278 59.9034C90.1565 59.7641 89.9629 59.4994 89.7278 59.2627C88.9949 58.4688 89.8523 58.1067 90.0458 57.4938C90.8202 55.0147 93.5304 55.5439 94.7334 54.1511C96.3374 52.2987 98.3286 52.0759 100.389 51.7973C101.191 51.6859 101.965 50.9199 102.988 51.9505C103.597 52.5633 103.555 50.4184 104.938 50.4742C105.996 50.5842 107.066 50.5243 108.105 50.2931C110.827 49.6872 113.632 49.541 116.401 49.8613C117.037 49.8613 117.784 50.1956 118.296 49.5549C118.807 48.9142 119.499 48.9142 120.384 49.346C122.14 50.2095 124.103 49.1649 125.915 49.5688C127.26 49.8627 128.665 49.6552 129.869 48.9839C130.45 48.6914 130.865 48.6217 131.252 48.9839C132.289 50.0145 133.658 49.5967 134.806 49.9588C136.811 50.5995 138.47 49.2206 140.613 49.5967C143.91 50.0326 147.231 50.2374 150.555 50.2095C153.929 50.307 157.082 50.4045 160 52.2151L160.456 53.1344C160.406 53.1678 160.361 53.204 160.318 53.2458C160.318 53.2458 160.318 53.3155 160.318 53.3572L160.428 53.1065L161.382 53.3572C163.105 55.1595 164.155 57.5064 164.355 60.0009C164.673 62.7029 165.489 66.5191 163.277 68.3576C161.728 69.639 162.793 71.3939 161.161 72.4246C160.041 73.1349 159.557 75.2101 158.907 76.6029C157.551 79.4763 156.027 82.2674 154.344 84.9597C152.332 88.2146 150.486 91.5713 148.813 95.0156C146.946 95.0992 145.439 95.4474 144.914 97.7316C144.311 99.4781 143.371 101.087 142.148 102.467C141.792 102.87 141.298 103.123 140.766 103.177C136.783 104.166 132.704 103.275 128.597 104.138C125.092 104.754 121.483 104.166 118.351 102.467C116.685 101.636 114.673 102.023 113.428 103.414C112.046 104.807 112.488 106.2 114.355 106.799C115.143 107.049 116.457 106.604 116.581 108.191C116.581 108.512 117.452 108.86 117.604 107.927C117.604 107.593 117.604 106.952 118.13 107.481C118.655 108.01 119.43 108.247 119.609 109.069C119.706 109.487 119.609 109.724 119.194 109.891C117.589 110.517 115.808 110.517 114.203 109.891C112.236 108.799 109.772 109.32 108.409 111.116C107.676 112.049 107.524 113.721 108.575 113.707C110.511 113.707 111.672 115.42 113.456 115.267C114.839 115.155 114.728 115.991 114.479 116.841C113.968 118.582 112.129 119.236 109.377 118.735C107.897 118.47 104.717 120.796 104.648 122.259C104.648 122.802 104.8 122.983 105.477 123.22C107.897 124.055 110.663 124.083 112.585 126.145C113.067 126.528 113.323 127.131 113.262 127.746C113.096 128.582 112.364 128.443 111.88 128.415C111.224 128.521 110.558 128.521 109.902 128.415C106.528 127.231 104.772 128.025 103.224 131.061C102.684 132.106 102.892 132.287 103.943 132.454C105.325 132.719 106.916 132.551 108.091 132.914C110.249 133.494 112.481 133.758 114.714 133.693C118.863 133.693 122.914 133.833 127.007 133.902C125.514 134.78 125.14 136.507 124.145 137.774C120.674 142.176 118.13 147.217 114.839 151.702C113.995 152.858 113.179 154.488 111.119 153.791C110.455 153.583 110.096 154.599 109.515 154.892C108.547 155.379 107.676 156.758 106.404 155.365C106.169 155.092 105.758 155.063 105.487 155.3C105.464 155.321 105.443 155.342 105.422 155.365C103.1 157.436 99.7431 157.825 97.015 156.34C96.5407 156.13 96.0249 156.035 95.5077 156.062C91.3678 156.429 87.2029 156.429 83.0629 156.062C81.9802 156.066 80.903 156.229 79.8687 156.549ZM118.71 65.6695C117.881 63.065 117.715 59.8894 113.76 58.4966C111.704 57.8323 109.54 57.5676 107.386 57.7167C103.472 57.7167 99.6975 61.0733 99.7528 65.0149C99.645 66.7963 99.7667 68.5846 100.112 70.3354C101.149 74.263 106.307 77.564 109.875 75.9065C111.369 75.3898 112.813 74.738 114.189 73.9566C117.098 72.2463 118.838 69.0596 118.71 65.6695Z" fill="#55B8CA"/>
<path d="M159.931 52.2709C157.013 50.4603 153.874 50.3628 150.486 50.2653C147.162 50.2931 143.841 50.0884 140.544 49.6524C138.387 49.2764 136.728 50.6552 134.737 50.0146C133.589 49.6524 132.22 50.0146 131.183 49.0396C130.796 48.6636 130.395 48.7193 129.8 49.0396C128.596 49.7109 127.191 49.9185 125.845 49.6246C124.062 49.2346 122.084 50.2653 120.314 49.4017C119.429 48.97 118.849 48.8864 118.226 49.6107C117.604 50.3349 116.968 49.9171 116.332 49.9171C113.591 49.6552 110.826 49.8488 108.146 50.4881C107.108 50.7193 106.037 50.7792 104.98 50.6692C103.597 50.6692 103.597 52.7584 103.03 52.1455C102.007 51.1009 101.232 51.8809 100.43 51.9923C98.37 52.2709 96.3788 52.4937 94.7748 54.3461C93.5718 55.7389 90.8616 55.1958 90.0873 57.6888C89.8937 58.3017 89.0364 58.6777 89.7692 59.4577C89.9766 59.6945 90.1841 59.9591 89.7692 60.0984C87.778 60.7251 87.3632 62.4104 87.0037 64.1653C86.7825 65.3353 85.3859 65.2378 84.8466 66.4774C84.0819 68.4092 83.1569 70.2727 82.0811 72.0485C80.3388 74.6948 78.4859 77.2576 76.9372 80.0432C75.8725 81.9373 75.3885 84.2215 73.9504 85.8232C71.8348 88.2885 70.7839 91.3944 69.332 94.18C67.5759 97.5923 65.2944 100.684 63.6627 104.138C63.2797 104.863 62.8164 105.541 62.2799 106.158C60.192 108.846 58.9751 112.063 57.219 114.947C56.0077 116.629 55.2071 118.576 54.8822 120.629C54.7854 121.883 53.3888 122.398 52.7942 123.526C51.1072 126.743 49.4479 130.017 47.7609 133.276C46.5579 135.546 44.8986 137.663 44.304 140.435C43.9169 142.259 43.4606 144.613 41.6906 146.006C40.3079 147.023 42.0087 148.109 41.4417 149.098C39.7409 147.399 37.6806 145.964 37.6806 143.137C37.6364 142.628 37.3806 142.162 36.9754 141.855C35.6562 140.936 35.3272 139.114 36.2384 137.786C36.2868 137.714 36.3393 137.645 36.3946 137.579C37.4566 136.214 38.2199 134.639 38.6347 132.955C40.0175 127.774 43.5988 123.819 45.5485 118.93C46.5248 116.821 47.6517 114.786 48.9225 112.843C50.2914 110.951 51.2953 108.814 51.8816 106.548C52.1166 105.155 53.776 103.985 54.2737 102.37C55.4353 100.684 56.1405 98.7483 57.3297 97.0631C61.63 90.9487 64.4509 83.9569 68.5992 77.7311C69.6487 76.3829 70.4825 74.8801 71.0743 73.2742C71.7795 70.5722 73.8398 68.7894 74.7939 66.4495C75.5406 64.7224 77.5594 63.6639 77.4073 61.5747C78.7901 60.7948 78.9284 59.1513 79.7442 57.9674C80.8366 56.3936 81.9981 54.764 82.9937 53.1205C83.7404 51.4408 84.5811 49.8029 85.5103 48.2179C86.1049 47.4518 86.3815 46.0451 87.9578 46.7276C88.1929 46.8251 88.7598 46.3655 89.0778 46.059C91.3926 43.7359 94.7168 42.7456 97.9137 43.4267C98.8263 43.5938 98.854 42.1731 99.9878 42.0339C103.79 41.5603 107.552 40.7246 111.437 41.1146C111.81 41.1146 112.267 41.3375 112.543 41.1843C115.516 39.5965 118.544 41.5882 121.517 41.0171C121.794 41.0171 122.167 41.1703 122.389 41.0171C125.154 39.5547 127.92 41.1843 130.602 41.421C130.963 41.4169 131.321 41.3403 131.653 41.1982C134.847 40.46 138 41.0032 141.194 41.1982C144.023 41.6188 146.897 41.6188 149.726 41.1982C152.284 41.616 154.137 43.3292 155.907 44.9448C157.967 46.839 158.963 49.5967 159.931 52.2709Z" fill="#E86166"/>
<path d="M126.979 133.93C122.831 133.861 118.78 133.735 114.687 133.721C112.453 133.785 110.222 133.522 108.063 132.941C106.86 132.579 105.298 132.746 103.915 132.482C102.864 132.287 102.657 132.106 103.196 131.089C104.745 128.053 106.501 127.259 109.875 128.443C110.53 128.549 111.196 128.549 111.852 128.443C112.405 128.443 113.138 128.61 113.235 127.774C113.296 127.159 113.04 126.555 112.557 126.172C110.635 124.111 107.87 124.083 105.45 123.248C104.772 123.011 104.592 122.83 104.62 122.287C104.703 120.894 107.87 118.498 109.349 118.763C112.115 119.264 113.94 118.61 114.452 116.869C114.7 116.019 114.839 115.183 113.428 115.295C111.645 115.434 110.469 113.707 108.547 113.735C107.496 113.735 107.662 112.077 108.381 111.144C109.745 109.347 112.209 108.827 114.175 109.919C115.78 110.545 117.561 110.545 119.167 109.919C119.651 109.751 119.678 109.501 119.582 109.097C119.388 108.275 118.6 108.024 118.102 107.509C117.604 106.994 117.618 107.607 117.577 107.955C117.424 108.888 116.567 108.54 116.553 108.219C116.443 106.632 115.171 107.077 114.327 106.827C112.447 106.228 111.976 104.863 113.401 103.442C114.645 102.051 116.657 101.663 118.323 102.495C121.455 104.194 125.064 104.782 128.57 104.166C132.718 103.303 136.755 104.166 140.738 103.205C141.27 103.151 141.764 102.897 142.121 102.495C143.343 101.115 144.283 99.506 144.886 97.7595C145.412 95.4892 146.919 95.1271 148.785 95.0435C150.652 97.9545 150.459 101.019 149.546 104.18C148.503 108.295 147.078 112.3 145.287 116.144C144.457 117.774 142.895 119.222 142.369 120.754C141.386 123.111 139.98 125.264 138.221 127.106C136.736 129.166 134.738 130.795 132.427 131.827C130.616 132.524 128.528 132.593 126.979 133.93ZM123.799 104.18L123.647 103.902C123.647 103.902 123.522 103.999 123.522 104.041C123.553 104.138 123.594 104.232 123.647 104.32L123.799 104.18Z" fill="#E86166"/>
<path d="M161.286 53.3851L160.332 53.1344L159.875 52.2152C160.829 52.0341 160.912 52.8837 161.286 53.3851Z" fill="#E86166"/>
<path d="M118.71 65.6695C118.832 69.0456 117.108 72.217 114.216 73.9288C112.841 74.7101 111.397 75.362 109.902 75.8787C106.321 77.564 101.163 74.263 100.14 70.3075C99.7943 68.5568 99.6726 66.7684 99.7805 64.987C99.7805 61.0454 103.486 57.7585 107.413 57.6888C109.568 57.5398 111.732 57.8044 113.788 58.4688C117.715 59.8894 117.881 63.065 118.71 65.6695ZM113.414 67.2712C113.334 65.7015 112.806 64.1876 111.893 62.9118C111.008 61.7001 110.151 62.675 109.404 62.4104C106.639 61.4911 105.671 61.9368 104.33 64.5274C103.376 66.352 104.122 68.1208 104.053 69.9036C103.963 70.8201 104.55 71.6655 105.436 71.8953C106.667 72.3549 107.745 73.5109 109.322 72.4803C111.303 71.341 112.77 69.4746 113.414 67.2712Z" fill="#163847"/>
<path d="M160.318 53.1344L160.207 53.3851C160.207 53.3851 160.207 53.3015 160.207 53.2737C160.25 53.2319 160.296 53.1957 160.345 53.1623L160.318 53.1344Z" fill="#E86166"/>
<path d="M123.799 104.18L123.647 104.306C123.594 104.218 123.553 104.124 123.522 104.027C123.522 104.027 123.605 103.93 123.647 103.888L123.799 104.18Z" fill="#55B8CA"/>
<path d="M113.414 67.2712C112.76 69.49 111.271 71.3633 109.266 72.4942C107.69 73.5249 106.597 72.3549 105.381 71.9092C104.494 71.6794 103.908 70.834 103.998 69.9175C103.998 68.1208 103.334 66.3659 104.274 64.5414C105.657 61.9508 106.653 61.5051 109.349 62.4243C110.11 62.675 110.953 61.714 111.838 62.9257C112.767 64.1904 113.315 65.7002 113.414 67.2712Z" fill="#55B8CA"/>
</svg>
