<svg width="200" height="200" viewBox="0 0 200 200" fill="none" xmlns="http://www.w3.org/2000/svg">
<g clip-path="url(#clip0)">
<path d="M167.288 81.4138C166.757 82.2604 166.068 83.011 165.814 84.0156C165.718 84.3993 165.249 84.2865 165.012 84.6533C164.498 85.6206 163.877 86.5276 163.16 87.3566C162.313 88.2709 161.827 89.4843 160.901 90.2575C160.274 90.7824 159.936 91.4935 159.337 92.024C158.705 92.6583 158.137 93.3542 157.643 94.1009C156.341 95.781 154.952 97.3917 153.481 98.9263C153.148 99.2875 153.216 100.1 152.408 99.976C152.617 100.416 152.233 100.54 152.024 100.823C151.352 101.731 150.556 102.516 149.895 103.453C149.235 104.389 148.365 105.213 147.636 106.105C146.388 107.584 145.011 108.955 143.684 110.366C142.52 111.515 141.289 112.593 139.996 113.594C139.282 114.133 138.649 114.772 138.116 115.491C137.744 116.024 137.328 116.527 136.873 116.992C135.744 118.171 134.614 119.3 133.389 120.378C131.726 121.77 130.137 123.25 128.629 124.808C127.974 125.542 126.906 126.027 126.229 126.744C125.399 127.63 124.343 128.149 123.479 128.951C122.349 130.001 121.062 130.881 119.842 131.835C119 131.445 118.408 130.706 117.651 130.215C117.505 129.459 116.773 128.965 116.017 129.111C115.829 129.147 115.651 129.221 115.494 129.329C115.296 129.476 115.245 129.809 114.969 129.859C114.326 130.072 113.745 130.436 113.274 130.92C112.332 131.724 111.348 132.478 110.327 133.178C110.112 133.308 109.841 133.268 109.638 133.477C108.706 134.453 107.452 134.99 106.396 135.791C105.741 136.293 104.827 136.671 104.448 137.236C103.974 137.941 103.279 138.207 102.754 138.714C101.625 139.787 100.332 140.729 99.1287 141.751C98.4228 142.349 97.6774 142.919 96.9377 143.444C96.1979 143.969 95.3622 144.68 94.5885 145.329C94.0238 145.82 93.5438 146.458 92.9339 146.864C92.1434 147.392 91.8091 148.387 92.1208 149.285C92.2732 149.759 92.9057 150.098 92.5895 150.719C91.9824 150.707 91.381 150.83 90.8276 151.08C89.9636 151.408 89.0161 151.446 88.1284 151.187C87.5761 151.012 87.0091 150.887 86.4343 150.815C85.8199 150.749 85.2484 150.469 84.8192 150.024C84.6329 149.833 84.39 149.748 84.2037 149.579C83.6785 149.532 83.1742 149.349 82.7411 149.048C82.6169 148.93 82.5999 148.67 82.3967 148.67C81.6004 148.67 81.239 147.936 80.6348 147.603C80.0441 147.306 79.4777 146.962 78.9407 146.576C78.6075 146.317 78.2913 145.888 77.7605 145.961C77.4725 145.831 77.2918 145.538 77.0433 145.397C75.8348 144.765 75.1007 143.427 73.6551 143.139C73.6551 142.174 72.2321 142.744 72.0909 141.706C72.0457 141.395 71.2608 140.921 70.7808 140.577C69.962 139.956 69.4199 139.036 68.5728 138.415C67.9522 137.982 67.4146 137.441 66.986 136.818C66.5455 136.13 65.9074 135.599 65.5291 134.832C65.2541 134.326 64.8678 133.89 64.3997 133.556C63.9547 133.232 63.6012 132.798 63.3719 132.298C62.9766 131.383 62.2425 130.7 61.7569 129.871C61.2712 129.041 60.4411 128.178 59.8651 127.309C58.956 125.931 58.3913 124.329 57.4765 122.923C57.2653 122.632 57.1309 122.292 57.0868 121.936C57.0727 121.576 56.888 121.245 56.5899 121.044C56.6181 120.712 56.6029 120.379 56.5447 120.051C56.1494 118.792 55.6807 117.573 55.4153 116.258C55.1838 115.175 55.1273 114.046 54.7941 112.979C54.7941 111.687 54.7603 110.4 54.8732 109.102C54.9105 108.35 55.055 107.606 55.3024 106.895L56.9626 107.595C56.9287 107.979 57.2562 107.979 57.4765 108.03C58.1789 108.1 58.8323 108.42 59.3174 108.933C59.5235 109.098 59.7957 109.157 60.0515 109.091C60.8929 108.978 61.3559 108.363 61.9884 107.962C62.8411 107.361 63.6492 106.699 64.4053 105.981C65.1168 105.366 65.7041 104.593 66.4721 104.023C67.4491 103.306 68.4881 102.662 69.5215 102.042C70.1229 101.586 70.7531 101.17 71.4076 100.794C71.7125 100.665 71.4076 100.309 71.7408 100.332C72.2146 100.395 72.6641 100.102 72.7968 99.643C72.9182 99.4477 73.104 99.2999 73.3219 99.2254C73.8053 99.0041 74.226 98.6666 74.5473 98.2434C74.6433 98.1136 74.8861 97.933 74.9596 97.9668C75.6711 98.3224 75.9139 97.5323 76.089 97.3009C76.7666 96.4938 77.6927 95.9915 78.3873 95.207C78.8786 94.6427 79.799 94.2476 80.1548 93.7058C80.6461 92.9552 81.431 92.7182 81.928 92.0974C82.6169 91.2282 83.7237 90.7993 84.2997 89.7947C84.4352 89.5577 84.39 89.2304 84.6555 89.061C84.9209 88.8917 85.6098 88.8522 85.0903 88.1524C84.87 87.8589 84.9717 87.3284 84.4465 87.2043C84.3731 87.0406 84.2715 86.9164 84.0625 86.9785C83.9134 86.395 83.5373 85.8949 83.0178 85.5902C82.3571 85.0258 81.4705 85.1274 80.759 84.6872C80.7009 84.5066 80.7856 84.3113 80.9567 84.23C82.2781 83.6995 83.1533 82.6046 84.2037 81.7186C84.7684 81.2276 85.254 80.5052 85.8131 80.1835C86.694 79.6812 87.3039 78.8064 88.3429 78.4904C88.7947 78.3606 89.1109 77.7454 89.574 77.4293C90.5848 76.7352 91.5787 76.0241 92.5782 75.3186C93.9504 74.3479 95.5711 73.744 96.8473 72.6943C98.1235 71.6445 99.6708 71.2664 100.8 70.1659C101.139 69.8442 101.404 69.3363 102.026 69.6015C102.071 69.6015 102.184 69.5564 102.223 69.4999C102.873 68.6082 103.867 68.2752 104.815 67.835C105.269 67.5726 105.693 67.2622 106.08 66.9095C107.046 66.1701 108.107 65.6001 109.101 64.9229C110.338 64.0876 111.682 63.4329 112.896 62.5694C113.75 61.9656 114.643 61.417 115.567 60.9271C116.132 60.6336 116.798 60.6167 117.261 60.1088C117.916 59.5297 118.685 59.0946 119.52 58.8333C119.678 58.7712 119.893 58.664 119.893 58.4721C119.893 58.1448 119.893 58.2068 120.192 58.3254C120.638 58.5116 120.971 57.9811 121.248 57.761C122.586 56.8241 124.012 56.0193 125.506 55.3568C126.545 54.894 127.765 54.6344 128.668 54.0531C129.572 53.4718 130.645 53.6072 131.446 52.9243C131.802 52.6365 132.31 52.6929 132.751 52.5123C133.694 52.1286 134.479 51.4287 135.495 51.203C135.648 51.1691 135.817 51.0675 135.941 51.107C136.704 51.3554 137.043 50.9377 137.263 50.0573C137.421 50.6499 137.506 51.0506 137.963 50.4806C138.138 50.2605 138.635 50.3 138.985 50.221C139.177 50.87 138.985 51.6996 139.855 52.0326C139.862 52.0958 139.853 52.1602 139.827 52.2189C139.431 52.2809 139.731 52.422 139.753 52.5744C139.827 53.1388 139.99 53.6636 140.052 54.1942C140.182 55.2326 140.352 56.2654 140.499 57.3038C140.549 57.665 140.99 57.8344 140.922 58.0319C140.645 58.7994 141.346 59.2509 141.487 59.8943C141.634 60.6336 142.385 61.2262 142.616 62.0276C142.718 62.3775 143.017 62.2872 143.181 62.4001C143.525 62.6146 142.74 62.8008 143.017 63.1451C143.017 63.1451 143.017 63.1959 143.051 63.2128C143.704 63.8297 144.181 64.6091 144.435 65.4703C144.751 66.5313 146.129 66.7176 146.394 67.8971C146.515 68.396 146.944 68.7606 147.456 68.8001C147.456 70.0586 148.811 70.4086 149.234 71.4018C149.436 71.8449 149.742 72.2326 150.127 72.5306C151.002 73.2078 151.764 74.0149 152.611 74.7204C153.317 75.2847 153.989 76.1087 154.78 76.4135C155.734 76.7803 156.333 77.8695 157.502 77.7115C157.739 78.2759 158.439 77.9203 158.569 78.0614C159.03 78.614 159.668 78.9893 160.376 79.1225C161.296 79.2918 162.008 79.969 162.895 80.2512C164.368 80.8099 165.871 80.9397 167.288 81.4138ZM65.9244 129.464C65.7606 130.157 66.0328 130.88 66.6133 131.293C67.6185 131.965 68.7874 132.371 69.8321 133.02C70.6114 133.505 71.5262 133.776 72.0344 134.617C72.2095 134.894 72.5144 135.046 72.7403 134.781C73.2768 134.149 74.0335 133.799 74.5925 133.206C74.7676 133.02 74.7619 132.681 75.0273 132.591C76.0212 132.252 76.5633 131.327 77.4273 130.791C78.2969 130.248 79.1084 129.619 79.8499 128.911C81.064 127.749 82.7411 127.218 83.8762 125.965C83.9835 125.847 84.2037 125.836 84.3618 125.751C84.9384 125.517 85.4895 125.224 86.0051 124.876C86.6658 124.312 87.4112 123.871 88.1001 123.358C89.077 122.624 90.2347 122.111 91.1269 121.298C92.2563 120.26 93.6681 119.605 94.8088 118.589C95.2718 118.171 95.6332 117.46 96.4181 117.46C96.5028 117.46 96.6045 117.229 96.6553 117.088C96.7061 116.947 96.6553 116.766 96.8812 116.749C97.4058 116.67 97.8423 116.304 98.0106 115.801C98.2929 115.237 98.9423 114.791 98.7221 114.006C98.5883 113.632 98.398 113.279 98.1574 112.962C97.8604 111.625 97.1539 110.414 96.1358 109.497C95.828 109.109 95.348 108.898 94.8539 108.933C93.6737 109.091 92.5161 109.361 91.3528 109.604C90.7745 109.767 90.1799 109.862 89.5796 109.886C88.5971 109.78 87.6037 109.866 86.6545 110.14C86.1688 110.327 85.6719 110.14 85.1467 110.456C84.7232 110.705 83.9891 110.654 83.4018 110.75C82.426 110.877 81.457 111.055 80.4993 111.28C79.7256 111.489 78.8052 111.28 78.1953 112.025C77.7898 112.494 77.3522 112.933 76.8852 113.34C75.7897 114.351 74.6716 115.338 73.5365 116.309C73.2333 116.539 72.943 116.786 72.6669 117.048C72.2208 117.522 71.6165 117.776 71.1478 118.273C70.6791 118.77 70.0806 119.057 69.5723 119.486C68.7648 120.164 68.2509 121.151 67.3135 121.682C66.698 122.02 66.4157 122.81 65.8001 123.064C64.8176 123.505 64.6707 124.611 63.8519 125.175C63.8124 125.175 63.8519 125.367 63.8858 125.452C63.9931 125.74 64.1117 126.016 64.2359 126.298C64.49 126.863 64.9587 127.523 64.9813 127.991C64.9474 128.849 65.2015 129.239 65.9244 129.464ZM147.106 98.5651C147.371 98.3393 147.552 98.1023 147.275 97.7637C147.427 97.5718 147.512 97.3009 147.84 97.5323C148.015 97.6451 148.229 97.4984 148.122 97.2614C147.761 96.46 148.489 95.952 148.63 95.2861C148.743 94.7556 149.551 94.4226 149.093 93.6663C149.023 93.2509 149.126 92.8254 149.376 92.4868C149.986 91.7926 149.901 91.5386 149.41 91.1436C149.528 90.9743 149.89 91.0984 149.81 90.6526C149.65 89.9211 149.683 89.1604 149.906 88.4459C150.105 87.6812 150.058 86.8735 149.771 86.1376C149.564 85.2826 149.472 84.4038 149.5 83.5246C149.455 82.8716 149.351 82.2237 149.189 81.5888C149.082 80.9792 148.738 80.381 148.788 79.7038C148.788 79.478 148.619 79.1732 148.563 79.2184C147.998 79.653 147.998 78.987 147.721 78.8741C148.365 78.496 148.399 77.9091 147.975 77.2939C147.642 76.8887 147.444 76.3892 147.411 75.866C147.513 75.4772 147.28 75.0793 146.89 74.9771C146.887 74.976 146.883 74.9755 146.88 74.9743C146.083 74.7542 146.196 74.0205 146.027 73.5126C145.858 73.0047 146.027 73.0103 145.587 73.1175C145.146 73.2248 145.073 73.1627 145.282 72.7846C145.491 72.4064 145.327 72.2202 145.044 72.4177C144.372 72.8354 144.598 72.3105 144.48 72.0114C144.361 71.7123 144.514 71.0576 143.655 71.1874C143.215 71.2551 142.244 70.5609 142.345 70.228C142.65 69.2234 141.447 69.6354 141.453 69.0541C140.888 69.0541 140.623 68.6703 140.386 68.2188C140.233 67.931 139.889 67.6544 139.623 67.7165C139.048 67.8757 138.436 67.6482 138.104 67.1521C137.969 66.9998 137.782 66.204 137.274 66.9828C137.116 67.2255 136.868 66.8135 136.873 66.5595C136.908 66.3366 136.962 66.1176 137.037 65.9049C137.099 65.6001 136.839 65.4872 136.659 65.3969C136.371 65.2502 136.331 65.4364 136.388 65.6791C136.35 65.7299 136.293 65.7626 136.229 65.7694C135.512 65.6283 134.874 65.1317 134.072 65.3461C133.914 65.3856 133.852 65.1712 133.892 64.9962C133.508 65.0245 133.474 64.3472 133.191 64.5052C132.751 64.7536 132.553 64.5052 132.203 64.3811C131.605 64.1892 131.074 63.5966 130.334 63.9465C130.206 63.99 130.065 63.938 129.995 63.8223C129.594 63.3601 128.996 63.1186 128.386 63.1733C127.567 63.1733 126.692 63.4103 125.901 63.0491C125.822 63.0153 125.472 62.9081 125.393 63.2185C125.342 63.4103 125.291 63.3934 125.088 63.3313C124.885 63.2693 124.743 62.4735 124.28 63.1733C124.043 63.5402 123.648 62.6597 123.32 63.0661C122.993 63.4724 123.021 62.6202 122.829 62.9419C122.558 63.3934 122.315 63.5063 121.7 63.5063C121.071 63.4944 120.459 63.7066 119.972 64.1045L119.938 64.1327C119.447 63.9521 118.882 64.5617 118.424 63.9973C118.424 63.9973 118.323 63.9973 118.283 64.0255C117.775 64.3585 117.154 64.4883 116.663 64.7987C116.03 65.1938 115.234 65.3631 114.782 66.0177C114.748 66.0685 114.624 66.1193 114.585 66.0968C113.896 65.713 113.529 66.4241 113.156 66.6611C112.269 67.2944 111.443 68.0088 110.688 68.7945C110.423 69.0428 109.965 68.7945 109.779 69.2572C109.527 69.9463 109.065 70.5384 108.458 70.9504C108.171 71.1778 107.933 71.46 107.757 71.78C107.356 72.2992 106.995 72.8523 106.549 73.332C105.95 73.9754 105.521 74.7373 104.951 75.4089C104.132 76.374 103.821 77.6664 103.449 78.8685C103.324 79.241 102.929 79.32 102.884 79.7884C102.765 80.7083 101.924 81.4815 102.319 82.5369C101.613 83.2254 102.059 84.23 101.647 84.9919C101.433 85.387 101.941 85.5902 101.811 85.8498C101.139 87.2212 101.591 88.6716 101.393 90.0995C101.348 90.4155 101.766 90.9065 101.642 91.0871C101.218 91.691 101.98 92.2159 101.642 92.7803C102.376 93.909 102.235 95.382 102.974 96.5728C103.3 96.9735 103.52 97.4487 103.618 97.9555C103.669 98.5233 103.92 99.0549 104.324 99.4568C104.533 99.6763 104.722 99.9145 104.889 100.168C105.453 101.133 105.888 102.228 106.888 102.928C107.085 103.069 107.452 103.311 107.452 103.661C107.413 104.288 107.848 104.491 108.271 104.745C109.141 105.309 109.97 105.936 110.75 106.619C112.393 107.962 113.833 108.995 115.691 109.604C115.957 109.694 116.369 109.723 116.431 110.169C116.431 110.36 116.68 110.383 116.866 110.428C117.515 110.592 118.221 110.569 118.763 111.122C118.955 111.333 119.23 111.448 119.514 111.438C120.728 111.162 121.773 112.042 122.942 111.958C123.75 111.901 124.568 112.07 125.387 112.07C126.076 112.07 126.771 111.856 127.448 112.183C127.585 112.257 127.747 112.272 127.895 112.223C128.815 111.658 129.882 112.02 130.865 111.754C131.847 111.489 132.768 111.326 133.717 111.088C134.146 110.898 134.592 110.746 135.049 110.637C135.857 110.694 136.646 110.373 137.184 109.768C137.26 109.654 137.414 109.624 137.528 109.7C137.845 109.92 138.093 109.7 138.302 109.542C139.29 108.921 139.917 107.894 140.996 107.33C141.984 106.811 142.441 105.575 143.565 105.14C143.7 105.089 143.667 104.931 143.717 104.83C143.983 104.305 144.226 103.605 144.768 103.475C145.547 103.294 145.073 102.228 145.869 102.205C145.863 102.156 145.847 102.108 145.824 102.064C145.479 101.658 145.824 101.5 146.106 101.438C146.364 101.409 146.549 101.178 146.521 100.921C146.519 100.905 146.516 100.889 146.513 100.873C146.507 100.388 146.669 99.9156 146.97 99.5358C147.126 99.2378 147.174 98.8947 147.106 98.5651Z" fill="#E86367"/>
<path d="M77.7436 146.023C78.2744 145.95 78.5906 146.379 78.9238 146.638C79.4608 147.024 80.0272 147.368 80.6179 147.665C81.2221 147.993 81.5835 148.732 82.3797 148.732C82.583 148.732 82.6 148.992 82.7242 149.11C83.1573 149.411 83.6616 149.594 84.1868 149.641C83.8158 151.006 83.2754 152.32 82.5774 153.552C82.1539 154.252 81.6682 154.912 81.1995 155.589C81.1148 155.713 80.9115 155.815 80.9059 155.933C80.8551 156.955 80.0362 157.581 79.5224 158.276C78.9701 159.114 78.3568 159.909 77.6871 160.657C77.2941 161.105 76.962 161.602 76.6989 162.136C76.1669 163.046 75.5073 163.875 74.7394 164.596C73.8584 165.437 73.2485 166.487 72.3281 167.3C71.594 167.949 70.8599 168.637 70.1483 169.332C69.2844 170.172 68.2001 170.088 67.1554 170.031C66.7206 170.031 66.6924 169.422 66.7037 169.066C66.7025 168.138 66.8341 167.215 67.0933 166.323C67.2001 165.672 67.1735 165.006 67.0143 164.365C66.7545 162.892 66.9126 161.425 66.8392 159.952C66.8392 159.675 66.9691 159.291 66.6472 159.195C66.3253 159.099 66.1446 159.421 66.0035 159.664C65.1282 161.131 63.7447 162.187 62.8637 163.665C62.7553 163.809 62.6085 163.918 62.4402 163.981C61.5423 164.444 60.9946 165.302 60.2548 165.945C59.1254 166.944 57.996 168.033 56.6125 168.767C55.9857 169.175 55.3888 169.627 54.828 170.122C53.8257 170.812 52.7725 171.425 51.677 171.956C50.2992 172.661 48.9044 173.333 47.5152 174.021C46.3175 174.588 45.0836 175.074 43.8221 175.478C43.6301 175.545 43.4381 175.54 43.3025 175.726C43.2574 175.788 43.0428 175.805 43.0371 175.799C42.8282 175.173 42.0658 175.15 41.7891 174.671C41.5124 174.191 41.823 173.711 42.0207 173.226C42.3425 172.424 43.1501 171.866 43.1501 170.934C43.2562 170.827 43.3438 170.703 43.4098 170.568C43.7261 169.478 44.0423 168.389 44.3133 167.294C44.3924 166.972 44.59 166.611 44.3416 166.267C44.7403 164.9 44.9921 163.494 45.0926 162.074C45.0926 161.983 45.0926 161.447 44.7707 161.741C43.935 162.57 42.8451 162.869 41.8117 163.265C40.6033 163.739 39.5247 164.495 38.2598 164.845C37.6273 165.02 36.9779 165.093 36.3398 165.291C35.7395 165.542 35.115 165.731 34.4763 165.855C33.6196 166.019 32.7539 166.134 31.8843 166.199C31.5585 166.244 31.2439 166.352 30.9582 166.515C30.1281 166.803 29.2641 166.645 28.4283 166.798C26.4124 167.164 24.3625 166.989 22.3465 167.289C21.8835 167.356 21.4148 167.384 20.9461 167.43C20.884 167.226 20.7089 167.193 20.5338 167.142C19.9691 166.978 19.7546 166.577 19.4835 166.058C19.1447 165.42 19.4835 164.975 19.5626 164.444C20.3221 163.199 20.9591 161.884 21.4656 160.516C22.1094 158.975 23.0693 157.598 23.8543 156.131C24.419 155.092 25.0458 154.105 25.6783 153.123C26.1187 152.434 26.7625 151.881 27.1747 151.159C28.0274 149.663 29.5069 148.749 30.5968 147.49C31.1333 146.87 31.7262 146.362 32.2909 145.741C32.5958 145.397 33.3017 145.56 33.3469 144.838C32.449 144.889 31.7262 144.115 30.7888 144.358C30.1377 144.268 29.4956 144.122 28.8688 143.924C28.0912 143.596 27.234 143.51 26.4067 143.675C25.7477 143.442 25.0492 143.34 24.3512 143.376C23.6165 143.35 22.8807 143.371 22.1489 143.438C21.6124 143.478 21.1607 143.845 20.596 143.709C20.0313 143.574 19.6868 143.495 19.8562 142.846C19.937 142.626 19.8364 142.381 19.6247 142.281C19.348 142.084 18.8849 141.649 19.7602 141.502C19.9691 141.469 20.0877 141.085 20.2402 140.87C21.172 139.544 22.4482 138.568 23.6284 137.484C24.8086 136.4 25.8872 135.227 27.1408 134.25C28.2443 133.296 29.4555 132.475 30.7493 131.801C31.5003 131.457 32.1836 130.768 32.9459 130.322C33.6145 129.894 34.3436 129.569 35.1087 129.357C35.7073 129.157 36.2681 128.86 36.769 128.477C37.2388 128.074 37.7928 127.781 38.3896 127.619C39.519 127.438 40.5129 126.812 41.6254 126.547C42.3934 126.366 43.1614 126.163 43.9576 125.982C43.6024 125.729 43.2071 125.539 42.7887 125.418C40.8291 124.583 38.8358 123.77 36.9214 122.884C36.4759 122.7 35.997 122.609 35.5153 122.618C34.8332 122.59 34.1792 122.341 33.6518 121.907C33.5745 121.837 33.5366 121.734 33.5502 121.631C33.8551 120.948 33.9116 120.192 34.4311 119.554C34.9004 119.051 35.4803 118.665 36.1252 118.425C36.6735 118.175 37.2399 117.965 37.8193 117.799C38.384 117.629 38.8301 117.15 39.423 116.958C39.6376 116.89 39.8579 116.834 40.0724 116.772C40.8873 116.554 41.6903 116.294 42.4781 115.993C43.4606 115.603 44.4997 115.428 45.5105 115.141C46.815 114.757 48.142 114.429 49.4634 114.147C50.0705 113.95 50.6944 113.808 51.3269 113.724C52.1401 113.696 52.8855 113.227 53.7325 113.233C54.086 113.204 54.4361 113.14 54.7772 113.041C55.1104 114.108 55.1669 115.237 55.3984 116.32C55.6807 117.635 56.1494 118.854 56.5278 120.113C56.586 120.441 56.6012 120.774 56.573 121.106C56.1545 121.326 55.7079 121.487 55.2459 121.586C54.2074 121.842 53.1853 122.161 52.1853 122.539C51.6206 122.782 51.0559 123.064 50.4573 123.335C49.7119 123.685 48.9665 124.029 48.7632 124.978C48.6446 125.542 48.6559 125.903 49.3279 126.106C49.7345 126.219 50.1354 126.349 50.5476 126.451C51.9424 126.8 53.1735 127.579 54.6982 128.093C53.6422 128.093 52.942 128.657 52.1457 128.866C51.035 129.242 49.9609 129.72 48.9382 130.294C47.4734 131.099 46.069 132.01 44.7369 133.02C44.0705 133.471 43.8503 134.459 42.879 134.499C42.7999 135.311 41.9585 135.458 41.5407 135.988C41.2476 136.4 40.9105 136.779 40.5355 137.117C40.2927 137.315 39.8692 137.366 40.1063 137.845C40.3435 138.325 40.496 139.177 41.2357 139.047C42.2776 138.884 43.3342 138.835 44.3868 138.901C45.5162 138.951 46.5834 139.414 47.7241 139.414C48.0178 139.414 48.2041 139.747 48.0404 139.86C47.2667 140.391 46.8376 141.294 46.047 141.785C45.0531 142.405 44.6352 143.478 43.9971 144.33C43.433 145.069 42.9377 145.859 42.5176 146.689C42.1618 147.434 41.4503 147.981 41.3882 148.884C41.2933 149.259 41.1267 149.612 40.8969 149.923C40.5242 150.634 40.0612 151.345 40.3322 152.242C40.5073 152.807 41.1341 153.428 41.6988 153.303C43.7712 152.858 45.9058 153.106 47.9952 152.592C49.3053 152.271 50.6154 151.932 51.9481 151.644C52.1683 151.599 52.4281 151.723 52.6088 151.52C53.3768 150.679 54.5513 150.786 55.4323 150.211C55.8784 150.871 55.3589 151.413 55.3306 151.994C55.2516 153.472 54.7755 154.901 53.9528 156.131C53.6591 156.571 53.3147 157.102 53.7777 157.66C54.1956 158.195 54.9331 158.361 55.5396 158.055C56.669 157.576 57.7701 157.124 58.8318 156.549C59.1254 156.391 59.2892 155.984 59.5772 156.018C60.4129 156.125 60.9946 155.527 61.4971 155.149C62.8298 154.144 64.4449 153.456 65.45 152C65.8962 151.334 66.7489 151.063 67.2288 150.307C67.6298 149.674 68.2961 149.178 68.714 148.472C68.8049 148.997 68.8049 149.533 68.714 150.058C68.7038 150.593 68.7665 151.127 68.9004 151.644C69.0455 152.022 68.9879 152.447 68.7479 152.773C68.2905 153.433 68.6293 154.071 68.8778 154.709C68.9133 154.827 69.0195 154.911 69.1432 154.917C70.1935 154.967 71.2168 154.577 71.9667 153.84C72.4992 153.11 73.0842 152.419 73.7172 151.774C74.169 151.328 74.5688 150.831 74.9088 150.295C75.3492 149.635 75.8292 148.963 76.2979 148.359C76.8479 147.625 77.3319 146.844 77.7436 146.023Z" fill="#F2BD1E"/>
<path d="M143.853 49.2953C144.209 48.7874 144.79 48.8834 145.287 48.7987C145.716 48.6785 146.158 48.6079 146.603 48.5899C147.433 48.6745 148.105 48.0255 148.963 48.2513C149.489 48.3811 150.093 48.1497 150.657 48.1553C151.9 48.1553 153.142 48.1988 154.385 48.2851C155.536 48.2603 156.686 48.3816 157.807 48.6463C159.007 48.9624 160.191 49.3388 161.353 49.7751C162.991 50.4918 164.843 50.7288 166.288 51.8915C166.853 52.3542 167.486 52.7549 168.022 53.2685C168.22 53.4548 168.299 53.4491 168.553 53.229C169.79 52.1624 171.094 51.1691 172.365 50.1363C172.929 49.6622 173.494 49.1486 174.093 48.6802C174.958 47.964 175.777 47.1931 176.543 46.3719C176.848 46.0615 177.469 45.8075 177.622 45.9938C177.949 46.3719 178.475 46.7726 178.283 47.4442C178.15 47.973 177.836 48.4381 177.396 48.7592C176.317 49.5324 175.521 50.6555 174.426 51.3553C173.923 51.677 173.675 52.3373 172.986 52.4107C172.786 52.4665 172.616 52.598 172.511 52.7775C171.947 53.6523 171.071 54.1941 170.315 54.8657C170.066 55.0858 169.982 55.1648 170.117 55.526C170.295 56.1158 170.566 56.6739 170.919 57.1796C171.34 57.722 171.662 58.3326 171.873 58.9856C172.308 60.1245 172.685 61.2849 173.003 62.4621C173.092 63.1168 173.129 63.7771 173.116 64.4374C173.109 65.5741 172.995 66.7079 172.777 67.8237C172.581 68.9095 172.324 69.9835 172.009 71.0406C171.759 71.6535 171.546 72.2811 171.371 72.9199C171.373 72.9442 171.373 72.969 171.371 72.9933C170.19 72.9594 171.246 73.9584 170.761 74.3422C170.495 74.551 170.58 75.1436 170.083 75.3467C169.823 75.454 169.891 75.8095 169.891 76.0522C169.922 76.3852 169.814 76.7165 169.592 76.9665L165.735 77.2712C165.78 76.8423 166.3 77.1414 166.266 76.848C165.854 76.2836 165.238 76.673 164.747 76.3457C164.572 76.2272 164.114 76.4755 164.018 75.9619C164.018 75.8885 163.77 75.9055 163.685 76.024C163.267 76.6222 163.12 76.4021 163.081 75.8321C163.09 75.6983 162.989 75.5821 162.856 75.5731C162.854 75.5731 162.852 75.5731 162.849 75.5725C162.042 75.533 161.37 74.884 160.517 75.0758L160.653 74.9347C160.777 74.7203 160.8 74.5848 160.483 74.5058C159.868 74.3478 159.28 74.0825 158.659 73.981C158.446 73.981 158.241 73.8929 158.095 73.7383C157.645 73.2134 157.133 72.745 156.57 72.3443C156.045 71.9323 155.339 71.7799 154.932 71.2155C154.526 70.6512 154.001 70.2674 153.594 69.7312C153.43 69.5168 153.272 69.0991 152.86 69.0822H152.826C152.99 68.8508 153.001 68.563 152.702 68.5517C151.968 68.5235 151.787 67.9309 151.476 67.4738C151.414 67.3835 151.476 67.2029 151.273 67.2649C150.708 67.4342 150.663 66.8134 150.708 66.7006C150.827 66.2547 150.511 66.1362 150.33 65.8879C149.765 65.109 149.031 64.5277 148.461 63.7658C148.145 63.3426 148.28 62.5299 147.591 62.4847C146.902 62.4396 147.026 62.0219 146.897 61.6833C146.801 61.4576 147.235 61.3955 147.077 61.1867C146.473 60.3965 146.264 59.3242 145.513 58.6921C145.152 58.4128 144.957 57.9675 144.999 57.5126C145.152 56.5983 144.638 55.938 144.299 55.2551C144.09 54.8205 144.056 54.6287 144.672 54.4368C144.158 54.4368 143.779 54.4368 144.192 53.9571C144.604 53.4773 144.457 53.2685 143.938 53.0541C143.418 52.8396 144.463 52.3486 143.836 52.0833C143.72 52.0489 143.601 52.0258 143.48 52.0156C143.667 51.6318 144.265 51.3892 143.915 50.8869C143.565 50.3846 143.763 49.8089 143.853 49.2953ZM156.355 52.7549C156.355 51.4851 154.87 50.5765 153.758 50.8191C153.566 50.8587 153.56 50.9546 153.543 51.1408C153.389 52.7533 153.66 54.3775 154.328 55.8533C154.526 56.2879 154.752 56.8466 155.119 57.0272C155.625 57.2705 156.154 57.4595 156.7 57.5916C157.123 57.6932 157.462 57.253 157.705 56.9313C157.948 56.6096 157.665 56.429 157.36 56.3048C157.047 56.188 156.883 55.8421 156.993 55.526C156.989 55.2974 156.957 55.07 156.897 54.8488C156.875 54.053 155.728 53.5451 156.355 52.7549ZM147.958 55.5091C148.037 56.0481 148.15 56.5814 148.297 57.1062C148.399 57.411 148.749 57.1796 148.986 57.1909C149.02 57.1909 149.059 57.253 149.082 57.2925C149.41 57.8569 149.991 57.7158 150.482 57.7271C151.098 57.7271 151.38 57.3771 151.104 56.8297C150.827 56.2823 150.957 55.8082 150.714 55.2946C150.471 54.781 150.11 54.2223 150.533 53.6015C150.594 53.5106 150.569 53.3882 150.478 53.3278C150.454 53.312 150.427 53.3013 150.398 53.2967C150.031 53.2516 150.042 52.9976 150.036 52.7324C150.053 52.5461 149.93 52.3757 149.748 52.3317C149.273 52.1573 148.789 52.0105 148.297 51.8915C147.636 51.7786 147.444 52.0213 147.552 52.7154C147.687 53.5846 148.02 54.4198 147.958 55.5091ZM162.014 52.9807C162.29 52.3486 161.726 52.2527 161.488 52.0269C161.01 51.572 160.323 51.4123 159.693 51.6093C158.998 51.8012 158.987 52.8565 159.484 53.6071C159.981 54.3578 160.37 55.1366 161.539 55.0294C162.07 54.9842 162.81 54.7867 162.9 54.228C162.9 54.0699 162.872 53.816 162.748 53.8385C161.827 54.0022 162.313 53.1556 161.991 52.9807H162.014Z" fill="#F2BD1E"/>
<path d="M92.5443 150.792C92.8605 150.177 92.2224 149.832 92.0756 149.358C91.7639 148.461 92.0982 147.466 92.8888 146.937C93.4987 146.52 93.9617 145.893 94.5434 145.402C95.3113 144.753 96.0737 144.115 96.8925 143.517C97.7113 142.919 98.3777 142.388 99.0835 141.824C100.286 140.803 101.563 139.86 102.709 138.788C103.274 138.28 103.946 138.02 104.403 137.309C104.781 136.745 105.696 136.367 106.351 135.864C107.407 135.057 108.661 134.521 109.593 133.55C109.79 133.342 110.067 133.381 110.282 133.251C111.303 132.551 112.287 131.797 113.229 130.994C113.7 130.509 114.281 130.145 114.923 129.933C115.194 129.876 115.251 129.549 115.449 129.402C116.084 128.968 116.952 129.13 117.387 129.766C117.495 129.923 117.57 130.101 117.606 130.288C117.408 130.683 117.769 131.005 117.758 131.417C117.758 132.196 117.193 132.963 117.64 133.759C117.64 133.81 117.589 133.957 117.521 134.013C117.335 134.166 117.329 134.307 117.312 134.578C117.312 135.046 117.312 135.526 117.25 136C117.177 136.762 116.821 137.49 116.793 138.223C116.801 140.183 116.612 142.138 116.228 144.059C115.929 145.289 115.753 146.542 114.889 147.603C113.918 148.8 112.704 149.759 111.789 150.989C111.394 151.554 110.728 151.892 110.366 152.513C110.005 153.134 109.271 153.523 108.734 154.031C108.198 154.539 107.481 154.951 107.159 155.578C106.594 156.707 105.515 157.378 104.759 158.332C104.223 158.876 103.634 159.365 103.003 159.794C102.274 160.403 101.687 161.188 100.744 161.538C100.524 161.622 100.569 161.842 100.444 161.955C99.7104 162.599 99.0722 163.394 97.9711 163.428C96.6779 162.407 96.3843 160.877 95.7913 159.478C95.1984 158.078 94.7353 156.611 94.0972 155.217C93.6133 154.337 93.279 153.384 93.109 152.395C93.1446 151.806 92.9413 151.228 92.5443 150.792Z" fill="#55B8CA"/>
<path d="M84.4013 87.2324C84.9208 87.3566 84.8248 87.8871 85.0451 88.1806C85.5646 88.8804 84.8982 88.886 84.6102 89.0892C84.3223 89.2924 84.3957 89.5859 84.2545 89.8229C83.6898 90.8275 82.5604 91.2564 81.8828 92.1255C81.3858 92.752 80.6009 92.9834 80.1096 93.734C79.7538 94.2984 78.8334 94.6765 78.3421 95.2352C77.6475 96.0253 76.7214 96.522 76.0438 97.329C75.8518 97.5604 75.6089 98.3505 74.9144 97.995C74.8409 97.9555 74.5981 98.1417 74.5021 98.2715C74.1808 98.6948 73.7601 99.0323 73.2767 99.2535C73.0588 99.328 72.873 99.4759 72.7516 99.6712C72.6189 100.131 72.1694 100.423 71.6956 100.36C71.3624 100.36 71.6617 100.693 71.3624 100.822C70.7079 101.198 70.0777 101.614 69.4763 102.07C68.4429 102.691 67.4039 103.328 66.4269 104.051C65.6533 104.615 65.066 105.4 64.3601 106.009C63.604 106.727 62.7959 107.39 61.9432 107.99C61.3107 108.391 60.8477 109.006 60.0063 109.119C59.7505 109.185 59.4783 109.127 59.2722 108.961C58.7871 108.448 58.1337 108.128 57.4313 108.058C57.211 108.001 56.8666 108.007 56.9174 107.623C56.9377 107.61 56.9569 107.595 56.9739 107.578C56.9739 107.578 56.9739 107.55 56.9739 107.533L56.9287 107.634L55.2685 106.935C54.3198 106.397 53.4298 105.762 52.6144 105.038C52.1739 104.649 51.3664 104.474 51.2647 103.723C51.2472 103.675 51.2071 103.639 51.1574 103.627C49.7062 103.52 49.1471 102.2 48.1645 101.449C48.1103 101.394 48.0448 101.351 47.9725 101.325C47.2158 101.195 46.8431 100.924 47.5885 100.264C47.5885 100.264 47.5885 100.162 47.5885 100.111C47.645 99.8512 47.8884 99.6757 48.1532 99.705C48.3622 99.705 48.5372 99.6147 48.4977 99.3382C48.4187 98.8077 48.7462 98.5424 49.1471 98.2772C49.7796 97.8652 50.5984 97.758 51.1292 97.2162C51.5911 96.7613 52.1457 96.4108 52.7555 96.189C53.7212 95.8165 54.4496 95.0603 55.3136 94.6257C55.7936 94.383 55.98 93.5421 56.7706 93.9033C56.8779 93.9541 56.8891 93.7735 56.9456 93.7001C58.1258 92.1989 59.9385 91.5555 61.4011 90.4381C61.9935 89.986 62.6316 89.5966 63.3041 89.2754C63.8688 89.0158 64.2811 88.5643 64.8514 88.3612C65.4477 88.0987 66.0158 87.7753 66.5455 87.3961C66.9182 87.1647 67.0481 86.5044 67.4151 86.6229C67.946 86.7979 68.1662 86.4649 68.4711 86.2617C68.7219 86.0557 69.0488 85.9671 69.369 86.019C69.5836 86.0642 69.6401 86.019 69.8208 85.8497C70.2482 85.4676 70.8135 85.278 71.385 85.3248C72.4523 85.6127 73.5421 85.2628 74.5755 85.5957C74.5998 85.6008 74.6247 85.6008 74.6489 85.5957C75.3435 85.4829 76.0099 85.2233 76.7214 85.6522C77.4329 86.0811 78.4776 86.0811 79.3642 86.2166C80.3976 86.3689 81.2955 87.1647 82.4192 86.8374C82.4435 86.8306 82.4683 86.8306 82.4926 86.8374C82.993 86.9514 83.5046 87.0084 84.0173 87.0067C84.0738 87.2098 84.2206 87.2493 84.4013 87.2324Z" fill="#55B8CA"/>
<path d="M97.9937 163.394C99.0892 163.366 99.733 162.565 100.467 161.921C100.591 161.814 100.546 161.588 100.766 161.504C101.692 161.154 102.28 160.375 103.025 159.76C103.657 159.331 104.246 158.842 104.781 158.298C105.538 157.344 106.6 156.678 107.181 155.544C107.503 154.917 108.226 154.5 108.757 153.998C109.288 153.495 110.005 153.14 110.389 152.479C110.773 151.819 111.422 151.497 111.812 150.956C112.727 149.697 113.941 148.738 114.912 147.569C115.776 146.508 115.951 145.255 116.25 144.025C116.634 142.104 116.824 140.149 116.815 138.19C116.815 137.45 117.205 136.728 117.273 135.966C117.318 135.492 117.306 135.012 117.335 134.544C117.335 134.29 117.335 134.149 117.544 133.979C117.611 133.923 117.69 133.776 117.662 133.725C117.21 132.924 117.769 132.162 117.781 131.383C117.781 130.971 117.425 130.65 117.628 130.254C118.385 130.757 118.978 131.485 119.819 131.874C121.271 133.054 121.141 134.594 120.949 136.237C120.791 137.625 120.949 139.059 120.904 140.458C120.87 141.779 121.203 143.088 120.83 144.443C120.757 145.009 120.796 145.584 120.943 146.136C121.064 146.749 120.956 147.386 120.638 147.925C120.22 148.523 120.153 149.488 119.187 149.618C119.147 149.618 119.102 149.68 119.08 149.725C118.43 150.967 117.182 151.701 116.414 152.818C115.889 153.591 115.285 154.302 114.72 155.019C114.297 155.55 114.014 156.272 113.241 156.639C112.676 156.893 112.394 157.705 112.038 158.304C111.673 158.881 111.188 159.372 110.615 159.743C110.203 160.113 109.825 160.519 109.485 160.956C108.994 161.47 108.441 161.91 107.949 162.39C107.204 163.107 106.255 163.654 105.691 164.574C105.473 165.082 104.894 165.33 104.375 165.138C103.418 164.954 102.45 164.835 101.478 164.783C101.201 164.749 100.823 164.924 100.744 164.444C100.744 164.41 100.614 164.348 100.569 164.365C99.7556 164.687 99.1909 164.337 98.677 163.727C98.5302 163.547 98.2252 163.502 97.9937 163.394Z" fill="#F2BD1E"/>
<path d="M84.023 87.018C83.5102 87.0197 82.9986 86.9627 82.4983 86.8487C82.474 86.8419 82.4492 86.8419 82.4249 86.8487C81.2955 87.1816 80.4033 86.3802 79.3699 86.2279C78.4833 86.098 77.5177 86.1432 76.7271 85.6635C75.9365 85.1838 75.3492 85.4998 74.6546 85.607C74.6303 85.6121 74.6055 85.6121 74.5812 85.607C73.5478 85.2684 72.4579 85.607 71.3907 85.3361C70.8316 85.2814 70.2737 85.4547 69.8434 85.8159C69.6627 85.9852 69.6062 86.0303 69.3916 85.9852C69.0714 85.9332 68.7445 86.0219 68.4938 86.2279C68.1888 86.4367 67.9742 86.764 67.4378 86.589C67.0764 86.4705 66.9408 87.1534 66.5681 87.3622C66.0384 87.7415 65.4704 88.0649 64.874 88.3273C64.3093 88.5361 63.8745 88.982 63.3268 89.2416C62.6508 89.5729 62.011 89.9741 61.4181 90.4381C59.9555 91.5668 58.1428 92.1989 56.9626 93.7001C56.9061 93.7735 56.8948 93.9541 56.7875 93.9033C55.997 93.5478 55.8162 94.383 55.3306 94.6257C54.4384 95.0772 53.7382 95.8109 52.7725 96.189C52.1626 96.4108 51.6081 96.7613 51.1462 97.2162C50.6154 97.7805 49.7965 97.8652 49.1641 98.2772C48.7631 98.5368 48.4356 98.8021 48.5147 99.3382C48.5599 99.6148 48.3792 99.6994 48.1702 99.705C47.9054 99.6757 47.662 99.8512 47.6055 100.111C47.1989 100.021 47.1199 99.4906 47.0973 99.3438C46.9392 98.2151 46.9222 97.0356 46.8488 95.8786C46.8731 95.5377 47.0939 95.2426 47.4135 95.1224C48.4752 94.6201 49.0173 93.5534 49.9716 92.9382C51.6341 91.919 53.2401 90.8117 54.7828 89.6197C55.9122 88.6942 57.2562 88.0677 58.459 87.2437C59.5376 86.51 60.6388 85.7989 61.7795 85.1668C62.3442 84.8677 62.8637 84.5404 63.4228 84.2808C64.0366 84.0302 64.5657 83.6092 64.9474 83.0674C65.0937 82.8174 65.3777 82.6813 65.6646 82.7231C67.7201 82.915 69.7813 83.0053 71.8255 83.2141C72.9266 83.327 74.0843 83.5471 75.1629 83.6712C76.6424 83.8406 78.0824 84.2977 79.5732 84.3259C80.0029 84.3807 80.4213 84.5065 80.8099 84.6984C81.4988 85.1386 82.3854 85.0652 83.0687 85.6014C83.5599 85.9304 83.9027 86.4395 84.023 87.018Z" fill="#F2BD1E"/>
<path d="M139.635 50.1362C139.668 50.4974 139.578 50.7006 139.194 50.4466L139.635 50.1362Z" fill="#E86367"/>
<path d="M38.751 174.546C38.7937 174.515 38.8084 174.458 38.7847 174.411L38.8522 174.512L38.751 174.546Z" fill="#183848"/>
<path d="M77.7435 146.023C77.312 146.818 76.8111 147.573 76.247 148.281C75.7783 148.884 75.2983 149.556 74.8578 150.216C74.5179 150.752 74.1181 151.249 73.6663 151.695C73.0333 152.34 72.4483 153.031 71.9158 153.761C71.1658 154.498 70.1426 154.888 69.0923 154.839C68.9686 154.832 68.8624 154.748 68.8269 154.63C68.5727 153.992 68.2622 153.354 68.697 152.694C68.937 152.368 68.9946 151.943 68.8494 151.565C68.7156 151.048 68.6529 150.514 68.6631 149.979C68.754 149.454 68.754 148.918 68.6631 148.393C68.2509 149.088 67.5789 149.596 67.1779 150.228C66.6923 150.995 65.8452 151.266 65.3991 151.921C64.4109 153.399 62.7959 154.06 61.4462 155.07C60.9493 155.448 60.3677 156.052 59.5263 155.939C59.2383 155.9 59.0745 156.312 58.7809 156.47C57.7136 157.034 56.5898 157.497 55.4887 157.976C54.8822 158.282 54.1447 158.116 53.7268 157.581C53.2637 157.017 53.6138 156.498 53.9018 156.052C54.7246 154.822 55.2007 153.393 55.2797 151.915C55.3079 151.351 55.8444 150.786 55.3814 150.132C54.523 150.696 53.3484 150.6 52.5579 151.441C52.3715 151.644 52.1174 151.514 51.8972 151.565C50.5758 151.853 49.26 152.192 47.9443 152.513C45.8549 153.027 43.7203 152.779 41.6479 153.224C41.0832 153.349 40.4507 152.739 40.2813 152.163C40.0159 151.266 40.4733 150.561 40.846 149.844C41.0758 149.533 41.2424 149.18 41.3373 148.805C41.4107 147.902 42.1222 147.355 42.4667 146.61C42.8868 145.78 43.3821 144.99 43.9462 144.251C44.5843 143.371 45.0078 142.321 45.9961 141.706C46.7866 141.215 47.2102 140.312 47.9894 139.781C48.1532 139.668 47.9894 139.335 47.6732 139.335C46.5438 139.335 45.4765 138.872 44.3358 138.822C43.2832 138.756 42.2267 138.805 41.1848 138.968C40.4225 139.098 40.2926 138.297 40.0554 137.766C39.8182 137.236 40.2418 137.236 40.4846 137.038C40.8595 136.7 41.1967 136.321 41.4898 135.91C41.9076 135.379 42.749 135.227 42.8281 134.42C43.7994 134.38 44.0196 133.392 44.6859 132.941C46.0181 131.931 47.4225 131.02 48.8873 130.215C49.91 129.641 50.984 129.163 52.0948 128.787C52.891 128.567 53.5856 128.031 54.6472 128.014C53.1282 127.489 51.8972 126.722 50.4967 126.372C50.0845 126.27 49.6835 126.14 49.277 126.027C48.6276 125.841 48.6163 125.463 48.7123 124.899C48.9155 123.956 49.6666 123.606 50.4064 123.256C50.9711 122.985 51.5358 122.692 52.1343 122.461C53.1344 122.082 54.1565 121.764 55.195 121.507C55.6569 121.408 56.1036 121.247 56.5221 121.027C56.8202 121.228 57.0049 121.559 57.019 121.919C57.063 122.275 57.1974 122.615 57.4086 122.906C58.3234 124.306 58.8881 125.915 59.7973 127.292C60.362 128.161 61.13 128.985 61.6891 129.854C62.2481 130.723 62.9088 131.366 63.3041 132.281C63.5334 132.781 63.8869 133.215 64.3318 133.539C64.8 133.873 65.1862 134.31 65.4612 134.815C65.8396 135.582 66.4721 136.107 66.9182 136.801C67.3468 137.424 67.8844 137.966 68.505 138.398C69.352 139.019 69.8885 139.939 70.7129 140.56C71.1929 140.921 71.9835 141.401 72.0231 141.689C72.1699 142.721 73.5703 142.151 73.5873 143.122C75.016 143.416 75.7501 144.753 76.9755 145.38C77.2748 145.6 77.4611 145.893 77.7435 146.023Z" fill="#55B8CA"/>
<path d="M98.1235 112.979C98.3641 113.296 98.5544 113.648 98.6882 114.023C98.9141 114.808 98.2647 115.248 97.9767 115.818C97.8084 116.321 97.3719 116.687 96.8473 116.766C96.6327 116.766 96.6666 116.964 96.6214 117.105C96.5762 117.246 96.4689 117.471 96.3842 117.477C95.5993 117.477 95.2548 118.183 94.7749 118.606C93.6455 119.633 92.2337 120.299 91.093 121.315C90.2008 122.128 89.0432 122.641 88.0662 123.375C87.3773 123.888 86.6319 124.317 85.9712 124.893C85.4556 125.241 84.9045 125.534 84.3279 125.768C84.1698 125.852 83.9496 125.864 83.8423 125.982C82.7129 127.246 81.0188 127.766 79.816 128.928C79.0745 129.636 78.263 130.265 77.3934 130.808C76.5294 131.372 75.9816 132.269 74.9934 132.608C74.728 132.698 74.728 133.037 74.5586 133.223C73.9939 133.816 73.2429 134.166 72.7064 134.798C72.4805 135.069 72.1756 134.916 72.0005 134.634C71.4753 133.799 70.5775 133.505 69.7982 133.037C68.7535 132.388 67.5846 131.981 66.5794 131.31C65.9989 130.897 65.7267 130.174 65.8905 129.481C66.2293 129.346 66.5399 129.261 66.6076 128.759C66.6076 128.539 66.7375 127.98 67.0876 127.974C68.0194 127.974 68.217 126.964 69.0076 126.716C69.6372 126.413 70.1822 125.959 70.5944 125.395C71.1252 124.97 71.6798 124.574 72.2546 124.21C72.9453 123.596 73.6771 123.031 74.4457 122.517C75.0104 122.178 75.7501 121.874 76.0325 121.388C76.6649 120.344 77.7605 119.921 78.6188 119.266C79.6974 118.448 80.8381 117.658 81.9675 116.885C82.662 116.392 83.3222 115.852 83.9439 115.27C84.2545 114.988 84.3336 114.35 84.983 114.706C84.983 114.706 85.0677 114.655 85.1072 114.621C86.8013 113.402 88.7834 113.019 90.7542 112.595C91.6295 112.409 92.5725 112.55 93.4365 112.375C94.6647 112.178 95.9195 112.224 97.1297 112.511C97.5136 112.607 97.8976 112.595 98.1235 112.979Z" fill="#55B8CA"/>
<path d="M98.1235 112.979C97.892 112.607 97.508 112.618 97.1409 112.545C95.9308 112.258 94.676 112.212 93.4478 112.409C92.5838 112.578 91.6408 112.437 90.7655 112.629C88.8003 113.052 86.8126 113.442 85.1185 114.655C85.079 114.683 85.0168 114.751 84.9943 114.74C84.3392 114.407 84.2658 115.045 83.9552 115.304C83.3335 115.886 82.6733 116.426 81.9788 116.918C80.8494 117.692 79.72 118.482 78.6301 119.3C77.7718 119.949 76.6762 120.372 76.0438 121.422C75.7614 121.891 75.0104 122.19 74.457 122.551C73.6884 123.064 72.9566 123.63 72.2659 124.244C71.6877 124.597 71.1298 124.981 70.5944 125.395C70.1844 125.944 69.648 126.385 69.0302 126.682C68.2566 126.925 68.042 127.929 67.1102 127.941C66.7601 127.941 66.6585 128.505 66.6302 128.725C66.5681 129.227 66.2575 129.289 65.9131 129.447C65.1959 129.222 64.9531 128.827 64.9135 127.991C64.9135 127.534 64.4223 126.863 64.1681 126.298C64.0439 126.016 63.9253 125.734 63.818 125.452C63.7841 125.367 63.7503 125.203 63.7841 125.175C64.5804 124.611 64.7498 123.482 65.7324 123.064C66.3479 122.788 66.6359 122.02 67.2458 121.682C68.2114 121.151 68.7253 120.169 69.5046 119.486C70.0128 119.057 70.6791 118.696 71.0801 118.273C71.481 117.85 72.153 117.517 72.5991 117.048C72.8752 116.786 73.1655 116.539 73.4687 116.309C74.5981 115.338 75.7275 114.351 76.8174 113.34C77.2844 112.933 77.7221 112.494 78.1275 112.025C78.7204 111.297 79.6578 111.461 80.4315 111.28C81.3892 111.055 82.3582 110.877 83.334 110.75C83.8987 110.654 84.6554 110.705 85.079 110.456C85.6041 110.152 86.1011 110.327 86.5867 110.14C87.536 109.866 88.5293 109.78 89.5119 109.886C90.1121 109.861 90.7068 109.767 91.285 109.604C92.4483 109.361 93.6059 109.091 94.7861 108.933C95.2803 108.898 95.7603 109.109 96.068 109.497C97.1014 110.413 97.8203 111.632 98.1235 112.979Z" fill="#F2BD1E"/>
<path d="M84.4013 87.2324C84.2206 87.2324 84.0682 87.2324 84.0173 87.0067C84.2263 86.9446 84.3279 87.0688 84.4013 87.2324Z" fill="#F2BD1E"/>
<path d="M156.355 52.755C155.728 53.5451 156.875 54.0531 156.92 54.8432C156.979 55.0644 157.011 55.2919 157.016 55.5204C156.912 55.8303 157.068 56.1672 157.372 56.288C157.677 56.4065 157.936 56.6266 157.716 56.9144C157.496 57.2022 157.151 57.6763 156.711 57.5747C156.166 57.4427 155.636 57.2536 155.13 57.0104C154.763 56.8298 154.537 56.271 154.339 55.8365C153.671 54.3606 153.4 52.7364 153.554 51.124C153.554 50.9377 153.554 50.8474 153.769 50.8023C154.864 50.5765 156.338 51.4626 156.355 52.755ZM154.351 55.1762C154.351 55.1762 154.317 55.1366 154.3 55.1366C154.283 55.1366 154.266 55.1366 154.249 55.1762C154.232 55.2157 154.277 55.2213 154.294 55.2213C154.311 55.2213 154.328 55.1987 154.351 55.1818V55.1762Z" fill="#E86367"/>
<path d="M147.958 55.5091C148.043 54.4199 147.704 53.5846 147.569 52.7211C147.456 52.0269 147.648 51.7842 148.314 51.8971C148.806 52.0162 149.29 52.1629 149.765 52.3373C149.947 52.3813 150.07 52.5518 150.053 52.738C150.053 53.0033 150.053 53.2516 150.415 53.3024C150.523 53.3182 150.597 53.4187 150.581 53.527C150.577 53.5558 150.567 53.5835 150.55 53.6072C150.127 54.2167 150.516 54.8318 150.731 55.3003C150.946 55.7687 150.872 56.3444 151.121 56.8354C151.369 57.3264 151.121 57.7553 150.499 57.7327C150.008 57.7327 149.427 57.8794 149.099 57.2981C149.099 57.2586 149.037 57.1966 149.003 57.1966C148.766 57.1966 148.438 57.4167 148.314 57.1119C148.161 56.5859 148.042 56.0503 147.958 55.5091Z" fill="#E86367"/>
<path d="M161.991 52.9807C162.307 53.1726 161.827 53.9966 162.725 53.8386C162.849 53.8386 162.9 54.0756 162.878 54.228C162.787 54.7924 162.042 54.9786 161.517 55.0294C160.342 55.1366 159.969 54.3747 159.461 53.6072C158.953 52.8396 158.975 51.8012 159.67 51.6093C160.3 51.4124 160.988 51.5721 161.466 52.027C161.703 52.2527 162.268 52.3486 161.991 52.9807Z" fill="#E86367"/>
<path d="M56.9115 107.633L56.9562 107.533C56.9562 107.533 56.9562 107.566 56.9562 107.577C56.9394 107.594 56.9205 107.609 56.9004 107.622L56.9115 107.633Z" fill="#E86367"/>
<path d="M169.564 76.9213L165.707 77.2261C165.752 76.7972 166.272 77.0963 166.238 76.8028C165.825 76.2384 165.21 76.6279 164.719 76.3005C164.544 76.182 164.086 76.4303 163.99 75.9168C163.99 75.8434 163.742 75.8603 163.657 75.9788C163.239 76.5771 163.092 76.357 163.053 75.7869C163.062 75.6532 162.961 75.5369 162.828 75.5279C162.826 75.5279 162.824 75.5279 162.821 75.5273C162.014 75.4878 161.342 74.8388 160.489 75.0307C160.342 75.0307 160.258 74.9235 160.286 74.7767C160.286 74.7203 160.37 74.6413 160.416 74.6356C160.585 74.6356 160.591 74.7767 160.63 74.8952C160.754 74.6808 160.777 74.5453 160.461 74.4663C159.845 74.3083 159.252 74.043 158.637 73.9415C158.423 73.9415 158.219 73.8534 158.072 73.6988C157.627 73.1891 157.123 72.7343 156.57 72.3443C156.045 71.9323 155.339 71.7799 154.932 71.2155C154.526 70.6512 154.001 70.2674 153.594 69.7312C153.43 69.5168 153.272 69.0991 152.86 69.0822L152.775 69.3531C152.741 69.3531 152.691 69.3023 152.679 69.2685C152.651 69.1827 152.697 69.0901 152.783 69.0619C152.795 69.0579 152.807 69.0551 152.82 69.054C152.984 68.8226 152.995 68.5348 152.696 68.5235C151.962 68.4953 151.781 67.9027 151.471 67.4455C151.409 67.3552 151.471 67.1746 151.267 67.2367C150.703 67.406 150.658 66.7852 150.703 66.6723C150.821 66.2265 150.505 66.108 150.324 65.8597C149.76 65.0808 149.026 64.4995 148.455 63.7376C148.139 63.3143 148.275 62.5016 147.586 62.4565C146.897 62.4113 147.021 61.9937 146.891 61.6551C146.795 61.4293 147.23 61.3673 147.072 61.1584C146.468 60.3683 146.259 59.296 145.508 58.6639C145.146 58.3845 144.952 57.9393 144.994 57.4844C145.146 56.5701 144.632 55.9098 144.293 55.2269C144.085 54.7923 144.051 54.6004 144.666 54.4085C144.152 54.4085 143.774 54.4085 144.186 53.9288C144.598 53.4491 144.452 53.2403 143.932 53.0258C143.413 52.8114 144.457 52.3204 143.83 52.0551C143.715 52.0207 143.595 51.9976 143.475 51.9874C143.661 51.6036 144.26 51.3609 143.909 50.8587C143.559 50.3564 143.768 49.8371 143.859 49.3236C143.249 49.0865 142.729 49.4139 142.165 49.5437C141.877 49.6057 141.639 49.7807 141.323 49.8371C140.758 49.9387 140.126 49.696 139.657 50.1645C139.691 50.5257 139.601 50.7288 139.217 50.4749L139.064 50.3056C139.256 50.9546 139.064 51.7842 139.934 52.1172C139.941 52.1804 139.932 52.2447 139.906 52.3034C139.51 52.3655 139.81 52.5066 139.832 52.659C139.906 53.2234 140.069 53.7482 140.132 54.2787C140.261 55.3172 140.431 56.35 140.578 57.3884C140.629 57.7496 141.069 57.9189 141.001 58.1165C140.725 58.884 141.425 59.3355 141.566 59.9789C141.713 60.7182 142.464 61.3108 142.695 62.1122C142.797 62.4621 143.096 62.3718 143.26 62.4847C143.605 62.6992 142.82 62.8854 143.096 63.2297C143.096 63.2297 143.096 63.2805 143.13 63.2974C143.783 63.9143 144.26 64.6937 144.514 65.5549C144.83 66.6159 146.208 66.8022 146.473 67.9817C146.594 68.4806 147.023 68.8452 147.535 68.8847C147.535 70.1432 148.89 70.4931 149.314 71.4864C149.515 71.9295 149.821 72.3172 150.206 72.6152C151.081 73.2924 151.843 74.0995 152.691 74.8049C153.396 75.3693 154.068 76.1933 154.859 76.4981C155.813 76.8649 156.412 77.9541 157.581 77.7961C157.818 78.3605 158.518 78.0049 158.648 78.146C159.109 78.6985 159.748 79.0739 160.455 79.207C161.376 79.3764 162.087 80.0536 162.974 80.3358C164.391 80.8211 165.893 80.934 167.305 81.4024L169.4 77.2825L169.344 77.1809L169.451 77.2317L169.564 76.9213Z" fill="#5AB7C6"/>
<path d="M160.5 75.0251C160.353 75.0251 160.269 74.9178 160.297 74.7711C160.297 74.7147 160.382 74.6356 160.427 74.63C160.596 74.63 160.602 74.7711 160.641 74.8896L160.5 75.0251Z" fill="#F2BD1E"/>
<path d="M152.859 69.0652L152.775 69.3353C152.741 69.3353 152.69 69.2847 152.679 69.2509C152.651 69.1654 152.697 69.0731 152.783 69.045C152.795 69.041 152.807 69.0382 152.82 69.0371L152.859 69.0652Z" fill="#F2BD1E"/>
<path d="M169.382 77.2869L169.327 77.1866L169.432 77.2367L169.382 77.2869Z" fill="#FFFFFE"/>
<path d="M114.229 68.3936C114.342 68.958 113.715 69.1725 113.619 69.6409C113.619 69.6804 113.495 69.7143 113.432 69.7143C112.853 69.7352 112.391 70.2064 112.382 70.7866C112.341 71.2432 112.162 71.676 111.868 72.0282C111.721 72.2088 111.484 72.3894 111.738 72.6942C111.919 72.9086 111.642 72.9651 111.535 73.0892C110.908 73.8398 110.101 74.5001 110.519 75.7023C110.62 75.9957 110.366 76.4134 110.253 76.7689C110.14 77.1245 109.881 77.3333 110.163 77.6888C110.163 77.7227 110.208 77.813 110.163 77.8243C109.468 78.3379 109.672 79.2691 109.225 79.8504C109.008 80.0835 108.932 80.4153 109.028 80.7195C109.09 80.9791 109.197 81.2839 108.723 81.329C108.666 81.329 108.61 81.3911 108.559 81.425C109.09 81.741 108.446 82.2603 108.734 82.5537C109.022 82.8472 108.83 83.1181 108.734 83.3213C108.247 84.4444 108.291 85.7272 108.853 86.8147C109 87.0913 108.48 87.4243 108.819 87.7064C109.44 88.2257 109.338 88.9142 109.299 89.5802C109.285 89.7342 109.359 89.8832 109.491 89.9639C109.803 90.2072 109.958 90.6005 109.897 90.9911C109.804 91.5532 110.131 92.1006 110.671 92.2835C110.908 92.3964 111.049 92.5036 110.818 92.7181C110.586 92.9325 110.756 93.2091 110.874 93.4517C111.055 93.8073 111.546 94.1064 111.117 94.5805C111.083 94.6144 111.117 94.7216 111.145 94.795C112.128 94.5974 111.575 95.5173 111.846 95.856C112.174 96.404 112.657 96.8419 113.235 97.1145C113.8 97.329 113.839 98.057 114.042 98.5932C114.088 98.706 114.008 98.9149 114.071 98.9544C114.946 99.5187 115.2 100.896 116.527 100.907C116.611 100.903 116.683 100.967 116.687 101.052C116.688 101.076 116.683 101.1 116.674 101.122C116.301 101.867 116.962 101.833 117.335 102.013C117.942 102.228 118.469 102.622 118.848 103.142C118.916 103.261 118.921 103.385 119.096 103.294C119.401 103.142 119.593 103.221 119.661 103.571C119.661 103.718 119.735 103.797 119.915 103.735C120.48 103.537 120.683 103.644 120.791 104.248C120.797 104.379 120.889 104.489 121.016 104.519C121.92 104.711 122.615 105.484 123.484 105.586C124.252 105.676 124.856 106.099 125.574 106.201C125.771 106.201 125.958 106.269 126.037 106.41C126.257 106.827 126.483 106.573 126.709 106.449C127.302 106.122 127.714 106.297 127.838 106.98C127.883 107.194 128.03 107.386 128.171 107.284C128.871 106.788 129.656 107.809 130.34 107.121C130.498 106.957 130.667 107.172 130.808 107.268C130.949 107.364 131.283 107.544 131.446 107.364C131.763 107.014 132.011 107.364 132.265 107.364C132.886 107.364 133.57 107.522 134.146 107.132C134.298 107.031 134.411 106.867 134.609 107.031C135.173 107.505 135.507 107.031 135.868 106.72C136.026 106.59 136.128 106.398 136.371 106.444C136.523 106.444 136.563 106.59 136.585 106.726C136.636 107.019 136.41 107.166 136.224 107.262C135.345 107.776 134.418 108.205 133.457 108.543C132.401 108.837 131.441 109.35 130.385 109.672C129.378 109.882 128.352 109.988 127.324 109.988C125.726 110.106 124.173 109.638 122.598 109.519C121.824 109.463 121.152 109.13 120.384 109.096C119.876 109.096 119.475 108.532 118.859 108.532C118.269 108.527 117.7 108.315 117.25 107.934C115.9 106.889 114.336 106.173 113.116 104.914C112.382 104.152 111.36 103.65 110.699 102.758C110.64 102.631 110.489 102.577 110.362 102.636C110.343 102.644 110.326 102.656 110.31 102.668C110.169 102.758 109.999 102.668 110.061 102.549C110.44 101.765 109.722 101.494 109.35 101.161C108.635 100.446 108.061 99.604 107.656 98.6778C107.579 98.5192 107.469 98.3787 107.334 98.2658C107.023 98.0119 106.571 97.8426 106.617 97.3064C106.617 97.2556 106.526 97.1766 106.464 97.1427C105.335 96.5163 105.465 95.2916 105.131 94.2927C105.056 94.0511 104.964 93.8152 104.855 93.5872C104.2 92.2948 104.33 90.85 104.07 89.4842C104.048 89.3279 104.009 89.1744 103.951 89.0271C103.706 88.4808 103.624 87.8752 103.714 87.2832C103.844 86.3858 103.838 85.4377 103.9 84.529C103.951 83.7953 103.816 82.9431 104.369 82.2715C104.445 82.1694 104.492 82.0486 104.505 81.9216C104.713 80.864 105.085 79.8453 105.606 78.9022C106.033 77.8051 106.576 76.7571 107.226 75.7756C107.791 75.0363 107.893 73.9245 108.921 73.5181C109.621 73.2303 109.779 72.4176 110.05 71.7742C110.112 71.6388 110.05 71.4356 110.242 71.3792C111.202 71.0631 111.592 69.9965 112.371 69.624C113.06 69.2966 113.568 68.7605 114.234 68.4557L114.229 68.3936Z" fill="#E86367"/>
<path d="M114.24 68.4276C114.376 67.9987 114.522 67.5867 115.031 67.4456C115.121 67.4456 115.07 67.2706 115.031 67.186C115.347 67.5923 115.347 67.5923 115.742 66.8925C115.782 68.0212 114.827 68.0212 114.246 68.4219L114.24 68.4276Z" fill="#E86367"/>
<path d="M144.118 72.1637C144.146 72.1637 144.214 72.2256 144.208 72.2481C144.203 72.2706 144.163 72.4169 144.112 72.445C143.972 72.5125 144.034 72.3662 144.022 72.3212C144.011 72.2762 144.005 72.1693 144.118 72.1637Z" fill="#E86367"/>
<path d="M115.019 67.1854L114.997 67.169L115.013 67.1854H115.019Z" fill="#E86367"/>
<path d="M126.635 103.131C126.753 103.091 126.793 103.164 126.821 103.254L126.77 103.305L126.646 103.12L126.635 103.131Z" fill="#55B8CA"/>
<path d="M126.816 103.255C126.883 103.255 126.979 103.305 126.911 103.378C126.844 103.452 126.788 103.378 126.765 103.305L126.816 103.255Z" fill="#55B8CA"/>
<path d="M113.405 108.295L113.417 108.353L113.37 108.341L113.405 108.295Z" fill="#E86367"/>
<path d="M119.983 64.0819L120.072 64.1655C119.988 64.2435 119.966 64.1655 119.949 64.1153L119.983 64.0819Z" fill="#E86367"/>
<path d="M154.349 55.1812C154.349 55.1812 154.31 55.2258 154.294 55.2258C154.277 55.2258 154.26 55.1979 154.249 55.1812C154.238 55.1645 154.282 55.1422 154.299 55.1422C154.316 55.1422 154.333 55.1645 154.349 55.1812Z" fill="#F2BD1E"/>
<path d="M113.438 75.9162L113.381 75.9667C113.366 75.9229 113.355 75.878 113.348 75.8319C113.348 75.8319 113.348 75.7926 113.393 75.7757L113.438 75.9162Z" fill="#183848"/>
<path d="M149.782 86.115C149.575 85.26 149.484 84.3813 149.511 83.502C149.466 82.849 149.362 82.2011 149.201 81.5662C149.093 80.9567 148.749 80.3528 148.8 79.6812C148.817 79.4554 148.63 79.1507 148.574 79.1958C148.026 79.6304 148.02 78.9644 147.732 78.8516C148.376 78.4734 148.41 77.8865 147.987 77.2713C147.653 76.8661 147.456 76.3666 147.422 75.8435C147.423 75.8401 147.424 75.8361 147.425 75.8327C147.521 75.4422 147.282 75.0477 146.891 74.9518C146.095 74.7317 146.185 73.9133 146.038 73.49C145.891 73.0668 145.954 73.0103 145.598 73.095C145.242 73.1796 145.124 73.0724 145.293 72.762C145.462 72.4516 145.338 72.2202 145.056 72.3952C144.401 72.8184 144.644 72.3161 144.491 71.9888C144.339 71.6615 144.519 71.035 143.667 71.1648C143.226 71.2269 142.255 70.5384 142.356 70.2054C142.661 69.2065 141.464 69.5959 141.464 69.0315C140.871 69.0541 140.634 68.6477 140.397 68.1962C140.244 67.914 139.9 67.6262 139.635 67.6939C139.06 67.8531 138.447 67.6257 138.116 67.1296C137.98 66.9603 137.794 66.1814 137.285 66.9603C137.127 67.2029 136.885 66.7909 136.885 66.537C136.919 66.3141 136.974 66.0951 137.048 65.8823C137.116 65.5775 136.856 65.4703 136.67 65.3744C136.399 65.2276 136.342 65.4139 136.399 65.6566C136.361 65.7074 136.304 65.7401 136.241 65.7469C135.524 65.6058 134.886 65.1091 134.084 65.3236C133.903 65.3631 133.863 65.143 133.903 64.9737C133.519 65.0019 133.485 64.319 133.203 64.4827C132.779 64.7366 132.565 64.4714 132.214 64.3585C131.616 64.1666 131.079 63.574 130.345 63.9239C130.217 63.9674 130.077 63.9155 130.006 63.7998C129.606 63.3376 129.007 63.096 128.397 63.1507C127.578 63.1282 126.726 63.3878 125.912 63.0266C125.833 62.9871 125.483 62.8855 125.404 63.1959C125.359 63.3878 125.342 63.3821 125.099 63.3088C124.856 63.2354 124.755 62.4509 124.292 63.1507C124.055 63.5176 123.671 62.6033 123.332 63.0435C122.993 63.4837 123.032 62.5977 122.84 62.9194C122.552 63.3878 122.31 63.4837 121.711 63.4837C121.082 63.4719 120.47 63.6841 119.983 64.082L120.068 64.161C119.983 64.2456 119.944 64.1892 119.944 64.1102C119.452 63.9296 118.893 64.5391 118.43 63.9747C118.413 63.9578 118.329 64.003 118.289 64.003C117.798 64.3359 117.165 64.4657 116.668 64.7761C116.036 65.1712 115.234 65.3179 114.788 65.9952C114.754 66.0742 114.63 66.0742 114.59 66.0742C113.907 65.6904 113.54 66.4015 113.162 66.6386C112.262 67.2774 111.424 67.9993 110.66 68.7945C110.389 69.0428 109.937 68.8058 109.751 69.2573C109.499 69.9463 109.036 70.5384 108.429 70.9504C108.129 71.1722 107.878 71.4527 107.69 71.7743C107.289 72.2936 106.927 72.8467 106.481 73.3264C105.883 73.9698 105.448 74.7317 104.883 75.4033C104.07 76.3683 103.782 77.6664 103.381 78.8629C103.268 79.2184 102.878 79.3144 102.816 79.7828C102.726 80.7027 101.879 81.4815 102.252 82.5313C101.546 83.2198 101.992 84.23 101.58 84.9863C101.359 85.3813 101.868 85.5845 101.743 85.8441C101.071 87.2156 101.517 88.6829 101.325 90.0939C101.28 90.4155 101.698 90.9009 101.574 91.0815C101.167 91.6854 101.93 92.2102 101.574 92.7746C102.308 93.9259 102.167 95.3764 102.907 96.5672C103.232 96.9685 103.453 97.4431 103.55 97.9499C103.602 98.5177 103.852 99.0493 104.256 99.4511C104.465 99.6707 104.654 99.9088 104.821 100.162C105.408 101.127 105.82 102.228 106.82 102.922C107.018 103.057 107.385 103.306 107.385 103.656C107.345 104.282 107.78 104.485 108.203 104.739C109.074 105.304 109.902 105.93 110.682 106.613C112.326 107.956 113.766 108.989 115.624 109.599C115.889 109.683 116.296 109.711 116.363 110.163C116.392 110.349 116.617 110.377 116.798 110.423C117.448 110.586 118.131 110.552 118.696 111.117C118.888 111.327 119.162 111.442 119.447 111.433C120.661 111.151 121.683 112.037 122.874 111.952C123.682 111.896 124.506 112.065 125.319 112.065C126.008 112.065 126.703 111.85 127.381 112.178C127.517 112.252 127.679 112.266 127.827 112.217C128.747 111.636 129.865 112.003 130.797 111.749C131.729 111.495 132.7 111.32 133.649 111.083C134.079 110.892 134.525 110.741 134.981 110.631C135.79 110.688 136.578 110.367 137.116 109.762C137.192 109.649 137.346 109.618 137.461 109.694C137.777 109.92 138.02 109.672 138.234 109.536C139.234 108.921 139.849 107.888 140.928 107.324C141.916 106.827 142.368 105.569 143.497 105.134C143.65 105.084 143.599 104.926 143.65 104.824C143.915 104.299 144.135 103.594 144.7 103.469C145.479 103.289 145.005 102.2 145.801 102.2C145.795 102.151 145.78 102.103 145.756 102.059C145.412 101.652 145.739 101.494 146.038 101.432C146.054 101.43 146.07 101.428 146.086 101.424C146.339 101.369 146.5 101.121 146.445 100.868C146.439 100.382 146.601 99.91 146.902 99.5301C147.083 99.2429 147.157 98.9014 147.111 98.5651C146.936 98.7654 146.932 98.7637 147.106 98.5651C147.394 98.345 147.552 98.1023 147.286 97.7637C147.168 97.6 147.168 97.5774 147.286 97.7411C147.411 97.5492 147.495 97.2783 147.851 97.5097C148.026 97.6226 148.241 97.4758 148.133 97.2388C147.772 96.4374 148.506 95.9295 148.642 95.2635C148.755 94.7273 149.568 94.4 149.105 93.6437C149.035 93.2284 149.137 92.8028 149.387 92.4642C149.986 91.77 149.918 91.5161 149.421 91.121C149.534 90.9573 149.901 91.0759 149.822 90.63C149.661 89.8986 149.695 89.1378 149.918 88.4233C150.117 87.6592 150.069 86.851 149.782 86.115ZM136.241 107.279C135.362 107.793 134.435 108.223 133.474 108.56C132.418 108.876 131.458 109.39 130.402 109.689C129.395 109.899 128.369 110.005 127.341 110.005C125.743 110.101 124.19 109.649 122.615 109.536C121.841 109.48 121.169 109.147 120.401 109.113C119.893 109.062 119.486 108.504 118.876 108.549C118.286 108.544 117.717 108.332 117.267 107.951C115.917 106.912 114.347 106.195 113.133 104.931C112.41 104.169 111.377 103.667 110.716 102.775C110.708 102.757 110.697 102.739 110.684 102.723C110.596 102.614 110.436 102.597 110.327 102.685C110.186 102.775 110.01 102.708 110.078 102.566C110.457 101.776 109.739 101.505 109.367 101.178C108.652 100.463 108.078 99.621 107.673 98.6949C107.596 98.5363 107.486 98.3958 107.351 98.2829C107.04 98.0289 106.588 97.8596 106.634 97.3234C106.639 97.2727 106.543 97.1936 106.481 97.1598C105.335 96.539 105.482 95.3143 105.148 94.3097C105.073 94.0682 104.981 93.8322 104.872 93.6042C104.217 92.3231 104.341 90.867 104.087 89.5013C104.065 89.3449 104.026 89.1914 103.968 89.0441C103.723 88.4978 103.641 87.8922 103.731 87.3002C103.861 86.4029 103.855 85.4604 103.917 84.5461C103.968 83.8011 103.821 82.9545 104.386 82.2886C104.462 82.1864 104.509 82.0657 104.522 81.9387C104.723 80.8765 105.089 79.8522 105.606 78.9024C106.025 77.7962 106.563 76.7386 107.21 75.7475C107.774 75.0308 107.865 73.919 108.904 73.49C109.587 73.2022 109.745 72.3952 110.033 71.7461C110.095 71.6107 110.056 71.4075 110.225 71.3511C111.185 71.035 111.575 69.9684 112.354 69.5959C113.043 69.2685 113.551 68.7324 114.217 68.4276C114.353 68.01 114.5 67.5867 115.008 67.4456C115.11 67.423 115.059 67.2763 115.008 67.186H115.014C115.33 67.5924 115.33 67.5924 115.759 66.9038C115.799 68.0156 114.827 68.0382 114.263 68.4333C114.381 69.0033 113.754 69.2121 113.653 69.6805C113.647 69.72 113.529 69.7539 113.466 69.7539C112.888 69.7658 112.42 70.2263 112.399 70.8036C112.358 71.2602 112.179 71.6931 111.885 72.0452C111.755 72.2258 111.501 72.4064 111.755 72.7112C111.93 72.92 111.659 72.9765 111.552 73.1063C110.925 73.8569 110.118 74.5172 110.536 75.7193C110.637 76.0071 110.361 76.4812 110.27 76.786C110.18 77.0907 109.898 77.3673 110.18 77.7059C110.18 77.7398 110.18 77.8413 110.18 77.8413C109.485 78.3549 109.689 79.3031 109.242 79.8674C109.025 80.1005 108.949 80.4324 109.045 80.7366C109.101 80.9962 109.209 81.3461 108.74 81.3461C108.683 81.3461 108.633 81.4082 108.576 81.442C109.107 81.7524 108.48 82.2717 108.751 82.5708C109.022 82.8699 108.836 83.1182 108.751 83.3383C108.264 84.4614 108.308 85.7442 108.87 86.8318C109.017 87.1083 108.497 87.4413 108.836 87.7235C109.457 88.2427 109.355 88.9312 109.316 89.5972C109.302 89.7513 109.376 89.9003 109.508 89.981C109.82 90.2242 109.975 90.6176 109.914 91.0081C109.821 91.5702 110.148 92.1177 110.688 92.3005C110.925 92.4134 111.146 92.4473 110.835 92.7351C110.524 93.0229 110.767 93.2261 110.891 93.4688C111.072 93.8074 111.563 94.1009 111.134 94.5975C111.1 94.6314 111.162 94.7386 111.162 94.812C112.151 94.6145 111.592 95.5287 111.863 95.873C112.191 96.421 112.674 96.859 113.252 97.1316C113.811 97.3517 113.85 98.0797 114.059 98.6102C114.088 98.7175 114.025 98.9319 114.088 98.9714C114.969 99.5471 115.217 100.924 116.544 100.924C116.568 100.923 116.592 100.928 116.614 100.937C116.691 100.972 116.725 101.062 116.691 101.139C116.318 101.884 116.985 101.85 117.352 102.03C117.959 102.245 118.486 102.639 118.865 103.159C118.933 103.278 118.938 103.402 119.113 103.311C119.441 103.153 119.627 103.238 119.678 103.588C119.701 103.752 119.752 103.814 119.932 103.752C120.514 103.554 120.7 103.661 120.808 104.265C120.814 104.396 120.906 104.506 121.033 104.536C121.937 104.728 122.632 105.501 123.501 105.603C124.263 105.687 124.873 106.116 125.591 106.218C125.788 106.246 125.98 106.28 126.054 106.427C126.274 106.844 126.5 106.59 126.726 106.466C127.29 106.139 127.719 106.314 127.855 106.997C127.9 107.211 128.047 107.403 128.188 107.302C128.888 106.799 129.679 107.826 130.357 107.138C130.515 106.974 130.622 107.144 130.825 107.285C131.029 107.426 131.3 107.561 131.463 107.381C131.785 107.053 132.017 107.381 132.282 107.381C132.903 107.381 133.598 107.539 134.163 107.149C134.321 107.048 134.434 106.884 134.626 107.048C135.19 107.522 135.529 107.025 135.885 106.737C136.043 106.607 136.145 106.421 136.388 106.461C136.546 106.489 136.602 106.607 136.602 106.743C136.653 107.042 136.433 107.183 136.241 107.279Z" fill="#183848"/>
<path d="M141.469 143.977C141.79 144.056 141.909 144.149 141.909 144.478C141.865 145.274 141.909 146.073 141.878 146.864C141.85 147.019 141.946 147.171 142.098 147.211C142.7 147.311 143.252 147.61 143.664 148.06C144.011 147.787 144.293 148.262 144.574 148.165C145.133 147.976 145.146 148.328 145.084 148.653C144.861 149.367 144.192 149.847 143.444 149.83C142.849 149.735 142.242 149.743 141.65 149.852C141.474 149.879 141.461 149.975 141.469 150.094C141.54 150.889 141.307 151.663 141.258 152.454C141.223 153.095 141.443 153.772 141.122 154.422C141.052 154.563 141.184 154.862 141.249 155.064C141.422 155.418 141.337 155.844 141.043 156.105C140.603 156.413 140.163 156.154 139.781 155.916C139.188 155.504 138.723 154.935 138.435 154.273C138.307 154.009 137.736 153.9 137.507 153.566C136.957 152.775 136.06 152.322 135.537 151.496C135.304 151.127 134.723 151.056 134.57 150.582C134.301 150.859 133.888 150.678 133.637 150.819C133.249 151.092 132.743 151.131 132.318 150.92C132.299 150.915 132.28 150.915 132.261 150.92C131.949 151.711 131.126 150.986 130.665 151.465C130.41 151.653 130.074 151.69 129.785 151.562C129.27 151.373 129.112 151.083 129.288 150.573C129.551 149.89 130.075 149.338 130.744 149.039C131.021 148.89 131.285 148.714 131.553 148.543C131.896 148.328 132.248 148.257 131.702 147.721C131.225 147.216 130.814 146.652 130.48 146.043C130.212 145.545 129.793 145.145 129.284 144.9C128.927 144.737 129.011 144.483 129.196 144.232C129.719 143.573 130.673 143.454 131.342 143.964C131.839 144.333 132.463 144.184 132.938 144.544C133.413 144.904 134.112 144.874 134.697 145.208C135.203 145.429 135.755 145.526 136.307 145.489C136.588 145.489 136.544 145.142 136.716 145.019C136.931 144.806 137.222 144.689 137.525 144.693C137.34 144.294 137.705 144.118 137.907 144.061C138.686 143.832 138.818 142.822 139.644 142.681C139.719 142.132 140.317 142.009 140.524 141.591C140.656 141.349 140.753 141.152 141.016 141.481C141.1 141.595 141.232 141.543 141.346 141.481C141.461 141.42 141.597 141.429 141.592 141.543C141.592 142.246 142.059 142.861 141.962 143.586C141.878 143.872 141.76 143.973 141.469 143.977Z" fill="#F2BD1E"/>
<path d="M81.7415 40.8695C81.9658 40.6234 82.2428 40.3686 81.6536 40.2323C81.293 40.1488 81.3501 39.7929 81.2578 39.5512C81.0423 39.0107 80.4794 38.6372 80.5542 37.9165C80.5111 37.5848 80.4209 37.2605 80.2859 36.9542C80.0836 36.5424 80.0599 36.0657 80.2199 35.6359C80.3079 35.4074 80.0748 34.9724 80.2903 34.6823C80.7301 34.0979 80.2155 33.3421 80.6773 32.7664C80.7828 32.6346 80.796 32.3885 81.0203 32.4061C81.2446 32.4237 81.0203 32.7181 81.2666 32.7972C81.1522 32.4017 81.4645 32.0106 81.161 31.6371C81.1214 31.5888 81.0951 31.4657 81.1918 31.4262C81.8339 31.1581 81.8998 30.2749 82.6166 30.1079C82.7222 30.0815 82.7354 30.0376 82.7134 29.9057C82.6694 29.6465 83.1927 29.2949 83.4434 29.3784C83.694 29.4619 84.1426 29.7344 84.0678 29.062C84.0744 29.0018 84.0986 28.9451 84.1382 28.8994C84.5335 28.6595 84.9979 28.5593 85.4575 28.6138C85.5322 28.6578 85.5498 28.7061 85.6334 28.6138C85.8049 28.4512 85.9808 28.1217 86.1831 28.6138C86.227 28.7193 86.4073 28.6138 86.4205 28.5479C86.4953 28.1085 86.7284 28.2403 87.0538 28.2315C88.2147 28.2095 89.3229 28.5479 90.4663 28.6314C90.5279 28.6314 90.629 28.6314 90.6378 28.6578C90.9192 29.3784 91.7592 29.1719 92.2033 29.6069C92.6475 30.042 92.9069 30.6616 93.5226 30.9692C93.7205 31.0702 93.5226 31.2152 93.4786 31.3602C93.4347 31.5053 93.184 31.9579 93.7513 31.7997C94.0943 31.703 94.0239 31.9798 94.0723 32.1512C94.1031 32.4852 93.7337 32.3402 93.6325 32.5291C92.9597 33.698 91.702 34.2605 90.8269 35.2316C90.545 35.5902 90.1818 35.8763 89.7671 36.0665C89.4724 36.1588 89.6439 36.506 89.3273 36.4664C89.0107 36.4269 88.8172 36.6246 88.6061 36.8048C88.2279 37.1256 87.9025 37.6836 87.5375 37.7891C86.8471 37.9605 86.4205 38.4658 85.84 38.7471C85.2596 39.0283 84.5955 39.4589 83.9931 39.8193C83.2903 40.2631 82.5335 40.6159 81.7415 40.8695Z" fill="#E86367"/>
<path d="M53.1925 71.1593C52.9594 70.9836 52.5504 70.9484 52.4361 70.531C52.4361 70.4563 52.225 70.3728 52.1283 70.3903C51.6445 70.4694 51.4862 70.3903 51.9436 70.0256C52.1019 69.8938 52.0271 69.7312 52.0315 69.5862C52.0315 69.3093 51.8908 69.0105 52.3042 68.8392C52.5109 68.7557 52.3042 68.4788 52.3042 68.2943C52.3042 68.1097 52.4053 67.8548 52.4141 67.6527C52.4141 67.3187 52.9023 66.642 51.9172 66.9804C51.7325 67.0419 51.4511 66.8134 51.1608 66.9804C51.0685 67.0375 50.7211 66.8617 50.7606 66.5805C50.8218 66.0813 51.1287 65.6458 51.5786 65.4204C51.7237 65.3619 51.8561 65.2771 51.97 65.1699C52.2118 64.9019 52.3657 64.5415 52.8495 64.6778C53.021 64.7261 53.1265 64.458 53.1881 64.3042C53.459 63.7031 53.6767 63.08 53.8389 62.4411C53.9753 61.7512 54.1995 61.0832 54.3447 60.3933C54.4898 59.7034 54.7844 59.1893 54.7228 58.5038C54.6877 58.1962 55.3473 58.0292 55.6507 58.1039C56.1784 58.179 56.6551 58.4585 56.9788 58.8817C57.4757 59.6287 58.2717 60.0857 58.8038 60.802C58.9577 61.0085 59.3535 61.0481 59.6217 61.1447C59.8108 61.2107 60.1451 60.8547 60.4177 60.7053C60.6904 60.5559 60.7915 60.2088 61.0026 59.9759C61.2137 59.743 61.2576 59.5804 61.5787 59.7122C61.8777 59.8194 62.0813 60.098 62.0932 60.4153C62.0184 61.0261 62.0052 61.7028 61.2137 61.9797C60.9806 62.0588 60.7739 62.5729 60.7739 62.8805C60.7739 63.087 61.1873 63.3199 61.4951 63.3463C61.9085 63.3902 61.992 63.5396 61.9349 63.9703C61.8777 64.4009 62.2603 64.7261 62.6033 64.9194C62.9463 65.1128 62.9507 65.4555 62.8672 65.7544C62.7528 66.1498 61.9525 66.497 61.5479 66.4574C60.441 66.2843 59.3214 66.2092 58.2013 66.2333C57.7352 66.2685 57.2163 66.4574 56.7062 66.5234C56.539 66.5234 56.4071 66.7123 56.2928 66.9057C56.1081 67.2985 55.7989 67.6197 55.4133 67.8197C55.0997 67.9603 54.8671 68.2349 54.78 68.5667C54.6701 69.0061 54.1556 69.138 53.9225 69.5247C53.5883 70.0476 53.8213 70.7595 53.1925 71.1593Z" fill="#F2BD1E"/>
<path d="M81.7416 40.8695C82.5142 40.6203 83.2526 40.2762 83.9404 39.8456C84.5428 39.4853 85.1497 39.0854 85.7873 38.7734C86.425 38.4614 86.79 37.9868 87.4848 37.8154C87.8498 37.7275 88.1752 37.1519 88.5534 36.8311C88.7645 36.6509 88.9932 36.44 89.2746 36.4927C89.5561 36.5455 89.4021 36.1851 89.7144 36.0929C90.1291 35.9026 90.4923 35.6165 90.7742 35.2579C91.6537 34.2868 92.907 33.7243 93.5798 32.5555C93.6898 32.3621 94.0592 32.5115 94.0196 32.1775C94.2988 31.8866 94.6322 31.6524 95.0003 31.4876C95.3345 31.369 95.44 30.7055 95.7215 30.3363C96.1612 29.7695 95.5895 29.229 95.7215 28.6709C95.7742 28.4776 95.5544 28.4468 95.3828 28.4468C94.3367 28.4134 93.2931 28.5725 92.3045 28.917C91.962 29.0765 91.5565 29.0123 91.2799 28.7544C90.9633 28.4512 91.1876 28.0381 91.3195 27.7393C91.6669 26.9483 92.498 26.755 93.1973 26.421C93.2412 26.421 93.3556 26.421 93.3644 26.4474C93.6238 27.1329 94.1032 26.5968 94.4066 26.5572C95.1234 26.4694 95.6775 26.9176 96.3195 26.9659C97.3486 27.0406 97.1639 28.0996 97.7092 28.5566C97.8323 28.6577 97.7312 28.7148 97.63 28.7544C97.5289 28.7939 97.5113 28.9829 97.5509 29.0005C98.1797 29.2905 97.7136 29.8266 97.7971 30.2265C97.8807 30.6264 97.5377 31.1053 97.1815 31.4481C97.0363 31.6124 96.9 31.7838 96.7725 31.9622C96.148 32.6961 95.7347 33.6013 94.9035 34.1594C94.7637 34.2582 94.7078 34.4384 94.7672 34.5988C93.9444 35.0914 93.1775 35.6719 92.4804 36.3302C91.9066 36.8518 91.305 37.3417 90.6774 37.7978C90.1365 38.145 89.6836 38.6108 89.1163 38.9184C88.7645 39.1073 88.5182 39.5028 88.162 39.6698C87.356 40.064 86.5736 40.5043 85.8181 40.9881C85.633 41.1296 85.4289 41.2434 85.2113 41.3265C84.7759 41.4209 84.4135 41.7206 84.2394 42.1306C83.6853 41.9329 83.4258 42.5701 82.9641 42.592C82.1989 42.6579 81.6184 43.4445 80.7653 43.1325C80.6752 43.1031 80.5767 43.1158 80.4971 43.1677C79.6963 43.459 78.8264 43.5047 77.9992 43.2995C77.4276 43.1809 77.1901 42.5744 77.0362 42.0955C76.8849 41.7114 76.7688 41.3142 76.6888 40.909C76.6184 40.3465 76.3765 39.5907 76.8427 39.2655C77.3088 38.9404 76.7943 38.5185 77.1505 38.3867C77.5107 38.2171 77.7908 37.9147 77.9333 37.543C78.0784 37.2661 79.3493 36.9805 79.5912 37.064C79.833 37.1475 79.8022 37.1651 79.7099 37.376C79.6373 37.6959 79.6079 38.0237 79.6219 38.3515C79.5582 38.9808 79.1118 39.5055 78.5006 39.6698C78.3686 39.7225 78.3686 39.806 78.461 39.8939C78.5533 39.9818 78.5709 40.1444 78.4214 40.2323C78.2719 40.3202 78.2103 40.4037 78.4214 40.5487C78.5388 40.6642 78.6026 40.8233 78.5973 40.9881C78.5973 41.5022 78.9447 41.5066 79.3141 41.5154C79.6835 41.5242 80.1233 41.4583 80.5366 41.4715C81.0081 41.4601 81.4496 41.2395 81.7416 40.8695Z" fill="#183848"/>
<path d="M180.841 115.634C180.256 115.603 179.821 115.423 179.31 115.542C178.8 115.66 178.536 115.212 178.325 114.795C178.22 114.584 178.132 114.281 177.85 114.676C177.758 114.803 177.631 114.733 177.56 114.619C176.936 113.635 176.241 112.707 176.289 111.429C176.329 110.655 176.179 109.873 176.689 109.183C176.945 108.84 176.953 108.274 177.591 108.282C177.771 108.282 177.591 107.843 177.78 107.843C178.33 107.922 178.514 107.36 178.985 107.254C179.484 107.125 180.005 107.109 180.511 107.206C180.677 107.228 180.846 107.194 180.99 107.109C181.764 106.828 182.31 107.417 182.943 107.628C183.334 107.764 184.007 108.208 184.02 108.616C184.02 109.135 184.385 109.403 184.53 109.79C184.724 110.308 184.865 111.016 184.706 111.297C184.368 111.912 185.058 112.514 184.535 113.055C184.221 113.334 183.996 113.699 183.888 114.105C183.888 114.157 183.809 114.241 183.778 114.237C183.154 114.136 183.04 114.839 182.622 114.984C181.993 115.212 181.355 115.41 180.841 115.634Z" fill="#55B8CA"/>
<path d="M131.553 39.7797C131.553 39.2744 131.597 38.8042 132.089 38.4614C132.314 38.312 132.529 37.9868 132.375 37.7364C132.27 37.5606 132.081 37.2442 131.716 37.3716C131.548 37.4288 131.496 37.231 131.381 37.1607C131.023 36.8632 130.548 36.7468 130.093 36.8443C129.464 37.0553 129.605 36.5587 129.653 36.339C129.84 35.6807 130.446 35.2303 131.131 35.2404C131.57 35.2931 132.014 35.2844 132.45 35.214C133.03 35.0695 133.617 34.9565 134.209 34.8757C134.508 34.8142 134.57 34.4363 134.723 34.2165C134.928 33.8158 135.24 33.4796 135.625 33.2454C135.656 33.2454 135.7 33.1795 135.691 33.1619C135.388 32.3709 136.491 32.2831 136.461 31.5888C136.461 31.3646 136.707 31.3339 136.966 31.4525C137.817 31.8159 138.462 32.5392 138.725 33.4256C138.835 33.7595 139.086 33.9529 139.451 33.6848C139.731 33.5038 140.066 33.4273 140.396 33.4695C140.666 33.5258 140.947 33.4581 141.162 33.2849C141.377 33.096 141.768 33.3597 142.015 33.5003C142.177 33.5926 141.856 33.8606 141.856 33.9749C141.817 34.3998 141.616 34.7935 141.293 35.0734C140.94 35.5876 140.379 35.9215 139.759 35.9874C139.649 35.9874 139.508 36.0841 139.574 36.1368C139.864 36.361 139.728 36.8224 139.833 36.9102C140.357 37.3497 140.273 38.1406 140.871 38.5405C141.136 38.7088 141.213 39.0591 141.045 39.3232C140.953 39.4677 140.8 39.5631 140.629 39.582C140.225 39.6874 139.811 40.0829 139.381 39.5248C139.095 39.44 138.799 39.3957 138.501 39.393C137.454 39.2265 136.424 38.9677 135.423 38.6196C135.366 38.6196 135.282 38.5361 135.269 38.5493C134.759 39.0678 133.95 39.0766 133.461 39.5732C133.11 39.9379 132.709 40.2499 132.366 40.619C132.261 40.7333 131.9 40.6762 131.694 40.619C131.487 40.5619 131.544 40.3334 131.601 40.1444C131.607 40.021 131.591 39.8975 131.553 39.7797Z" fill="#F2BD1E"/>
<path d="M86.0292 78.0056C86.0732 77.0609 86.1611 76.1381 85.1849 75.5492C85.3212 75.4526 85.7302 75.5492 85.3871 75.1625C85.0441 74.7758 84.5912 74.6616 84.3273 74.2837C83.549 73.2027 82.3528 72.9039 81.1875 72.8116C79.8682 72.7017 78.7204 73.4092 77.6958 74.2661C76.9174 74.9164 76.2666 75.6064 76.1171 76.6566C75.9513 77.2041 75.8378 77.7661 75.7784 78.3352C75.7169 78.6428 75.6773 78.9328 76.1083 79.0031C76.1522 79.0031 76.2886 79.0559 76.227 79.1657C76.0467 79.4997 76.3018 79.8029 76.2754 80.1281C76.2358 80.6071 76.7503 80.8092 76.8778 81.231C76.9394 81.4376 77.1285 81.0069 77.3484 81.152C77.1901 81.4376 77.256 81.8155 77.4979 81.8902C77.8717 82.0088 78.1443 82.3296 78.3774 82.4175C79.1778 82.6856 80.0441 83.0854 80.9236 82.6196C81.1259 82.5142 81.2886 82.523 81.3941 82.69C81.5788 82.9844 81.702 83.103 81.9307 82.9448C82.1593 82.7866 82.709 83.0459 82.6211 82.4439C82.6211 82.4439 82.9509 82.1758 83.1796 82.2857C83.2807 82.334 83.3687 82.4746 83.483 82.334C83.7864 81.9605 84.3273 81.8726 84.5208 81.3233C84.6655 80.9845 84.8867 80.6835 85.1673 80.4445C85.33 80.2995 86.1083 80.2555 85.4663 79.7194C85.3959 79.6579 85.5279 79.6315 85.563 79.6359C85.8357 79.6623 85.7829 79.4118 85.8753 79.2844C86.1919 78.8933 86.0028 78.4451 86.0292 78.0056Z" fill="#183848"/>
<path d="M94.4901 36.4313C94.7399 35.8534 94.8278 35.2185 94.7451 34.5945C93.921 35.0866 93.1528 35.6676 92.454 36.3258C91.8801 36.8474 91.2785 37.3374 90.651 37.7935C90.1101 38.1407 89.6571 38.6065 89.0899 38.9141C88.7381 39.103 88.4918 39.4985 88.1356 39.6655C87.3295 40.0597 86.5472 40.5 85.7917 40.9838C85.6065 41.1253 85.4025 41.2391 85.1848 41.3221C84.7495 41.4166 84.3871 41.7163 84.213 42.1263C84.8291 42.3882 85.4764 42.5697 86.1391 42.6668C86.4421 42.6488 86.7464 42.6488 87.0494 42.6668C87.5793 42.7323 88.1118 42.7692 88.6457 42.7767C89.169 42.8162 89.6703 42.3372 90.2552 42.6229C90.3564 42.6712 90.5103 42.5394 90.5235 42.368C90.8885 42.2625 90.4531 41.9286 90.7038 41.7835C91.0028 41.9461 91.337 42.223 91.68 41.8143L91.5877 41.6605L91.658 41.5858L91.5877 41.6605L91.68 41.8143L91.7592 41.7352C91.9439 41.6328 92.0965 41.4803 92.1989 41.2958C92.56 41.1596 92.826 40.8476 92.9026 40.4697C92.9597 40.1752 93.0345 40.0302 93.3423 40.1093C93.6501 40.1884 93.6941 40.017 93.6457 39.7754C93.6106 39.604 93.6018 39.5908 93.7821 39.5644C93.8986 39.549 93.9852 39.4489 93.9844 39.3315C93.8744 39.0371 94.0635 38.8921 94.2482 38.7603C94.301 38.7163 94.4725 38.6416 94.3098 38.4878C94.1471 38.334 94.2614 38.2242 94.3098 38.0484C94.3586 37.6731 94.4747 37.3102 94.6528 36.9762C94.7979 36.6993 94.2702 36.8004 94.4901 36.4313Z" fill="#E86367"/>
</g>
<defs>
<clipPath id="clip0">
<rect width="200" height="200" fill="white"/>
</clipPath>
</defs>
</svg>
